NotoSerifBengali-Regular.ufo
<glyph name="exclam" format="2">
  <advance width="341"/>
  <unicode hex="0021"/>
  <outline>
    <contour>
      <point x="156" y="198" type="line"/>
      <point x="199" y="198" type="line"/>
      <point x="231" y="714" type="line"/>
      <point x="124" y="714" type="line"/>
    </contour>
    <contour>
      <point x="177" y="-7" type="curve" smooth="yes"/>
      <point x="209" y="-7"/>
      <point x="237" y="9"/>
      <point x="237" y="59" type="curve" smooth="yes"/>
      <point x="237" y="108"/>
      <point x="209" y="124"/>
      <point x="177" y="124" type="curve" smooth="yes"/>
      <point x="144" y="124"/>
      <point x="117" y="108"/>
      <point x="117" y="59" type="curve" smooth="yes"/>
      <point x="117" y="9"/>
      <point x="144" y="-7"/>
    </contour>
  </outline>
</glyph>
<glyph name="quotedbl" format="2">
  <advance width="395"/>
  <unicode hex="0022"/>
  <outline>
    <contour>
      <point x="268" y="484" type="line"/>
      <point x="311" y="484" type="line"/>
      <point x="339" y="714" type="line"/>
      <point x="239" y="714" type="line"/>
    </contour>
    <contour>
      <point x="83" y="484" type="line"/>
      <point x="127" y="484" type="line"/>
      <point x="155" y="714" type="line"/>
      <point x="56" y="714" type="line"/>
    </contour>
  </outline>
</glyph>
<glyph name="numbersign" format="2">
  <advance width="559"/>
  <unicode hex="0023"/>
  <outline>
    <contour>
      <point x="80" y="0" type="line"/>
      <point x="137" y="0" type="line"/>
      <point x="175" y="205" type="line"/>
      <point x="318" y="205" type="line"/>
      <point x="279" y="0" type="line"/>
      <point x="336" y="0" type="line"/>
      <point x="375" y="205" type="line"/>
      <point x="501" y="205" type="line"/>
      <point x="501" y="260" type="line"/>
      <point x="386" y="260" type="line"/>
      <point x="423" y="460" type="line"/>
      <point x="534" y="460" type="line"/>
      <point x="534" y="516" type="line"/>
      <point x="434" y="516" type="line"/>
      <point x="472" y="714" type="line"/>
      <point x="415" y="714" type="line"/>
      <point x="377" y="516" type="line"/>
      <point x="234" y="516" type="line"/>
      <point x="271" y="714" type="line"/>
      <point x="214" y="714" type="line"/>
      <point x="177" y="516" type="line"/>
      <point x="57" y="516" type="line"/>
      <point x="57" y="460" type="line"/>
      <point x="167" y="460" type="line"/>
      <point x="128" y="260" type="line"/>
      <point x="24" y="260" type="line"/>
      <point x="24" y="205" type="line"/>
      <point x="118" y="205" type="line"/>
    </contour>
    <contour>
      <point x="187" y="260" type="line"/>
      <point x="224" y="460" type="line"/>
      <point x="367" y="460" type="line"/>
      <point x="330" y="260" type="line"/>
    </contour>
  </outline>
</glyph>
<glyph name="percent" format="2">
  <advance width="895"/>
  <unicode hex="0025"/>
  <outline>
    <contour>
      <point x="234" y="0" type="line"/>
      <point x="296" y="0" type="line"/>
      <point x="656" y="714" type="line"/>
      <point x="594" y="714" type="line"/>
    </contour>
    <contour>
      <point x="208" y="280" type="curve" smooth="yes"/>
      <point x="317" y="280"/>
      <point x="370" y="369"/>
      <point x="370" y="503" type="curve"/>
      <point x="370" y="637"/>
      <point x="316" y="724"/>
      <point x="209" y="724" type="curve" smooth="yes"/>
      <point x="95" y="724"/>
      <point x="46" y="637"/>
      <point x="46" y="503" type="curve" smooth="yes"/>
      <point x="46" y="369"/>
      <point x="94" y="280"/>
    </contour>
    <contour>
      <point x="208" y="319" type="curve" smooth="yes"/>
      <point x="151" y="319"/>
      <point x="129" y="387"/>
      <point x="129" y="503" type="curve"/>
      <point x="129" y="616"/>
      <point x="150" y="684"/>
      <point x="208" y="684" type="curve" smooth="yes"/>
      <point x="266" y="684"/>
      <point x="286" y="618"/>
      <point x="286" y="503" type="curve" smooth="yes"/>
      <point x="286" y="388"/>
      <point x="266" y="319"/>
    </contour>
    <contour>
      <point x="686" y="-10" type="curve" smooth="yes"/>
      <point x="795" y="-10"/>
      <point x="848" y="79"/>
      <point x="848" y="213" type="curve" smooth="yes"/>
      <point x="848" y="347"/>
      <point x="794" y="434"/>
      <point x="687" y="434" type="curve" smooth="yes"/>
      <point x="572" y="434"/>
      <point x="524" y="347"/>
      <point x="524" y="213" type="curve" smooth="yes"/>
      <point x="524" y="79"/>
      <point x="572" y="-10"/>
    </contour>
    <contour>
      <point x="686" y="29" type="curve" smooth="yes"/>
      <point x="629" y="29"/>
      <point x="607" y="97"/>
      <point x="607" y="213" type="curve" smooth="yes"/>
      <point x="607" y="326"/>
      <point x="628" y="394"/>
      <point x="687" y="394" type="curve" smooth="yes"/>
      <point x="744" y="394"/>
      <point x="763" y="328"/>
      <point x="763" y="213" type="curve" smooth="yes"/>
      <point x="763" y="98"/>
      <point x="744" y="29"/>
    </contour>
  </outline>
</glyph>
<glyph name="parenleft" format="2">
  <advance width="372"/>
  <unicode hex="0028"/>
  <outline>
    <contour>
      <point x="284" y="-126" type="curve"/>
      <point x="284" y="-83" type="line"/>
      <point x="146" y="-1"/>
      <point x="130" y="158"/>
      <point x="130" y="317" type="curve" smooth="yes"/>
      <point x="130" y="476"/>
      <point x="146" y="635"/>
      <point x="284" y="715" type="curve"/>
      <point x="284" y="758" type="line"/>
      <point x="105" y="688"/>
      <point x="34" y="560"/>
      <point x="34" y="317" type="curve" smooth="yes"/>
      <point x="34" y="73"/>
      <point x="105" y="-56"/>
    </contour>
  </outline>
</glyph>
<glyph name="parenright" format="2">
  <advance width="401"/>
  <unicode hex="0029"/>
  <outline>
    <contour>
      <point x="117" y="-126" type="line"/>
      <point x="296" y="-56"/>
      <point x="367" y="73"/>
      <point x="367" y="317" type="curve" smooth="yes"/>
      <point x="367" y="560"/>
      <point x="296" y="688"/>
      <point x="117" y="758" type="curve"/>
      <point x="117" y="715" type="line"/>
      <point x="255" y="635"/>
      <point x="271" y="476"/>
      <point x="271" y="317" type="curve" smooth="yes"/>
      <point x="271" y="158"/>
      <point x="255" y="-1"/>
      <point x="117" y="-83" type="curve"/>
    </contour>
  </outline>
</glyph>
<glyph name="asterisk" format="2">
  <advance width="492"/>
  <unicode hex="002A"/>
  <outline>
    <contour>
      <point x="202" y="378" type="line"/>
      <point x="285" y="378" type="line"/>
      <point x="258" y="538" type="line"/>
      <point x="411" y="445" type="line"/>
      <point x="444" y="519" type="line"/>
      <point x="277" y="569" type="line"/>
      <point x="444" y="620" type="line"/>
      <point x="411" y="693" type="line"/>
      <point x="258" y="600" type="line"/>
      <point x="284" y="760" type="line"/>
      <point x="202" y="760" type="line"/>
      <point x="227" y="600" type="line"/>
      <point x="75" y="696" type="line"/>
      <point x="41" y="621" type="line"/>
      <point x="208" y="569" type="line"/>
      <point x="41" y="518" type="line"/>
      <point x="75" y="443" type="line"/>
      <point x="226" y="538" type="line"/>
    </contour>
  </outline>
</glyph>
<glyph name="plus" format="2">
  <advance width="559"/>
  <unicode hex="002B"/>
  <outline>
    <contour>
      <point x="250" y="143" type="line"/>
      <point x="307" y="143" type="line"/>
      <point x="307" y="330" type="line"/>
      <point x="494" y="330" type="line"/>
      <point x="494" y="386" type="line"/>
      <point x="307" y="386" type="line"/>
      <point x="307" y="572" type="line"/>
      <point x="250" y="572" type="line"/>
      <point x="250" y="386" type="line"/>
      <point x="64" y="386" type="line"/>
      <point x="64" y="330" type="line"/>
      <point x="250" y="330" type="line"/>
    </contour>
  </outline>
</glyph>
<glyph name="comma" format="2">
  <advance width="315"/>
  <unicode hex="002C"/>
  <outline>
    <contour>
      <point x="88" y="-154" type="line"/>
      <point x="203" y="-120"/>
      <point x="247" y="-45"/>
      <point x="247" y="38" type="curve" smooth="yes"/>
      <point x="247" y="94"/>
      <point x="212" y="124"/>
      <point x="173" y="124" type="curve" smooth="yes"/>
      <point x="137" y="124"/>
      <point x="111" y="103"/>
      <point x="111" y="67" type="curve" smooth="yes"/>
      <point x="111" y="10"/>
      <point x="182" y="17"/>
      <point x="182" y="-23" type="curve" smooth="yes"/>
      <point x="182" y="-61"/>
      <point x="153" y="-93"/>
      <point x="88" y="-114" type="curve"/>
    </contour>
  </outline>
</glyph>
<glyph name="period" format="2">
  <advance width="299"/>
  <unicode hex="002E"/>
  <outline>
    <contour>
      <point x="177" y="-7" type="curve" smooth="yes"/>
      <point x="209" y="-7"/>
      <point x="236" y="9"/>
      <point x="236" y="59" type="curve" smooth="yes"/>
      <point x="236" y="108"/>
      <point x="209" y="124"/>
      <point x="177" y="124" type="curve" smooth="yes"/>
      <point x="144" y="124"/>
      <point x="117" y="108"/>
      <point x="117" y="59" type="curve" smooth="yes"/>
      <point x="117" y="9"/>
      <point x="144" y="-7"/>
    </contour>
  </outline>
</glyph>
<glyph name="two" format="2">
  <advance width="559"/>
  <unicode hex="0032"/>
  <outline>
    <contour>
      <point x="61" y="0" type="line"/>
      <point x="491" y="0" type="line"/>
      <point x="496" y="173" type="line"/>
      <point x="454" y="173" type="line"/>
      <point x="450" y="155" type="line" smooth="yes"/>
      <point x="441" y="116"/>
      <point x="426" y="80"/>
      <point x="366" y="80" type="curve" smooth="yes"/>
      <point x="135" y="80" type="line"/>
      <point x="304" y="267" type="line" smooth="yes"/>
      <point x="409" y="383"/>
      <point x="471" y="464"/>
      <point x="471" y="557" type="curve" smooth="yes"/>
      <point x="471" y="658"/>
      <point x="394" y="724"/>
      <point x="268" y="724" type="curve" smooth="yes"/>
      <point x="139" y="724"/>
      <point x="72" y="667"/>
      <point x="72" y="590" type="curve" smooth="yes"/>
      <point x="72" y="539"/>
      <point x="110" y="525"/>
      <point x="158" y="525" type="curve"/>
      <point x="158" y="604"/>
      <point x="177" y="674"/>
      <point x="268" y="674" type="curve" smooth="yes"/>
      <point x="338" y="674"/>
      <point x="370" y="623"/>
      <point x="370" y="547" type="curve" smooth="yes"/>
      <point x="370" y="455"/>
      <point x="334" y="389"/>
      <point x="228" y="266" type="curve" smooth="yes"/>
      <point x="61" y="73" type="line"/>
    </contour>
  </outline>
</glyph>
<glyph name="seven" format="2">
  <advance width="559"/>
  <unicode hex="0037"/>
  <outline>
    <contour>
      <point x="190" y="0" type="line"/>
      <point x="265" y="0" type="line"/>
      <point x="511" y="685" type="line"/>
      <point x="511" y="714" type="line"/>
      <point x="64" y="714" type="line"/>
      <point x="59" y="533" type="line"/>
      <point x="101" y="533" type="line"/>
      <point x="105" y="583" type="line" smooth="yes"/>
      <point x="108" y="616"/>
      <point x="127" y="634"/>
      <point x="163" y="634" type="curve" smooth="yes"/>
      <point x="426" y="634" type="line"/>
    </contour>
  </outline>
</glyph>
<glyph name="colon" format="2">
  <advance width="299"/>
  <unicode hex="003A"/>
  <outline>
    <contour>
      <point x="177" y="408" type="curve" smooth="yes"/>
      <point x="209" y="408"/>
      <point x="236" y="424"/>
      <point x="236" y="473" type="curve" smooth="yes"/>
      <point x="236" y="523"/>
      <point x="209" y="538"/>
      <point x="177" y="538" type="curve" smooth="yes"/>
      <point x="144" y="538"/>
      <point x="117" y="523"/>
      <point x="117" y="473" type="curve" smooth="yes"/>
      <point x="117" y="424"/>
      <point x="144" y="408"/>
    </contour>
    <contour>
      <point x="177" y="-7" type="curve" smooth="yes"/>
      <point x="209" y="-7"/>
      <point x="236" y="9"/>
      <point x="236" y="59" type="curve" smooth="yes"/>
      <point x="236" y="108"/>
      <point x="209" y="124"/>
      <point x="177" y="124" type="curve" smooth="yes"/>
      <point x="144" y="124"/>
      <point x="117" y="108"/>
      <point x="117" y="59" type="curve" smooth="yes"/>
      <point x="117" y="9"/>
      <point x="144" y="-7"/>
    </contour>
  </outline>
</glyph>
<glyph name="semicolon" format="2">
  <advance width="326"/>
  <unicode hex="003B"/>
  <outline>
    <contour>
      <point x="88" y="-154" type="line"/>
      <point x="203" y="-120"/>
      <point x="247" y="-45"/>
      <point x="247" y="38" type="curve" smooth="yes"/>
      <point x="247" y="94"/>
      <point x="212" y="124"/>
      <point x="172" y="124" type="curve" smooth="yes"/>
      <point x="137" y="124"/>
      <point x="111" y="103"/>
      <point x="111" y="67" type="curve" smooth="yes"/>
      <point x="111" y="10"/>
      <point x="182" y="17"/>
      <point x="182" y="-23" type="curve"/>
      <point x="182" y="-61"/>
      <point x="152" y="-93"/>
      <point x="88" y="-114" type="curve"/>
    </contour>
    <contour>
      <point x="181" y="408" type="curve" smooth="yes"/>
      <point x="213" y="408"/>
      <point x="241" y="424"/>
      <point x="241" y="473" type="curve" smooth="yes"/>
      <point x="241" y="523"/>
      <point x="213" y="538"/>
      <point x="181" y="538" type="curve" smooth="yes"/>
      <point x="148" y="538"/>
      <point x="122" y="523"/>
      <point x="122" y="473" type="curve" smooth="yes"/>
      <point x="122" y="424"/>
      <point x="148" y="408"/>
    </contour>
  </outline>
</glyph>
<glyph name="equal" format="2">
  <advance width="559"/>
  <unicode hex="003D"/>
  <outline>
    <contour>
      <point x="65" y="428" type="line"/>
      <point x="494" y="428" type="line"/>
      <point x="494" y="484" type="line"/>
      <point x="65" y="484" type="line"/>
    </contour>
    <contour>
      <point x="65" y="229" type="line"/>
      <point x="494" y="229" type="line"/>
      <point x="494" y="286" type="line"/>
      <point x="65" y="286" type="line"/>
    </contour>
  </outline>
</glyph>
<glyph name="greater" format="2">
  <advance width="559"/>
  <unicode hex="003E"/>
  <outline>
    <contour>
      <point x="65" y="111" type="line"/>
      <point x="494" y="340" type="line"/>
      <point x="494" y="375" type="line"/>
      <point x="65" y="605" type="line"/>
      <point x="65" y="542" type="line"/>
      <point x="407" y="357" type="line"/>
      <point x="65" y="174" type="line"/>
    </contour>
  </outline>
</glyph>
<glyph name="question" format="2">
  <advance width="477"/>
  <unicode hex="003F"/>
  <outline>
    <contour>
      <point x="184" y="201" type="line"/>
      <point x="245" y="201" type="line"/>
      <point x="245" y="314" type="line"/>
      <point x="369" y="365"/>
      <point x="439" y="433"/>
      <point x="439" y="543" type="curve" smooth="yes"/>
      <point x="439" y="657"/>
      <point x="346" y="724"/>
      <point x="220" y="724" type="curve" smooth="yes"/>
      <point x="91" y="724"/>
      <point x="33" y="676"/>
      <point x="33" y="612" type="curve" smooth="yes"/>
      <point x="33" y="569"/>
      <point x="68" y="547"/>
      <point x="116" y="547" type="curve"/>
      <point x="116" y="616"/>
      <point x="145" y="675"/>
      <point x="228" y="675" type="curve" smooth="yes"/>
      <point x="305" y="675"/>
      <point x="337" y="629"/>
      <point x="337" y="560" type="curve" smooth="yes"/>
      <point x="337" y="480"/>
      <point x="300" y="400"/>
      <point x="184" y="353" type="curve"/>
    </contour>
    <contour>
      <point x="213" y="-7" type="curve" smooth="yes"/>
      <point x="247" y="-7"/>
      <point x="276" y="10"/>
      <point x="276" y="61" type="curve" smooth="yes"/>
      <point x="276" y="113"/>
      <point x="247" y="129"/>
      <point x="213" y="129" type="curve" smooth="yes"/>
      <point x="178" y="129"/>
      <point x="150" y="113"/>
      <point x="150" y="61" type="curve" smooth="yes"/>
      <point x="150" y="10"/>
      <point x="178" y="-7"/>
    </contour>
  </outline>
</glyph>
<glyph name="bracketleft" format="2">
  <advance width="358"/>
  <unicode hex="005B"/>
  <outline>
    <contour>
      <point x="63" y="-128" type="line"/>
      <point x="280" y="-128" type="line"/>
      <point x="280" y="-88" type="line"/>
      <point x="233" y="-88" type="line" smooth="yes"/>
      <point x="188" y="-88"/>
      <point x="155" y="-79"/>
      <point x="155" y="-15" type="curve" smooth="yes"/>
      <point x="155" y="646" type="line" smooth="yes"/>
      <point x="155" y="711"/>
      <point x="188" y="720"/>
      <point x="233" y="720" type="curve" smooth="yes"/>
      <point x="280" y="720" type="line"/>
      <point x="280" y="760" type="line"/>
      <point x="63" y="760" type="line"/>
    </contour>
  </outline>
</glyph>
<glyph name="backslash" format="2">
  <advance width="288"/>
  <unicode hex="005C"/>
  <outline>
    <contour>
      <point x="232" y="-121" type="line"/>
      <point x="288" y="-121" type="line"/>
      <point x="55" y="760" type="line"/>
      <point x="0" y="760" type="line"/>
    </contour>
  </outline>
</glyph>
<glyph name="bracketright" format="2">
  <advance width="392"/>
  <unicode hex="005D"/>
  <outline>
    <contour>
      <point x="112" y="-128" type="line"/>
      <point x="328" y="-128" type="line"/>
      <point x="328" y="760" type="line"/>
      <point x="112" y="760" type="line"/>
      <point x="112" y="720" type="line"/>
      <point x="158" y="720" type="line" smooth="yes"/>
      <point x="204" y="720"/>
      <point x="237" y="711"/>
      <point x="237" y="646" type="curve" smooth="yes"/>
      <point x="237" y="-15" type="line" smooth="yes"/>
      <point x="237" y="-79"/>
      <point x="204" y="-88"/>
      <point x="158" y="-88" type="curve" smooth="yes"/>
      <point x="112" y="-88" type="line"/>
    </contour>
  </outline>
</glyph>
<glyph name="asciicircum" format="2">
  <advance width="559"/>
  <unicode hex="005E"/>
  <outline>
    <contour>
      <point x="51" y="267" type="line"/>
      <point x="115" y="267" type="line"/>
      <point x="278" y="628" type="line"/>
      <point x="443" y="267" type="line"/>
      <point x="506" y="267" type="line"/>
      <point x="295" y="714" type="line"/>
      <point x="262" y="714" type="line"/>
    </contour>
  </outline>
</glyph>
<glyph name="underscore" format="2">
  <advance width="459"/>
  <unicode hex="005F"/>
  <outline>
    <contour>
      <point x="-5" y="-139" type="line"/>
      <point x="464" y="-139" type="line"/>
      <point x="464" y="-83" type="line"/>
      <point x="-5" y="-83" type="line"/>
    </contour>
  </outline>
</glyph>
<glyph name="braceright" format="2">
  <advance width="453"/>
  <unicode hex="007D"/>
  <outline>
    <contour>
      <point x="112" y="-128" type="line"/>
      <point x="175" y="-128" type="line" smooth="yes"/>
      <point x="267" y="-128"/>
      <point x="315" y="-72"/>
      <point x="315" y="15" type="curve" smooth="yes"/>
      <point x="315" y="189" type="line" smooth="yes"/>
      <point x="315" y="272"/>
      <point x="368" y="294"/>
      <point x="434" y="297" type="curve"/>
      <point x="434" y="336" type="line"/>
      <point x="368" y="338"/>
      <point x="315" y="361"/>
      <point x="315" y="443" type="curve" smooth="yes"/>
      <point x="315" y="618" type="line" smooth="yes"/>
      <point x="315" y="708"/>
      <point x="267" y="760"/>
      <point x="175" y="760" type="curve" smooth="yes"/>
      <point x="112" y="760" type="line"/>
      <point x="112" y="719" type="line"/>
      <point x="142" y="719" type="line" smooth="yes"/>
      <point x="202" y="719"/>
      <point x="225" y="683"/>
      <point x="225" y="613" type="curve" smooth="yes"/>
      <point x="225" y="441" type="line" smooth="yes"/>
      <point x="225" y="375"/>
      <point x="262" y="330"/>
      <point x="334" y="318" type="curve"/>
      <point x="334" y="317" type="line"/>
      <point x="259" y="305"/>
      <point x="225" y="259"/>
      <point x="225" y="192" type="curve" smooth="yes"/>
      <point x="225" y="19" type="line" smooth="yes"/>
      <point x="225" y="-50"/>
      <point x="202" y="-87"/>
      <point x="143" y="-87" type="curve" smooth="yes"/>
      <point x="112" y="-87" type="line"/>
    </contour>
  </outline>
</glyph>
<glyph name="asciitilde" format="2">
  <advance width="559"/>
  <unicode hex="007E"/>
  <outline>
    <contour>
      <point x="55" y="270" type="curve"/>
      <point x="111" y="270" type="line"/>
      <point x="119" y="349"/>
      <point x="136" y="387"/>
      <point x="175" y="387" type="curve" smooth="yes"/>
      <point x="208" y="387"/>
      <point x="233" y="362"/>
      <point x="264" y="333" type="curve" smooth="yes"/>
      <point x="301" y="298"/>
      <point x="336" y="270"/>
      <point x="382" y="270" type="curve" smooth="yes"/>
      <point x="475" y="270"/>
      <point x="495" y="375"/>
      <point x="503" y="443" type="curve"/>
      <point x="446" y="443" type="line"/>
      <point x="436" y="370"/>
      <point x="422" y="326"/>
      <point x="383" y="326" type="curve" smooth="yes"/>
      <point x="355" y="326"/>
      <point x="329" y="350"/>
      <point x="300" y="377" type="curve" smooth="yes"/>
      <point x="254" y="419"/>
      <point x="222" y="443"/>
      <point x="175" y="443" type="curve" smooth="yes"/>
      <point x="82" y="443"/>
      <point x="63" y="346"/>
    </contour>
  </outline>
</glyph>
<glyph name="multiply" format="2">
  <advance width="558"/>
  <unicode hex="00D7"/>
  <outline>
    <contour>
      <point x="110" y="149" type="line"/>
      <point x="279" y="318" type="line"/>
      <point x="448" y="149" type="line"/>
      <point x="488" y="189" type="line"/>
      <point x="319" y="358" type="line"/>
      <point x="488" y="527" type="line"/>
      <point x="448" y="567" type="line"/>
      <point x="279" y="397" type="line"/>
      <point x="110" y="566" type="line"/>
      <point x="70" y="527" type="line"/>
      <point x="239" y="359" type="line"/>
      <point x="70" y="190" type="line"/>
    </contour>
  </outline>
</glyph>
<glyph name="divide" format="2">
  <advance width="559"/>
  <unicode hex="00F7"/>
  <outline>
    <contour>
      <point x="65" y="330" type="line"/>
      <point x="494" y="330" type="line"/>
      <point x="494" y="386" type="line"/>
      <point x="65" y="386" type="line"/>
    </contour>
    <contour>
      <point x="280" y="116" type="curve" smooth="yes"/>
      <point x="308" y="116"/>
      <point x="330" y="130"/>
      <point x="330" y="170" type="curve" smooth="yes"/>
      <point x="330" y="211"/>
      <point x="308" y="224"/>
      <point x="280" y="224" type="curve" smooth="yes"/>
      <point x="251" y="224"/>
      <point x="230" y="211"/>
      <point x="230" y="170" type="curve" smooth="yes"/>
      <point x="230" y="130"/>
      <point x="251" y="116"/>
    </contour>
    <contour>
      <point x="280" y="492" type="curve" smooth="yes"/>
      <point x="308" y="492"/>
      <point x="330" y="505"/>
      <point x="330" y="545" type="curve" smooth="yes"/>
      <point x="330" y="586"/>
      <point x="308" y="599"/>
      <point x="280" y="599" type="curve" smooth="yes"/>
      <point x="251" y="599"/>
      <point x="230" y="586"/>
      <point x="230" y="545" type="curve" smooth="yes"/>
      <point x="230" y="505"/>
      <point x="251" y="492"/>
    </contour>
  </outline>
</glyph>
<glyph name="uni02BC" format="2">
  <advance width="246"/>
  <unicode hex="02BC"/>
  <outline>
    <contour>
      <point x="31" y="436" type="line"/>
      <point x="146" y="470"/>
      <point x="190" y="545"/>
      <point x="190" y="628" type="curve" smooth="yes"/>
      <point x="190" y="684"/>
      <point x="155" y="714"/>
      <point x="116" y="714" type="curve" smooth="yes"/>
      <point x="81" y="714"/>
      <point x="53" y="694"/>
      <point x="53" y="657" type="curve" smooth="yes"/>
      <point x="53" y="599"/>
      <point x="125" y="607"/>
      <point x="125" y="567" type="curve" smooth="yes"/>
      <point x="125" y="529"/>
      <point x="96" y="497"/>
      <point x="31" y="476" type="curve"/>
    </contour>
  </outline>
</glyph>
<glyph name="danda-deva" format="2">
  <advance width="464"/>
  <unicode hex="0964"/>
  <outline>
    <contour>
      <point x="371" y="-23" type="line"/>
      <point x="374" y="-22" type="line"/>
      <point x="374" y="585" type="line"/>
      <point x="323" y="622" type="line"/>
      <point x="320" y="622" type="line"/>
      <point x="320" y="5" type="line"/>
    </contour>
  </outline>
</glyph>
<glyph name="dbldanda-deva" format="2">
  <advance width="623"/>
  <unicode hex="0965"/>
  <outline>
    <contour>
      <point x="530" y="-23" type="line"/>
      <point x="533" y="-22" type="line"/>
      <point x="533" y="585" type="line"/>
      <point x="482" y="622" type="line"/>
      <point x="479" y="622" type="line"/>
      <point x="479" y="5" type="line"/>
    </contour>
    <contour>
      <point x="371" y="-23" type="line"/>
      <point x="374" y="-22" type="line"/>
      <point x="374" y="585" type="line"/>
      <point x="323" y="622" type="line"/>
      <point x="320" y="622" type="line"/>
      <point x="320" y="5" type="line"/>
    </contour>
  </outline>
</glyph>
<glyph name="anji-beng" format="2">
  <advance width="544"/>
  <unicode hex="0980"/>
  <outline>
    <contour>
      <point x="442" y="0" type="curve" smooth="yes"/>
      <point x="484" y="0"/>
      <point x="504" y="26"/>
      <point x="504" y="62" type="curve" smooth="yes"/>
      <point x="504" y="100"/>
      <point x="479" y="127"/>
      <point x="441" y="127" type="curve" smooth="yes"/>
      <point x="406" y="127"/>
      <point x="393" y="107"/>
      <point x="389" y="79" type="curve"/>
      <point x="417" y="79" type="line"/>
      <point x="417" y="480" type="line" smooth="yes"/>
      <point x="417" y="555"/>
      <point x="372" y="622"/>
      <point x="274" y="622" type="curve" smooth="yes"/>
      <point x="154" y="622"/>
      <point x="65" y="537"/>
      <point x="65" y="427" type="curve" smooth="yes"/>
      <point x="65" y="310"/>
      <point x="154" y="250"/>
      <point x="226" y="250" type="curve" smooth="yes"/>
      <point x="288" y="250"/>
      <point x="317" y="282"/>
      <point x="317" y="330" type="curve" smooth="yes"/>
      <point x="317" y="383"/>
      <point x="285" y="408"/>
      <point x="239" y="408" type="curve" smooth="yes"/>
      <point x="199" y="408"/>
      <point x="168" y="382"/>
      <point x="168" y="338" type="curve" smooth="yes"/>
      <point x="168" y="327"/>
      <point x="170" y="312"/>
      <point x="174" y="304" type="curve"/>
      <point x="219" y="325" type="line"/>
      <point x="209" y="321"/>
      <point x="199" y="320"/>
      <point x="189" y="320" type="curve" smooth="yes"/>
      <point x="153" y="320"/>
      <point x="131" y="355"/>
      <point x="131" y="407" type="curve" smooth="yes"/>
      <point x="131" y="496"/>
      <point x="235" y="559"/>
      <point x="300" y="559" type="curve" smooth="yes"/>
      <point x="346" y="559"/>
      <point x="363" y="538"/>
      <point x="363" y="494" type="curve" smooth="yes"/>
      <point x="363" y="102" type="line" smooth="yes"/>
      <point x="363" y="42"/>
      <point x="394" y="0"/>
    </contour>
  </outline>
</glyph>
<glyph name="anusvara-beng" format="2">
  <advance width="385"/>
  <unicode hex="0982"/>
  <outline>
    <contour>
      <point x="186" y="365" type="curve" smooth="yes"/>
      <point x="264" y="365"/>
      <point x="320" y="419"/>
      <point x="320" y="497" type="curve" smooth="yes"/>
      <point x="320" y="567"/>
      <point x="272" y="623"/>
      <point x="195" y="623" type="curve" smooth="yes"/>
      <point x="118" y="623"/>
      <point x="63" y="568"/>
      <point x="63" y="492" type="curve" smooth="yes"/>
      <point x="63" y="424"/>
      <point x="108" y="365"/>
    </contour>
    <contour>
      <point x="156" y="414" type="curve" smooth="yes"/>
      <point x="135" y="414"/>
      <point x="116" y="430"/>
      <point x="116" y="452" type="curve" smooth="yes"/>
      <point x="116" y="511"/>
      <point x="172" y="569"/>
      <point x="230" y="569" type="curve" smooth="yes"/>
      <point x="255" y="569"/>
      <point x="269" y="551"/>
      <point x="269" y="531" type="curve" smooth="yes"/>
      <point x="269" y="480"/>
      <point x="212" y="414"/>
    </contour>
    <contour>
      <point x="335" y="-38" type="curve"/>
      <point x="362" y="-23" type="line"/>
      <point x="307" y="97"/>
      <point x="221" y="240"/>
      <point x="124" y="320" type="curve"/>
      <point x="60" y="233" type="line"/>
      <point x="160" y="169"/>
      <point x="239" y="101"/>
    </contour>
  </outline>
</glyph>
<glyph name="visarga-beng" format="2">
  <advance width="383"/>
  <unicode hex="0983"/>
  <outline>
    <contour>
      <point x="186" y="365" type="curve" smooth="yes"/>
      <point x="264" y="365"/>
      <point x="320" y="419"/>
      <point x="320" y="497" type="curve" smooth="yes"/>
      <point x="320" y="567"/>
      <point x="272" y="623"/>
      <point x="195" y="623" type="curve" smooth="yes"/>
      <point x="118" y="623"/>
      <point x="63" y="568"/>
      <point x="63" y="492" type="curve" smooth="yes"/>
      <point x="63" y="424"/>
      <point x="108" y="365"/>
    </contour>
    <contour>
      <point x="156" y="414" type="curve" smooth="yes"/>
      <point x="135" y="414"/>
      <point x="116" y="430"/>
      <point x="116" y="452" type="curve" smooth="yes"/>
      <point x="116" y="511"/>
      <point x="172" y="569"/>
      <point x="230" y="569" type="curve" smooth="yes"/>
      <point x="255" y="569"/>
      <point x="269" y="551"/>
      <point x="269" y="531" type="curve" smooth="yes"/>
      <point x="269" y="480"/>
      <point x="212" y="414"/>
    </contour>
    <contour>
      <point x="186" y="10" type="curve" smooth="yes"/>
      <point x="264" y="10"/>
      <point x="320" y="64"/>
      <point x="320" y="141" type="curve" smooth="yes"/>
      <point x="320" y="212"/>
      <point x="272" y="267"/>
      <point x="195" y="267" type="curve" smooth="yes"/>
      <point x="118" y="267"/>
      <point x="63" y="213"/>
      <point x="63" y="136" type="curve" smooth="yes"/>
      <point x="63" y="69"/>
      <point x="108" y="10"/>
    </contour>
    <contour>
      <point x="156" y="58" type="curve" smooth="yes"/>
      <point x="135" y="58"/>
      <point x="116" y="74"/>
      <point x="116" y="96" type="curve" smooth="yes"/>
      <point x="116" y="156"/>
      <point x="172" y="213"/>
      <point x="230" y="213" type="curve" smooth="yes"/>
      <point x="255" y="213"/>
      <point x="269" y="195"/>
      <point x="269" y="176" type="curve" smooth="yes"/>
      <point x="269" y="125"/>
      <point x="212" y="58"/>
    </contour>
  </outline>
</glyph>
<glyph name="a-beng" format="2">
  <advance width="758"/>
  <unicode hex="0985"/>
  <anchor x="678" y="0" name="bottom"/>
  <anchor x="678" y="70" name="bottom.rakaar"/>
  <anchor x="678" y="12" name="bottom.rvocalic"/>
  <anchor x="658" y="6" name="bottom.virama"/>
  <anchor x="678" y="570" name="top"/>
  <anchor x="678" y="570" name="topright"/>
  <outline>
    <contour>
      <point x="673" y="-13" type="line"/>
      <point x="678" y="-12" type="line"/>
      <point x="678" y="570" type="line"/>
      <point x="787" y="570" type="line"/>
      <point x="753" y="622" type="line"/>
      <point x="-29" y="622" type="line"/>
      <point x="4" y="570" type="line"/>
      <point x="624" y="570" type="line"/>
      <point x="624" y="71" type="line"/>
      <point x="631" y="87" type="line"/>
      <point x="589" y="169"/>
      <point x="540" y="214"/>
      <point x="485" y="248" type="curve"/>
      <point x="464" y="186" type="line"/>
      <point x="529" y="150"/>
      <point x="583" y="99"/>
      <point x="626" y="24" type="curve"/>
    </contour>
    <contour>
      <point x="335" y="93" type="curve" smooth="yes"/>
      <point x="474" y="93"/>
      <point x="523" y="194"/>
      <point x="523" y="303" type="curve" smooth="yes"/>
      <point x="523" y="411"/>
      <point x="454" y="510"/>
      <point x="324" y="510" type="curve" smooth="yes"/>
      <point x="253" y="510"/>
      <point x="199" y="476"/>
      <point x="199" y="407" type="curve" smooth="yes"/>
      <point x="199" y="347"/>
      <point x="243" y="312"/>
      <point x="296" y="312" type="curve" smooth="yes"/>
      <point x="353" y="312"/>
      <point x="386" y="355"/>
      <point x="386" y="413" type="curve" smooth="yes"/>
      <point x="386" y="482"/>
      <point x="348" y="544"/>
      <point x="310" y="577" type="curve"/>
      <point x="201" y="575" type="line"/>
      <point x="296" y="544"/>
      <point x="325" y="496"/>
      <point x="336" y="415" type="curve"/>
      <point x="356" y="424"/>
      <point x="366" y="427"/>
      <point x="384" y="427" type="curve" smooth="yes"/>
      <point x="422" y="427"/>
      <point x="465" y="392"/>
      <point x="470" y="315" type="curve" smooth="yes"/>
      <point x="475" y="231"/>
      <point x="419" y="185"/>
      <point x="326" y="185" type="curve" smooth="yes"/>
      <point x="214" y="185"/>
      <point x="128" y="263"/>
      <point x="59" y="492" type="curve"/>
      <point x="17" y="479" type="line"/>
      <point x="100" y="171"/>
      <point x="214" y="93"/>
    </contour>
  </outline>
</glyph>
<glyph name="i-beng" format="2">
  <advance width="466"/>
  <unicode hex="0987"/>
  <anchor x="265" y="90" name="bottom"/>
  <anchor x="385" y="-59" name="bottom.rakaar"/>
  <anchor x="320" y="90" name="bottom.rvocalic"/>
  <anchor x="244" y="90" name="bottom.virama"/>
  <anchor x="274" y="617" name="top"/>
  <anchor x="212" y="622" name="topright"/>
  <anchor x="233" y="0" name="vedic"/>
  <outline>
    <contour>
      <point x="351" y="612" type="curve"/>
      <point x="394" y="612" type="line"/>
      <point x="388" y="739"/>
      <point x="344" y="805"/>
      <point x="251" y="805" type="curve" smooth="yes"/>
      <point x="214" y="805"/>
      <point x="176" y="794"/>
      <point x="120" y="794" type="curve" smooth="yes"/>
      <point x="55" y="794"/>
      <point x="17" y="807"/>
      <point x="17" y="885" type="curve" smooth="yes"/>
      <point x="17" y="895"/>
      <point x="18" y="907"/>
      <point x="19" y="913" type="curve"/>
      <point x="-23" y="917" type="line"/>
      <point x="-25" y="899"/>
      <point x="-26" y="880"/>
      <point x="-26" y="862" type="curve" smooth="yes"/>
      <point x="-26" y="768"/>
      <point x="16" y="708"/>
      <point x="113" y="708" type="curve" smooth="yes"/>
      <point x="179" y="708"/>
      <point x="229" y="720"/>
      <point x="266" y="720" type="curve" smooth="yes"/>
      <point x="317" y="720"/>
      <point x="348" y="687"/>
    </contour>
    <component base="ha-beng"/>
  </outline>
</glyph>
<glyph name="ii-beng" format="2">
  <advance width="609"/>
  <unicode hex="0988"/>
  <anchor x="537" y="-12" name="bottom"/>
  <anchor x="538" y="70" name="bottom.rakaar"/>
  <anchor x="512" y="17" name="bottom.rvocalic"/>
  <anchor x="516" y="0" name="bottom.virama"/>
  <anchor x="367" y="617" name="top"/>
  <anchor x="317" y="622" name="topright"/>
  <outline>
    <contour>
      <point x="496" y="-14" type="curve"/>
      <point x="535" y="4" type="line"/>
      <point x="511" y="64"/>
      <point x="500" y="121"/>
      <point x="500" y="181" type="curve" smooth="yes"/>
      <point x="500" y="263"/>
      <point x="523" y="344"/>
      <point x="569" y="418" type="curve"/>
      <point x="483" y="496" type="line"/>
      <point x="372" y="410"/>
      <point x="330" y="337"/>
      <point x="277" y="256" type="curve"/>
      <point x="343" y="297" type="line"/>
      <point x="345" y="308"/>
      <point x="346" y="327"/>
      <point x="346" y="338" type="curve" smooth="yes"/>
      <point x="346" y="425"/>
      <point x="294" y="508"/>
      <point x="168" y="508" type="curve" smooth="yes"/>
      <point x="88" y="508"/>
      <point x="47" y="475"/>
      <point x="47" y="421" type="curve" smooth="yes"/>
      <point x="47" y="374"/>
      <point x="77" y="342"/>
      <point x="128" y="342" type="curve" smooth="yes"/>
      <point x="179" y="342"/>
      <point x="207" y="378"/>
      <point x="207" y="435" type="curve" smooth="yes"/>
      <point x="207" y="478"/>
      <point x="179" y="544"/>
      <point x="141" y="577" type="curve"/>
      <point x="45" y="577" type="line"/>
      <point x="94" y="559"/>
      <point x="139" y="521"/>
      <point x="152" y="468" type="curve"/>
      <point x="99" y="409" type="line"/>
      <point x="138" y="428"/>
      <point x="162" y="438"/>
      <point x="203" y="438" type="curve" smooth="yes"/>
      <point x="274" y="438"/>
      <point x="293" y="395"/>
      <point x="293" y="347" type="curve" smooth="yes"/>
      <point x="293" y="314"/>
      <point x="280" y="277"/>
      <point x="259" y="246" type="curve" smooth="yes"/>
      <point x="230" y="204"/>
      <point x="203" y="192"/>
      <point x="170" y="192" type="curve" smooth="yes"/>
      <point x="142" y="192"/>
      <point x="113" y="208"/>
      <point x="86" y="261" type="curve"/>
      <point x="50" y="245" type="line"/>
      <point x="94" y="141"/>
      <point x="141" y="107"/>
      <point x="194" y="107" type="curve" smooth="yes"/>
      <point x="250" y="107"/>
      <point x="287" y="145"/>
      <point x="326" y="201" type="curve" smooth="yes"/>
      <point x="382" y="281"/>
      <point x="424" y="342"/>
      <point x="513" y="421" type="curve"/>
      <point x="485" y="417" type="line"/>
      <point x="456" y="355"/>
      <point x="442" y="286"/>
      <point x="442" y="224" type="curve" smooth="yes"/>
      <point x="442" y="141"/>
      <point x="461" y="63"/>
    </contour>
    <contour>
      <point x="4" y="570" type="line"/>
      <point x="638" y="570" type="line"/>
      <point x="604" y="622" type="line"/>
      <point x="-29" y="622" type="line"/>
    </contour>
    <contour>
      <point x="485" y="612" type="curve"/>
      <point x="529" y="612" type="line"/>
      <point x="515" y="739"/>
      <point x="475" y="805"/>
      <point x="363" y="805" type="curve" smooth="yes"/>
      <point x="315" y="805"/>
      <point x="273" y="796"/>
      <point x="214" y="796" type="curve" smooth="yes"/>
      <point x="126" y="796"/>
      <point x="86" y="809"/>
      <point x="86" y="888" type="curve" smooth="yes"/>
      <point x="86" y="895"/>
      <point x="86" y="904"/>
      <point x="87" y="913" type="curve"/>
      <point x="46" y="917" type="line"/>
      <point x="43" y="899"/>
      <point x="42" y="883"/>
      <point x="42" y="867" type="curve" smooth="yes"/>
      <point x="42" y="765"/>
      <point x="101" y="710"/>
      <point x="214" y="710" type="curve" smooth="yes"/>
      <point x="285" y="710"/>
      <point x="346" y="720"/>
      <point x="390" y="720" type="curve" smooth="yes"/>
      <point x="452" y="720"/>
      <point x="474" y="687"/>
    </contour>
  </outline>
</glyph>
<glyph name="u-beng" format="2">
  <advance width="618"/>
  <unicode hex="0989"/>
  <anchor x="465" y="34" name="bottom"/>
  <anchor x="513" y="-6" name="bottom.rakaar"/>
  <anchor x="441" y="58" name="bottom.rvocalic"/>
  <anchor x="381" y="14" name="bottom.virama"/>
  <anchor x="334" y="-62" name="nukta"/>
  <anchor x="355" y="617" name="top"/>
  <anchor x="297" y="622" name="topright"/>
  <outline>
    <contour>
      <point x="485" y="612" type="curve"/>
      <point x="529" y="612" type="line"/>
      <point x="515" y="739"/>
      <point x="475" y="805"/>
      <point x="363" y="805" type="curve" smooth="yes"/>
      <point x="315" y="805"/>
      <point x="273" y="796"/>
      <point x="214" y="796" type="curve" smooth="yes"/>
      <point x="126" y="796"/>
      <point x="86" y="809"/>
      <point x="86" y="888" type="curve" smooth="yes"/>
      <point x="86" y="895"/>
      <point x="86" y="904"/>
      <point x="87" y="913" type="curve"/>
      <point x="46" y="917" type="line"/>
      <point x="43" y="899"/>
      <point x="42" y="883"/>
      <point x="42" y="867" type="curve" smooth="yes"/>
      <point x="42" y="765"/>
      <point x="101" y="710"/>
      <point x="214" y="710" type="curve" smooth="yes"/>
      <point x="285" y="710"/>
      <point x="346" y="720"/>
      <point x="390" y="720" type="curve" smooth="yes"/>
      <point x="452" y="720"/>
      <point x="474" y="687"/>
    </contour>
    <contour>
      <point x="367" y="50" type="curve" smooth="yes"/>
      <point x="501" y="50"/>
      <point x="574" y="141"/>
      <point x="574" y="262" type="curve" smooth="yes"/>
      <point x="574" y="359"/>
      <point x="540" y="426"/>
      <point x="482" y="477" type="curve"/>
      <point x="443" y="415"/>
      <point x="386" y="354"/>
      <point x="327" y="354" type="curve" smooth="yes"/>
      <point x="306" y="354"/>
      <point x="295" y="364"/>
      <point x="295" y="382" type="curve" smooth="yes"/>
      <point x="295" y="570" type="line"/>
      <point x="647" y="570" type="line"/>
      <point x="613" y="622" type="line"/>
      <point x="-29" y="622" type="line"/>
      <point x="5" y="570" type="line"/>
      <point x="241" y="570" type="line"/>
      <point x="241" y="385" type="line" smooth="yes"/>
      <point x="241" y="351"/>
      <point x="251" y="325"/>
      <point x="273" y="305" type="curve" smooth="yes"/>
      <point x="291" y="288"/>
      <point x="318" y="275"/>
      <point x="349" y="275" type="curve" smooth="yes"/>
      <point x="409" y="275"/>
      <point x="476" y="322"/>
      <point x="520" y="389" type="curve"/>
      <point x="483" y="383" type="line"/>
      <point x="510" y="365"/>
      <point x="523" y="339"/>
      <point x="523" y="284" type="curve" smooth="yes"/>
      <point x="523" y="198"/>
      <point x="465" y="141"/>
      <point x="368" y="141" type="curve" smooth="yes"/>
      <point x="218" y="141"/>
      <point x="136" y="247"/>
      <point x="69" y="491" type="curve"/>
      <point x="27" y="480" type="line"/>
      <point x="93" y="187"/>
      <point x="205" y="50"/>
    </contour>
  </outline>
</glyph>
<glyph name="uu-beng" format="2">
  <advance width="678"/>
  <unicode hex="098A"/>
  <anchor x="525" y="34" name="bottom"/>
  <anchor x="573" y="-6" name="bottom.rakaar"/>
  <anchor x="501" y="58" name="bottom.rvocalic"/>
  <anchor x="441" y="14" name="bottom.virama"/>
  <anchor x="395" y="617" name="top"/>
  <anchor x="367" y="622" name="topright"/>
  <outline>
    <contour>
      <point x="427" y="50" type="curve" smooth="yes"/>
      <point x="561" y="50"/>
      <point x="634" y="141"/>
      <point x="634" y="262" type="curve" smooth="yes"/>
      <point x="634" y="359"/>
      <point x="600" y="426"/>
      <point x="542" y="477" type="curve"/>
      <point x="503" y="415"/>
      <point x="446" y="354"/>
      <point x="387" y="354" type="curve" smooth="yes"/>
      <point x="366" y="354"/>
      <point x="355" y="364"/>
      <point x="355" y="382" type="curve" smooth="yes"/>
      <point x="355" y="570" type="line"/>
      <point x="707" y="570" type="line"/>
      <point x="673" y="622" type="line"/>
      <point x="-29" y="622" type="line"/>
      <point x="5" y="570" type="line"/>
      <point x="301" y="570" type="line"/>
      <point x="301" y="385" type="line" smooth="yes"/>
      <point x="301" y="351"/>
      <point x="311" y="325"/>
      <point x="333" y="305" type="curve" smooth="yes"/>
      <point x="351" y="288"/>
      <point x="378" y="275"/>
      <point x="409" y="275" type="curve" smooth="yes"/>
      <point x="469" y="275"/>
      <point x="536" y="322"/>
      <point x="580" y="389" type="curve"/>
      <point x="543" y="383" type="line"/>
      <point x="570" y="365"/>
      <point x="583" y="339"/>
      <point x="583" y="284" type="curve" smooth="yes"/>
      <point x="583" y="200"/>
      <point x="531" y="143"/>
      <point x="439" y="140" type="curve" smooth="yes"/>
      <point x="287" y="135"/>
      <point x="235" y="292"/>
      <point x="175" y="502" type="curve"/>
      <point x="133" y="490" type="line"/>
      <point x="179" y="307"/>
      <point x="218" y="194"/>
      <point x="301" y="129" type="curve"/>
      <point x="330" y="127" type="line"/>
      <point x="221" y="158"/>
      <point x="139" y="279"/>
      <point x="72" y="502" type="curve"/>
      <point x="30" y="490" type="line"/>
      <point x="106" y="187"/>
      <point x="239" y="50"/>
    </contour>
    <contour>
      <point x="548" y="612" type="curve"/>
      <point x="592" y="612" type="line"/>
      <point x="578" y="739"/>
      <point x="530" y="809"/>
      <point x="419" y="809" type="curve" smooth="yes"/>
      <point x="354" y="809"/>
      <point x="302" y="790"/>
      <point x="217" y="790" type="curve" smooth="yes"/>
      <point x="130" y="790"/>
      <point x="97" y="809"/>
      <point x="97" y="888" type="curve" smooth="yes"/>
      <point x="97" y="895"/>
      <point x="97" y="904"/>
      <point x="98" y="913" type="curve"/>
      <point x="56" y="917" type="line"/>
      <point x="54" y="899"/>
      <point x="53" y="883"/>
      <point x="53" y="867" type="curve" smooth="yes"/>
      <point x="53" y="759"/>
      <point x="105" y="704"/>
      <point x="217" y="704" type="curve" smooth="yes"/>
      <point x="317" y="704"/>
      <point x="361" y="724"/>
      <point x="437" y="724" type="curve" smooth="yes"/>
      <point x="509" y="724"/>
      <point x="537" y="687"/>
    </contour>
  </outline>
</glyph>
<glyph name="rVocalic-beng" format="2">
  <advance width="742"/>
  <unicode hex="098B"/>
  <anchor x="505" y="0" name="bottom"/>
  <anchor x="505" y="70" name="bottom.rakaar"/>
  <anchor x="429" y="133" name="bottom.rvocalic"/>
  <anchor x="485" y="6" name="bottom.virama"/>
  <anchor x="505" y="570" name="top"/>
  <anchor x="508" y="570" name="topright"/>
  <outline>
    <contour>
      <point x="500" y="-13" type="line"/>
      <point x="505" y="-12" type="line"/>
      <point x="505" y="644" type="line"/>
      <point x="455" y="678" type="line"/>
      <point x="451" y="677" type="line"/>
      <point x="451" y="464" type="line"/>
      <point x="457" y="484" type="line"/>
      <point x="323" y="443"/>
      <point x="220" y="397"/>
      <point x="99" y="318" type="curve"/>
      <point x="140" y="205" type="line"/>
      <point x="277" y="197"/>
      <point x="381" y="144"/>
      <point x="453" y="24" type="curve"/>
    </contour>
    <contour>
      <point x="451" y="71" type="line"/>
      <point x="458" y="87" type="line"/>
      <point x="380" y="231"/>
      <point x="263" y="260"/>
      <point x="167" y="284" type="curve"/>
      <point x="179" y="259" type="line"/>
      <point x="263" y="325"/>
      <point x="365" y="364"/>
      <point x="463" y="393" type="curve"/>
      <point x="451" y="408" type="line"/>
    </contour>
    <contour>
      <point x="146" y="437" type="curve" smooth="yes"/>
      <point x="226" y="437"/>
      <point x="316" y="471"/>
      <point x="373" y="551" type="curve"/>
      <point x="332" y="546" type="line"/>
      <point x="366" y="520"/>
      <point x="374" y="500"/>
      <point x="416" y="444" type="curve"/>
      <point x="451" y="453" type="line"/>
      <point x="410" y="536"/>
      <point x="373" y="587"/>
      <point x="332" y="625" type="curve"/>
      <point x="269" y="536"/>
      <point x="186" y="518"/>
      <point x="153" y="518" type="curve" smooth="yes"/>
      <point x="141" y="518"/>
      <point x="128" y="521"/>
      <point x="121" y="523" type="curve"/>
      <point x="144" y="486" type="line"/>
      <point x="162" y="502"/>
      <point x="168" y="516"/>
      <point x="168" y="542" type="curve" smooth="yes"/>
      <point x="168" y="577"/>
      <point x="144" y="602"/>
      <point x="104" y="602" type="curve" smooth="yes"/>
      <point x="59" y="602"/>
      <point x="35" y="575"/>
      <point x="35" y="529" type="curve" smooth="yes"/>
      <point x="35" y="464"/>
      <point x="93" y="437"/>
    </contour>
    <contour>
      <point x="659" y="84" type="line"/>
      <point x="662" y="85" type="line"/>
      <point x="662" y="570" type="line"/>
      <point x="771" y="570" type="line"/>
      <point x="736" y="622" type="line"/>
      <point x="662" y="622" type="line"/>
      <point x="658" y="665" type="line"/>
      <point x="612" y="698" type="line"/>
      <point x="608" y="697" type="line"/>
      <point x="608" y="168" type="line"/>
      <point x="615" y="184" type="line"/>
      <point x="577" y="253"/>
      <point x="531" y="302"/>
      <point x="482" y="338" type="curve"/>
      <point x="475" y="263" type="line"/>
      <point x="530" y="234"/>
      <point x="573" y="182"/>
      <point x="610" y="121" type="curve"/>
    </contour>
  </outline>
</glyph>
<glyph name="lVocalic-beng" format="2">
  <advance width="524"/>
  <unicode hex="098C"/>
  <anchor x="370" y="570" name="top"/>
  <outline>
    <contour>
      <point x="305" y="18" type="line"/>
      <point x="405" y="40"/>
      <point x="496" y="148"/>
      <point x="496" y="284" type="curve" smooth="yes"/>
      <point x="496" y="430"/>
      <point x="427" y="472"/>
      <point x="277" y="507" type="curve" smooth="yes"/>
      <point x="189" y="528"/>
      <point x="126" y="546"/>
      <point x="126" y="620" type="curve" smooth="yes"/>
      <point x="126" y="646"/>
      <point x="132" y="672"/>
      <point x="142" y="698" type="curve"/>
      <point x="103" y="712" type="line"/>
      <point x="85" y="674"/>
      <point x="77" y="631"/>
      <point x="77" y="599" type="curve" smooth="yes"/>
      <point x="77" y="484"/>
      <point x="141" y="448"/>
      <point x="274" y="420" type="curve" smooth="yes"/>
      <point x="380" y="397"/>
      <point x="446" y="377"/>
      <point x="446" y="264" type="curve" smooth="yes"/>
      <point x="446" y="194"/>
      <point x="405" y="117"/>
      <point x="350" y="103" type="curve"/>
      <point x="375" y="86" type="line"/>
      <point x="376" y="199"/>
      <point x="334" y="315"/>
      <point x="208" y="315" type="curve" smooth="yes"/>
      <point x="112" y="315"/>
      <point x="60" y="251"/>
      <point x="60" y="172" type="curve" smooth="yes"/>
      <point x="60" y="82"/>
      <point x="109" y="36"/>
      <point x="171" y="36" type="curve" smooth="yes"/>
      <point x="219" y="36"/>
      <point x="241" y="70"/>
      <point x="241" y="105" type="curve" smooth="yes"/>
      <point x="241" y="143"/>
      <point x="212" y="168"/>
      <point x="177" y="168" type="curve" smooth="yes"/>
      <point x="144" y="168"/>
      <point x="115" y="145"/>
      <point x="114" y="117" type="curve"/>
      <point x="154" y="119" type="line"/>
      <point x="131" y="127"/>
      <point x="113" y="147"/>
      <point x="113" y="182" type="curve" smooth="yes"/>
      <point x="113" y="220"/>
      <point x="142" y="251"/>
      <point x="192" y="251" type="curve" smooth="yes"/>
      <point x="272" y="251"/>
      <point x="301" y="161"/>
      <point x="301" y="73" type="curve" smooth="yes"/>
      <point x="301" y="55"/>
      <point x="300" y="38"/>
      <point x="298" y="22" type="curve"/>
    </contour>
  </outline>
</glyph>
<glyph name="e-beng" format="2">
  <advance width="643"/>
  <unicode hex="098F"/>
  <anchor x="573" y="0" name="bottom"/>
  <anchor x="573" y="3" name="bottom.rvocalic"/>
  <anchor x="553" y="6" name="bottom.virama"/>
  <anchor x="480" y="570" name="top"/>
  <anchor x="483" y="570" name="topright"/>
  <outline>
    <contour>
      <point x="568" y="-13" type="line"/>
      <point x="573" y="-12" type="line"/>
      <point x="573" y="506" type="line" smooth="yes"/>
      <point x="573" y="582"/>
      <point x="537" y="632"/>
      <point x="456" y="632" type="curve" smooth="yes"/>
      <point x="327" y="632"/>
      <point x="219" y="497"/>
      <point x="219" y="388" type="curve" smooth="yes"/>
      <point x="219" y="312"/>
      <point x="263" y="272"/>
      <point x="325" y="270" type="curve" smooth="yes"/>
      <point x="388" y="268"/>
      <point x="420" y="303"/>
      <point x="420" y="351" type="curve" smooth="yes"/>
      <point x="420" y="391"/>
      <point x="396" y="428"/>
      <point x="344" y="428" type="curve" smooth="yes"/>
      <point x="325" y="428"/>
      <point x="299" y="420"/>
      <point x="287" y="398" type="curve"/>
      <point x="307" y="397" type="line"/>
      <point x="305" y="465"/>
      <point x="388" y="578"/>
      <point x="459" y="578" type="curve" smooth="yes"/>
      <point x="508" y="578"/>
      <point x="519" y="545"/>
      <point x="519" y="496" type="curve" smooth="yes"/>
      <point x="519" y="185" type="line" smooth="yes"/>
      <point x="519" y="150"/>
      <point x="520" y="116"/>
      <point x="523" y="81" type="curve"/>
      <point x="484" y="150"/>
      <point x="450" y="174"/>
      <point x="388" y="174" type="curve" smooth="yes"/>
      <point x="332" y="174"/>
      <point x="307" y="164"/>
      <point x="229" y="164" type="curve" smooth="yes"/>
      <point x="154" y="164"/>
      <point x="97" y="198"/>
      <point x="97" y="286" type="curve" smooth="yes"/>
      <point x="97" y="318"/>
      <point x="101" y="344"/>
      <point x="107" y="367" type="curve"/>
      <point x="63" y="377" type="line"/>
      <point x="56" y="347"/>
      <point x="50" y="310"/>
      <point x="50" y="270" type="curve" smooth="yes"/>
      <point x="50" y="123"/>
      <point x="133" y="73"/>
      <point x="228" y="73" type="curve" smooth="yes"/>
      <point x="301" y="73"/>
      <point x="341" y="87"/>
      <point x="413" y="87" type="curve" smooth="yes"/>
      <point x="461" y="87"/>
      <point x="487" y="74"/>
      <point x="521" y="24" type="curve"/>
    </contour>
  </outline>
</glyph>
<glyph name="ai-beng" format="2">
  <advance width="758"/>
  <unicode hex="0990"/>
  <anchor x="573" y="0" name="bottom"/>
  <anchor x="573" y="3" name="bottom.rvocalic"/>
  <anchor x="553" y="6" name="bottom.virama"/>
  <anchor x="500" y="600" name="top"/>
  <anchor x="464" y="602" name="topright"/>
  <outline>
    <contour>
      <point x="565" y="334" type="line"/>
      <point x="621" y="384"/>
      <point x="686" y="458"/>
      <point x="683" y="571" type="curve" smooth="yes"/>
      <point x="679" y="738"/>
      <point x="541" y="757"/>
      <point x="419" y="774" type="curve" smooth="yes"/>
      <point x="319" y="788"/>
      <point x="230" y="800"/>
      <point x="230" y="889" type="curve" smooth="yes"/>
      <point x="230" y="916"/>
      <point x="236" y="944"/>
      <point x="246" y="968" type="curve"/>
      <point x="207" y="982" type="line"/>
      <point x="189" y="944"/>
      <point x="181" y="901"/>
      <point x="181" y="869" type="curve" smooth="yes"/>
      <point x="181" y="732"/>
      <point x="300" y="714"/>
      <point x="417" y="699" type="curve" smooth="yes"/>
      <point x="529" y="685"/>
      <point x="640" y="672"/>
      <point x="640" y="557" type="curve" smooth="yes"/>
      <point x="640" y="486"/>
      <point x="599" y="437"/>
      <point x="542" y="394" type="curve"/>
    </contour>
    <contour>
      <point x="568" y="-13" type="line"/>
      <point x="573" y="-12" type="line"/>
      <point x="573" y="506" type="line" smooth="yes"/>
      <point x="573" y="582"/>
      <point x="537" y="632"/>
      <point x="456" y="632" type="curve" smooth="yes"/>
      <point x="327" y="632"/>
      <point x="219" y="497"/>
      <point x="219" y="388" type="curve" smooth="yes"/>
      <point x="219" y="312"/>
      <point x="263" y="272"/>
      <point x="325" y="270" type="curve" smooth="yes"/>
      <point x="388" y="268"/>
      <point x="420" y="303"/>
      <point x="420" y="351" type="curve" smooth="yes"/>
      <point x="420" y="391"/>
      <point x="396" y="428"/>
      <point x="344" y="428" type="curve" smooth="yes"/>
      <point x="325" y="428"/>
      <point x="299" y="420"/>
      <point x="287" y="398" type="curve"/>
      <point x="307" y="397" type="line"/>
      <point x="305" y="465"/>
      <point x="388" y="578"/>
      <point x="459" y="578" type="curve" smooth="yes"/>
      <point x="508" y="578"/>
      <point x="519" y="545"/>
      <point x="519" y="496" type="curve" smooth="yes"/>
      <point x="519" y="185" type="line" smooth="yes"/>
      <point x="519" y="150"/>
      <point x="520" y="116"/>
      <point x="523" y="81" type="curve"/>
      <point x="484" y="150"/>
      <point x="450" y="174"/>
      <point x="388" y="174" type="curve" smooth="yes"/>
      <point x="332" y="174"/>
      <point x="307" y="164"/>
      <point x="229" y="164" type="curve" smooth="yes"/>
      <point x="154" y="164"/>
      <point x="97" y="198"/>
      <point x="97" y="286" type="curve" smooth="yes"/>
      <point x="97" y="318"/>
      <point x="101" y="344"/>
      <point x="107" y="367" type="curve"/>
      <point x="63" y="377" type="line"/>
      <point x="56" y="347"/>
      <point x="50" y="310"/>
      <point x="50" y="270" type="curve" smooth="yes"/>
      <point x="50" y="123"/>
      <point x="133" y="73"/>
      <point x="228" y="73" type="curve" smooth="yes"/>
      <point x="301" y="73"/>
      <point x="341" y="87"/>
      <point x="413" y="87" type="curve" smooth="yes"/>
      <point x="461" y="87"/>
      <point x="487" y="74"/>
      <point x="521" y="24" type="curve"/>
    </contour>
  </outline>
</glyph>
<glyph name="au-beng" format="2">
  <advance width="768"/>
  <unicode hex="0994"/>
  <anchor x="510" y="39" name="bottom"/>
  <anchor x="558" y="-1" name="bottom.rakaar"/>
  <anchor x="486" y="63" name="bottom.rvocalic"/>
  <anchor x="426" y="19" name="bottom.virama"/>
  <anchor x="530" y="600" name="top"/>
  <anchor x="474" y="602" name="topright"/>
  <outline>
    <contour>
      <point x="575" y="334" type="line"/>
      <point x="631" y="384"/>
      <point x="696" y="458"/>
      <point x="693" y="571" type="curve" smooth="yes"/>
      <point x="689" y="738"/>
      <point x="551" y="757"/>
      <point x="429" y="774" type="curve" smooth="yes"/>
      <point x="329" y="788"/>
      <point x="240" y="800"/>
      <point x="240" y="889" type="curve" smooth="yes"/>
      <point x="240" y="916"/>
      <point x="246" y="944"/>
      <point x="256" y="968" type="curve"/>
      <point x="217" y="982" type="line"/>
      <point x="199" y="944"/>
      <point x="191" y="901"/>
      <point x="191" y="869" type="curve" smooth="yes"/>
      <point x="191" y="732"/>
      <point x="310" y="714"/>
      <point x="426" y="699" type="curve" smooth="yes"/>
      <point x="539" y="684"/>
      <point x="650" y="672"/>
      <point x="650" y="557" type="curve" smooth="yes"/>
      <point x="650" y="476"/>
      <point x="608" y="429"/>
      <point x="551" y="386" type="curve"/>
    </contour>
    <contour>
      <point x="422" y="55" type="curve" smooth="yes"/>
      <point x="571" y="55"/>
      <point x="638" y="144"/>
      <point x="638" y="245" type="curve" smooth="yes"/>
      <point x="638" y="341"/>
      <point x="568" y="416"/>
      <point x="476" y="416" type="curve" smooth="yes"/>
      <point x="430" y="416"/>
      <point x="402" y="390"/>
      <point x="402" y="348" type="curve" smooth="yes"/>
      <point x="402" y="306"/>
      <point x="428" y="278"/>
      <point x="476" y="278" type="curve" smooth="yes"/>
      <point x="554" y="278"/>
      <point x="617" y="392"/>
      <point x="617" y="486" type="curve" smooth="yes"/>
      <point x="617" y="574"/>
      <point x="560" y="631"/>
      <point x="455" y="631" type="curve" smooth="yes"/>
      <point x="310" y="631"/>
      <point x="188" y="529"/>
      <point x="188" y="420" type="curve" smooth="yes"/>
      <point x="188" y="354"/>
      <point x="229" y="322"/>
      <point x="275" y="322" type="curve" smooth="yes"/>
      <point x="321" y="322"/>
      <point x="352" y="346"/>
      <point x="352" y="396" type="curve" smooth="yes"/>
      <point x="352" y="436"/>
      <point x="328" y="465"/>
      <point x="290" y="465" type="curve" smooth="yes"/>
      <point x="275" y="465"/>
      <point x="251" y="460"/>
      <point x="236" y="442" type="curve"/>
      <point x="282" y="430" type="line"/>
      <point x="294" y="512"/>
      <point x="375" y="577"/>
      <point x="469" y="577" type="curve" smooth="yes"/>
      <point x="530" y="577"/>
      <point x="560" y="549"/>
      <point x="560" y="503" type="curve" smooth="yes"/>
      <point x="560" y="452"/>
      <point x="527" y="419"/>
      <point x="484" y="390" type="curve"/>
      <point x="499" y="355" type="line"/>
      <point x="533" y="355"/>
      <point x="585" y="328"/>
      <point x="585" y="264" type="curve" smooth="yes"/>
      <point x="585" y="202"/>
      <point x="535" y="146"/>
      <point x="426" y="146" type="curve" smooth="yes"/>
      <point x="283" y="146"/>
      <point x="142" y="249"/>
      <point x="56" y="550" type="curve"/>
      <point x="15" y="538" type="line"/>
      <point x="94" y="199"/>
      <point x="261" y="55"/>
    </contour>
  </outline>
</glyph>
<glyph name="ca-beng" format="2">
  <advance width="480"/>
  <unicode hex="099A"/>
  <anchor x="320" y="30" name="bottom"/>
  <anchor x="370" y="0" name="bottom.rakaar"/>
  <anchor x="316" y="26" name="bottom.rvocalic"/>
  <anchor x="241" y="36" name="bottom.virama"/>
  <anchor x="134" y="570" name="top"/>
  <anchor x="137" y="570" name="topright"/>
  <outline>
    <contour>
      <point x="206" y="31" type="curve" smooth="yes"/>
      <point x="341" y="31"/>
      <point x="441" y="213"/>
      <point x="441" y="322" type="curve" smooth="yes"/>
      <point x="441" y="362"/>
      <point x="408" y="391"/>
      <point x="388" y="403" type="curve"/>
      <point x="310" y="412"/>
      <point x="188" y="450"/>
      <point x="128" y="563" type="curve"/>
      <point x="129" y="492" type="line"/>
      <point x="174" y="399"/>
      <point x="253" y="339"/>
      <point x="378" y="324" type="curve"/>
      <point x="358" y="347" type="line"/>
      <point x="350" y="217"/>
      <point x="268" y="98"/>
      <point x="197" y="98" type="curve" smooth="yes"/>
      <point x="158" y="98"/>
      <point x="134" y="117"/>
      <point x="134" y="155" type="curve" smooth="yes"/>
      <point x="134" y="570" type="line"/>
      <point x="509" y="570" type="line"/>
      <point x="475" y="622" type="line"/>
      <point x="-29" y="622" type="line"/>
      <point x="7" y="570" type="line"/>
      <point x="80" y="570" type="line"/>
      <point x="80" y="155" type="line" smooth="yes"/>
      <point x="80" y="81"/>
      <point x="134" y="31"/>
    </contour>
  </outline>
</glyph>
<glyph name="nya-beng" format="2">
  <advance width="942"/>
  <unicode hex="099E"/>
  <anchor x="568" y="30" name="bottom"/>
  <anchor x="754" y="70" name="bottom.rakaar"/>
  <anchor x="573" y="8" name="bottom.rvocalic"/>
  <anchor x="553" y="6" name="bottom.virama"/>
  <anchor x="491" y="570" name="top"/>
  <anchor x="494" y="570" name="topright"/>
  <anchor x="471" y="0" name="vedic"/>
  <outline>
    <contour>
      <point x="736" y="55" type="curve" smooth="yes"/>
      <point x="818" y="55"/>
      <point x="867" y="122"/>
      <point x="867" y="209" type="curve" smooth="yes"/>
      <point x="867" y="260"/>
      <point x="850" y="310"/>
      <point x="807" y="348" type="curve"/>
      <point x="816" y="307" type="line"/>
      <point x="846" y="338"/>
      <point x="864" y="392"/>
      <point x="864" y="447" type="curve" smooth="yes"/>
      <point x="864" y="530"/>
      <point x="817" y="597"/>
      <point x="743" y="597" type="curve" smooth="yes"/>
      <point x="639" y="597"/>
      <point x="559" y="456"/>
      <point x="551" y="380" type="curve"/>
      <point x="551" y="278" type="line"/>
      <point x="567" y="164"/>
      <point x="648" y="55"/>
    </contour>
    <contour>
      <point x="734" y="136" type="curve" smooth="yes"/>
      <point x="653" y="136"/>
      <point x="581" y="223"/>
      <point x="581" y="323" type="curve" smooth="yes"/>
      <point x="581" y="406"/>
      <point x="642" y="520"/>
      <point x="739" y="520" type="curve" smooth="yes"/>
      <point x="787" y="520"/>
      <point x="817" y="501"/>
      <point x="817" y="461" type="curve" smooth="yes"/>
      <point x="817" y="411"/>
      <point x="788" y="378"/>
      <point x="746" y="361" type="curve"/>
      <point x="797" y="350" type="line"/>
      <point x="777" y="382"/>
      <point x="746" y="390"/>
      <point x="721" y="390" type="curve" smooth="yes"/>
      <point x="681" y="390"/>
      <point x="653" y="365"/>
      <point x="653" y="325" type="curve" smooth="yes"/>
      <point x="653" y="281"/>
      <point x="683" y="257"/>
      <point x="725" y="257" type="curve" smooth="yes"/>
      <point x="764" y="257"/>
      <point x="790" y="274"/>
      <point x="811" y="302" type="curve"/>
      <point x="778" y="315" type="line"/>
      <point x="801" y="298"/>
      <point x="822" y="266"/>
      <point x="822" y="225" type="curve" smooth="yes"/>
      <point x="822" y="170"/>
      <point x="792" y="136"/>
    </contour>
    <component base="e-beng"/>
  </outline>
</glyph>
<glyph name="tta-beng" format="2">
  <advance width="499"/>
  <unicode hex="099F"/>
  <anchor x="320" y="30" name="bottom"/>
  <anchor x="370" y="5" name="bottom.rakaar"/>
  <anchor x="319" y="40" name="bottom.rvocalic"/>
  <anchor x="241" y="41" name="bottom.virama"/>
  <anchor x="217" y="-72" name="nukta"/>
  <anchor x="286" y="674" name="top"/>
  <anchor x="196" y="641" name="topright"/>
  <outline>
    <contour>
      <point x="380" y="612" type="curve"/>
      <point x="424" y="612" type="line"/>
      <point x="418" y="742"/>
      <point x="382" y="805"/>
      <point x="291" y="805" type="curve" smooth="yes"/>
      <point x="250" y="805"/>
      <point x="206" y="796"/>
      <point x="161" y="796" type="curve" smooth="yes"/>
      <point x="92" y="796"/>
      <point x="59" y="816"/>
      <point x="59" y="882" type="curve" smooth="yes"/>
      <point x="59" y="894"/>
      <point x="60" y="905"/>
      <point x="61" y="913" type="curve"/>
      <point x="20" y="917" type="line"/>
      <point x="18" y="902"/>
      <point x="16" y="881"/>
      <point x="16" y="864" type="curve" smooth="yes"/>
      <point x="16" y="775"/>
      <point x="57" y="710"/>
      <point x="158" y="710" type="curve" smooth="yes"/>
      <point x="213" y="710"/>
      <point x="260" y="720"/>
      <point x="300" y="720" type="curve" smooth="yes"/>
      <point x="352" y="720"/>
      <point x="377" y="690"/>
    </contour>
    <contour>
      <point x="206" y="36" type="curve" smooth="yes"/>
      <point x="336" y="36"/>
      <point x="455" y="209"/>
      <point x="455" y="332" type="curve" smooth="yes"/>
      <point x="455" y="423"/>
      <point x="406" y="457"/>
      <point x="349" y="457" type="curve" smooth="yes"/>
      <point x="290" y="457"/>
      <point x="259" y="416"/>
      <point x="259" y="372" type="curve" smooth="yes"/>
      <point x="259" y="322"/>
      <point x="289" y="289"/>
      <point x="341" y="289" type="curve" smooth="yes"/>
      <point x="374" y="289"/>
      <point x="384" y="302"/>
      <point x="396" y="317" type="curve"/>
      <point x="372" y="346" type="line"/>
      <point x="367" y="239"/>
      <point x="284" y="102"/>
      <point x="197" y="102" type="curve" smooth="yes"/>
      <point x="158" y="102"/>
      <point x="134" y="124"/>
      <point x="134" y="162" type="curve" smooth="yes"/>
      <point x="134" y="570" type="line"/>
      <point x="528" y="570" type="line"/>
      <point x="494" y="622" type="line"/>
      <point x="-29" y="622" type="line"/>
      <point x="7" y="570" type="line"/>
      <point x="80" y="570" type="line"/>
      <point x="80" y="160" type="line" smooth="yes"/>
      <point x="80" y="86"/>
      <point x="134" y="36"/>
    </contour>
  </outline>
</glyph>
<glyph name="dda-beng" format="2">
  <advance width="618"/>
  <unicode hex="09A1"/>
  <anchor x="425" y="34" name="bottom"/>
  <anchor x="513" y="-6" name="bottom.rakaar"/>
  <anchor x="429" y="47" name="bottom.rvocalic"/>
  <anchor x="381" y="14" name="bottom.virama"/>
  <anchor x="334" y="-62" name="nukta"/>
  <anchor x="295" y="570" name="top"/>
  <anchor x="298" y="570" name="topright"/>
  <outline>
    <contour>
      <point x="367" y="50" type="curve" smooth="yes"/>
      <point x="501" y="50"/>
      <point x="574" y="141"/>
      <point x="574" y="262" type="curve" smooth="yes"/>
      <point x="574" y="359"/>
      <point x="540" y="426"/>
      <point x="482" y="477" type="curve"/>
      <point x="443" y="415"/>
      <point x="386" y="354"/>
      <point x="327" y="354" type="curve" smooth="yes"/>
      <point x="306" y="354"/>
      <point x="295" y="364"/>
      <point x="295" y="382" type="curve" smooth="yes"/>
      <point x="295" y="570" type="line"/>
      <point x="647" y="570" type="line"/>
      <point x="613" y="622" type="line"/>
      <point x="-29" y="622" type="line"/>
      <point x="5" y="570" type="line"/>
      <point x="241" y="570" type="line"/>
      <point x="241" y="385" type="line" smooth="yes"/>
      <point x="241" y="351"/>
      <point x="251" y="325"/>
      <point x="273" y="305" type="curve" smooth="yes"/>
      <point x="291" y="288"/>
      <point x="318" y="275"/>
      <point x="349" y="275" type="curve" smooth="yes"/>
      <point x="409" y="275"/>
      <point x="476" y="322"/>
      <point x="520" y="389" type="curve"/>
      <point x="483" y="383" type="line"/>
      <point x="510" y="365"/>
      <point x="523" y="339"/>
      <point x="523" y="284" type="curve" smooth="yes"/>
      <point x="523" y="198"/>
      <point x="465" y="141"/>
      <point x="368" y="141" type="curve" smooth="yes"/>
      <point x="218" y="141"/>
      <point x="136" y="247"/>
      <point x="69" y="491" type="curve"/>
      <point x="27" y="480" type="line"/>
      <point x="93" y="187"/>
      <point x="205" y="50"/>
    </contour>
  </outline>
</glyph>
<glyph name="ddha-beng" format="2">
  <advance width="499"/>
  <unicode hex="09A2"/>
  <anchor x="320" y="30" name="bottom"/>
  <anchor x="370" y="5" name="bottom.rakaar"/>
  <anchor x="317" y="38" name="bottom.rvocalic"/>
  <anchor x="241" y="41" name="bottom.virama"/>
  <anchor x="217" y="-72" name="nukta"/>
  <anchor x="134" y="570" name="top"/>
  <anchor x="137" y="570" name="topright"/>
  <outline>
    <contour>
      <point x="206" y="36" type="curve" smooth="yes"/>
      <point x="336" y="36"/>
      <point x="455" y="209"/>
      <point x="455" y="332" type="curve" smooth="yes"/>
      <point x="455" y="423"/>
      <point x="406" y="457"/>
      <point x="349" y="457" type="curve" smooth="yes"/>
      <point x="290" y="457"/>
      <point x="259" y="416"/>
      <point x="259" y="372" type="curve" smooth="yes"/>
      <point x="259" y="322"/>
      <point x="289" y="289"/>
      <point x="341" y="289" type="curve" smooth="yes"/>
      <point x="374" y="289"/>
      <point x="384" y="302"/>
      <point x="396" y="317" type="curve"/>
      <point x="372" y="346" type="line"/>
      <point x="367" y="239"/>
      <point x="284" y="102"/>
      <point x="197" y="102" type="curve" smooth="yes"/>
      <point x="158" y="102"/>
      <point x="134" y="124"/>
      <point x="134" y="162" type="curve" smooth="yes"/>
      <point x="134" y="570" type="line"/>
      <point x="528" y="570" type="line"/>
      <point x="494" y="622" type="line"/>
      <point x="-29" y="622" type="line"/>
      <point x="7" y="570" type="line"/>
      <point x="80" y="570" type="line"/>
      <point x="80" y="160" type="line" smooth="yes"/>
      <point x="80" y="86"/>
      <point x="134" y="36"/>
    </contour>
  </outline>
</glyph>
<glyph name="nna-beng" format="2">
  <advance width="563"/>
  <unicode hex="09A3"/>
  <anchor x="472" y="49" name="bottom"/>
  <anchor x="483" y="-3" name="bottom.rakaar"/>
  <anchor x="483" y="-2" name="bottom.rvocalic"/>
  <anchor x="463" y="6" name="bottom.virama"/>
  <anchor x="483" y="560" name="top"/>
  <anchor x="453" y="552" name="topright"/>
  <outline>
    <contour>
      <point x="480" y="-25" type="line"/>
      <point x="483" y="-24" type="line"/>
      <point x="483" y="570" type="line"/>
      <point x="592" y="570" type="line"/>
      <point x="557" y="622" type="line"/>
      <point x="483" y="622" type="line"/>
      <point x="479" y="665" type="line"/>
      <point x="433" y="698" type="line"/>
      <point x="429" y="697" type="line"/>
      <point x="429" y="540" type="line" smooth="yes"/>
      <point x="429" y="492"/>
      <point x="432" y="436"/>
      <point x="434" y="403" type="curve"/>
      <point x="437" y="414" type="line"/>
      <point x="339" y="583"/>
      <point x="278" y="627"/>
      <point x="197" y="627" type="curve" smooth="yes"/>
      <point x="105" y="627"/>
      <point x="40" y="555"/>
      <point x="40" y="454" type="curve" smooth="yes"/>
      <point x="40" y="337"/>
      <point x="112" y="276"/>
      <point x="196" y="276" type="curve" smooth="yes"/>
      <point x="254" y="276"/>
      <point x="288" y="310"/>
      <point x="288" y="359" type="curve" smooth="yes"/>
      <point x="288" y="405"/>
      <point x="258" y="438"/>
      <point x="209" y="438" type="curve" smooth="yes"/>
      <point x="168" y="438"/>
      <point x="137" y="408"/>
      <point x="137" y="366" type="curve" smooth="yes"/>
      <point x="137" y="353"/>
      <point x="141" y="336"/>
      <point x="147" y="326" type="curve"/>
      <point x="189" y="354" type="line"/>
      <point x="179" y="352"/>
      <point x="168" y="351"/>
      <point x="158" y="351" type="curve" smooth="yes"/>
      <point x="119" y="351"/>
      <point x="94" y="383"/>
      <point x="94" y="432" type="curve" smooth="yes"/>
      <point x="94" y="498"/>
      <point x="146" y="535"/>
      <point x="210" y="535" type="curve" smooth="yes"/>
      <point x="294" y="535"/>
      <point x="346" y="497"/>
      <point x="438" y="339" type="curve"/>
      <point x="429" y="389" type="line"/>
      <point x="429" y="3" type="line"/>
    </contour>
  </outline>
</glyph>
<glyph name="da-beng" format="2">
  <advance width="511"/>
  <unicode hex="09A6"/>
  <anchor x="424" y="87" name="bottom"/>
  <anchor x="437" y="70" name="bottom.rakaar"/>
  <anchor x="434" y="14" name="bottom.rvocalic"/>
  <anchor x="415" y="0" name="bottom.virama"/>
  <anchor x="122" y="570" name="top"/>
  <anchor x="125" y="570" name="topright"/>
  <outline>
    <contour>
      <point x="395" y="-14" type="curve"/>
      <point x="434" y="4" type="line"/>
      <point x="412" y="64"/>
      <point x="399" y="121"/>
      <point x="399" y="181" type="curve" smooth="yes"/>
      <point x="399" y="263"/>
      <point x="422" y="344"/>
      <point x="468" y="418" type="curve"/>
      <point x="380" y="498" type="line"/>
      <point x="269" y="437"/>
      <point x="168" y="350"/>
      <point x="101" y="279" type="curve"/>
      <point x="122" y="261" type="line"/>
      <point x="122" y="570" type="line"/>
      <point x="540" y="570" type="line"/>
      <point x="506" y="622" type="line"/>
      <point x="-29" y="622" type="line"/>
      <point x="5" y="570" type="line"/>
      <point x="68" y="570" type="line"/>
      <point x="68" y="204" type="line"/>
      <point x="117" y="171" type="line"/>
      <point x="211" y="268"/>
      <point x="299" y="348"/>
      <point x="401" y="409" type="curve"/>
      <point x="383" y="417" type="line"/>
      <point x="355" y="355"/>
      <point x="341" y="286"/>
      <point x="341" y="219" type="curve" smooth="yes"/>
      <point x="341" y="141"/>
      <point x="360" y="64"/>
    </contour>
  </outline>
</glyph>
<glyph name="dha-beng" format="2">
  <advance width="516"/>
  <unicode hex="09A7"/>
  <anchor x="431" y="30" name="bottom"/>
  <anchor x="436" y="70" name="bottom.rakaar"/>
  <anchor x="436" y="12" name="bottom.rvocalic"/>
  <anchor x="416" y="6" name="bottom.virama"/>
  <anchor x="436" y="570" name="top"/>
  <anchor x="439" y="570" name="topright"/>
  <outline>
    <contour>
      <point x="431" y="-13" type="line"/>
      <point x="436" y="-12" type="line"/>
      <point x="436" y="570" type="line"/>
      <point x="545" y="570" type="line"/>
      <point x="511" y="622" type="line"/>
      <point x="382" y="622" type="line"/>
      <point x="382" y="489" type="line"/>
      <point x="388" y="509" type="line"/>
      <point x="254" y="462"/>
      <point x="151" y="412"/>
      <point x="30" y="333" type="curve"/>
      <point x="71" y="220" type="line"/>
      <point x="196" y="198"/>
      <point x="312" y="137"/>
      <point x="384" y="24" type="curve"/>
    </contour>
    <contour>
      <point x="382" y="71" type="line"/>
      <point x="389" y="87" type="line"/>
      <point x="315" y="214"/>
      <point x="195" y="268"/>
      <point x="98" y="299" type="curve"/>
      <point x="110" y="274" type="line"/>
      <point x="192" y="334"/>
      <point x="296" y="383"/>
      <point x="394" y="418" type="curve"/>
      <point x="382" y="433" type="line"/>
    </contour>
    <contour>
      <point x="198" y="405" type="curve"/>
      <point x="219" y="437" type="line"/>
      <point x="167" y="443"/>
      <point x="134" y="473"/>
      <point x="134" y="507" type="curve" smooth="yes"/>
      <point x="134" y="541"/>
      <point x="157" y="558"/>
      <point x="187" y="558" type="curve" smooth="yes"/>
      <point x="195" y="558"/>
      <point x="204" y="557"/>
      <point x="213" y="554" type="curve"/>
      <point x="180" y="590" type="line"/>
      <point x="172" y="579"/>
      <point x="169" y="565"/>
      <point x="169" y="553" type="curve" smooth="yes"/>
      <point x="169" y="517"/>
      <point x="196" y="498"/>
      <point x="225" y="498" type="curve" smooth="yes"/>
      <point x="259" y="498"/>
      <point x="285" y="521"/>
      <point x="285" y="557" type="curve" smooth="yes"/>
      <point x="285" y="598"/>
      <point x="255" y="631"/>
      <point x="193" y="631" type="curve" smooth="yes"/>
      <point x="119" y="631"/>
      <point x="70" y="587"/>
      <point x="70" y="523" type="curve" smooth="yes"/>
      <point x="70" y="446"/>
      <point x="149" y="405"/>
    </contour>
  </outline>
</glyph>
<glyph name="na-beng" format="2">
  <advance width="524"/>
  <unicode hex="09A8"/>
  <anchor x="434" y="71" name="bottom"/>
  <anchor x="444" y="70" name="bottom.rakaar"/>
  <anchor x="444" y="11" name="bottom.rvocalic"/>
  <anchor x="424" y="6" name="bottom.virama"/>
  <anchor x="444" y="570" name="top"/>
  <anchor x="447" y="570" name="topright"/>
  <outline>
    <contour>
      <point x="439" y="-13" type="line"/>
      <point x="444" y="-12" type="line"/>
      <point x="444" y="570" type="line"/>
      <point x="553" y="570" type="line"/>
      <point x="519" y="622" type="line"/>
      <point x="-29" y="622" type="line"/>
      <point x="5" y="570" type="line"/>
      <point x="390" y="570" type="line"/>
      <point x="390" y="325" type="line" smooth="yes"/>
      <point x="390" y="260"/>
      <point x="396" y="182"/>
      <point x="398" y="147" type="curve"/>
      <point x="406" y="136" type="line"/>
      <point x="396" y="274"/>
      <point x="306" y="421"/>
      <point x="160" y="421" type="curve" smooth="yes"/>
      <point x="87" y="421"/>
      <point x="38" y="379"/>
      <point x="38" y="312" type="curve" smooth="yes"/>
      <point x="38" y="252"/>
      <point x="71" y="205"/>
      <point x="142" y="205" type="curve" smooth="yes"/>
      <point x="201" y="205"/>
      <point x="233" y="241"/>
      <point x="233" y="293" type="curve" smooth="yes"/>
      <point x="233" y="314"/>
      <point x="227" y="341"/>
      <point x="210" y="353" type="curve"/>
      <point x="186" y="322" type="line"/>
      <point x="195" y="327"/>
      <point x="208" y="329"/>
      <point x="221" y="329" type="curve" smooth="yes"/>
      <point x="322" y="329"/>
      <point x="391" y="155"/>
      <point x="396" y="21" type="curve"/>
    </contour>
  </outline>
</glyph>
<glyph name="ba-beng" format="2">
  <advance width="511"/>
  <unicode hex="09AC"/>
  <anchor x="426" y="30" name="bottom"/>
  <anchor x="431" y="70" name="bottom.rakaar"/>
  <anchor x="431" y="8" name="bottom.rvocalic"/>
  <anchor x="411" y="6" name="bottom.virama"/>
  <anchor x="204" y="68" name="nukta"/>
  <anchor x="431" y="570" name="top"/>
  <anchor x="434" y="570" name="topright"/>
  <outline>
    <contour>
      <point x="426" y="-13" type="line"/>
      <point x="431" y="-12" type="line"/>
      <point x="431" y="570" type="line"/>
      <point x="540" y="570" type="line"/>
      <point x="506" y="622" type="line"/>
      <point x="-29" y="622" type="line"/>
      <point x="5" y="570" type="line"/>
      <point x="377" y="570" type="line"/>
      <point x="377" y="504" type="line"/>
      <point x="383" y="524" type="line"/>
      <point x="249" y="477"/>
      <point x="146" y="427"/>
      <point x="25" y="348" type="curve"/>
      <point x="66" y="235" type="line"/>
      <point x="203" y="217"/>
      <point x="307" y="144"/>
      <point x="379" y="24" type="curve"/>
    </contour>
    <contour>
      <point x="377" y="71" type="line"/>
      <point x="384" y="87" type="line"/>
      <point x="306" y="231"/>
      <point x="189" y="291"/>
      <point x="93" y="314" type="curve"/>
      <point x="105" y="290" type="line"/>
      <point x="187" y="350"/>
      <point x="291" y="399"/>
      <point x="389" y="434" type="curve"/>
      <point x="377" y="452" type="line"/>
    </contour>
  </outline>
</glyph>
<glyph name="bha-beng" format="2">
  <advance width="630"/>
  <unicode hex="09AD"/>
  <anchor x="444" y="54" name="bottom"/>
  <anchor x="522" y="14" name="bottom.rakaar"/>
  <anchor x="446" y="61" name="bottom.rvocalic"/>
  <anchor x="390" y="34" name="bottom.virama"/>
  <anchor x="339" y="570" name="top"/>
  <anchor x="342" y="570" name="topright"/>
  <outline>
    <contour>
      <point x="373" y="71" type="curve" smooth="yes"/>
      <point x="510" y="71"/>
      <point x="590" y="160"/>
      <point x="590" y="292" type="curve" smooth="yes"/>
      <point x="590" y="398"/>
      <point x="536" y="471"/>
      <point x="494" y="510" type="curve"/>
      <point x="413" y="411"/>
      <point x="362" y="380"/>
      <point x="315" y="374" type="curve"/>
      <point x="330" y="359" type="line"/>
      <point x="346" y="375"/>
      <point x="355" y="391"/>
      <point x="355" y="417" type="curve" smooth="yes"/>
      <point x="355" y="463"/>
      <point x="324" y="493"/>
      <point x="282" y="493" type="curve" smooth="yes"/>
      <point x="231" y="493"/>
      <point x="201" y="456"/>
      <point x="201" y="412" type="curve" smooth="yes"/>
      <point x="201" y="344"/>
      <point x="251" y="301"/>
      <point x="327" y="301" type="curve" smooth="yes"/>
      <point x="404" y="301"/>
      <point x="465" y="343"/>
      <point x="527" y="422" type="curve"/>
      <point x="501" y="420" type="line"/>
      <point x="526" y="389"/>
      <point x="539" y="355"/>
      <point x="539" y="306" type="curve" smooth="yes"/>
      <point x="539" y="223"/>
      <point x="474" y="162"/>
      <point x="371" y="162" type="curve" smooth="yes"/>
      <point x="250" y="162"/>
      <point x="139" y="242"/>
      <point x="67" y="507" type="curve"/>
      <point x="27" y="494" type="line"/>
      <point x="97" y="185"/>
      <point x="224" y="71"/>
    </contour>
    <contour>
      <point x="5" y="570" type="line"/>
      <point x="659" y="570" type="line"/>
      <point x="625" y="622" type="line"/>
      <point x="-29" y="622" type="line"/>
    </contour>
  </outline>
</glyph>
<glyph name="ma-beng" format="2">
  <advance width="544"/>
  <unicode hex="09AE"/>
  <anchor x="459" y="30" name="bottom"/>
  <anchor x="464" y="70" name="bottom.rakaar"/>
  <anchor x="464" y="12" name="bottom.rvocalic"/>
  <anchor x="444" y="6" name="bottom.virama"/>
  <anchor x="464" y="570" name="top"/>
  <anchor x="467" y="570" name="topright"/>
  <outline>
    <contour>
      <point x="459" y="-13" type="line"/>
      <point x="464" y="-12" type="line"/>
      <point x="464" y="570" type="line"/>
      <point x="573" y="570" type="line"/>
      <point x="539" y="622" type="line"/>
      <point x="-29" y="622" type="line"/>
      <point x="5" y="570" type="line"/>
      <point x="38" y="570" type="line"/>
      <point x="30" y="596" type="line"/>
      <point x="25" y="590"/>
      <point x="21" y="574"/>
      <point x="21" y="559" type="curve" smooth="yes"/>
      <point x="21" y="515"/>
      <point x="46" y="488"/>
      <point x="126" y="457" type="curve" smooth="yes"/>
      <point x="206" y="426"/>
      <point x="218" y="393"/>
      <point x="218" y="352" type="curve" smooth="yes"/>
      <point x="218" y="329"/>
      <point x="206" y="306"/>
      <point x="194" y="295" type="curve"/>
      <point x="267" y="321" type="line"/>
      <point x="245" y="333"/>
      <point x="221" y="341"/>
      <point x="190" y="341" type="curve" smooth="yes"/>
      <point x="120" y="341"/>
      <point x="84" y="302"/>
      <point x="84" y="245" type="curve" smooth="yes"/>
      <point x="84" y="188"/>
      <point x="126" y="153"/>
      <point x="179" y="153" type="curve" smooth="yes"/>
      <point x="242" y="153"/>
      <point x="271" y="192"/>
      <point x="288" y="239" type="curve"/>
      <point x="270" y="235" type="line"/>
      <point x="320" y="217"/>
      <point x="369" y="148"/>
      <point x="412" y="24" type="curve"/>
    </contour>
    <contour>
      <point x="415" y="64" type="curve"/>
      <point x="422" y="80" type="line"/>
      <point x="394" y="213"/>
      <point x="334" y="286"/>
      <point x="280" y="317" type="curve"/>
      <point x="291" y="274" type="line"/>
      <point x="297" y="296"/>
      <point x="298" y="314"/>
      <point x="298" y="331" type="curve" smooth="yes"/>
      <point x="298" y="400"/>
      <point x="261" y="435"/>
      <point x="182" y="480" type="curve" smooth="yes"/>
      <point x="131" y="509"/>
      <point x="116" y="540"/>
      <point x="116" y="567" type="curve" smooth="yes"/>
      <point x="116" y="573"/>
      <point x="117" y="580"/>
      <point x="119" y="587" type="curve"/>
      <point x="95" y="570" type="line"/>
      <point x="410" y="570" type="line"/>
      <point x="410" y="277" type="line" smooth="yes"/>
      <point x="410" y="230"/>
      <point x="412" y="121"/>
    </contour>
  </outline>
</glyph>
<glyph name="la-beng" format="2">
  <advance width="617"/>
  <unicode hex="09B2"/>
  <anchor x="526" y="49" name="bottom"/>
  <anchor x="537" y="-3" name="bottom.rakaar"/>
  <anchor x="537" y="-2" name="bottom.rvocalic"/>
  <anchor x="517" y="6" name="bottom.virama"/>
  <anchor x="537" y="570" name="top"/>
  <anchor x="540" y="570" name="topright"/>
  <outline>
    <contour>
      <point x="534" y="-25" type="line"/>
      <point x="537" y="-24" type="line"/>
      <point x="537" y="570" type="line"/>
      <point x="646" y="570" type="line"/>
      <point x="611" y="622" type="line"/>
      <point x="-29" y="622" type="line"/>
      <point x="5" y="570" type="line"/>
      <point x="483" y="570" type="line"/>
      <point x="483" y="455" type="line" smooth="yes"/>
      <point x="483" y="412"/>
      <point x="485" y="370"/>
      <point x="488" y="323" type="curve"/>
      <point x="489" y="332" type="line"/>
      <point x="458" y="435"/>
      <point x="413" y="472"/>
      <point x="371" y="472" type="curve" smooth="yes"/>
      <point x="325" y="472"/>
      <point x="289" y="436"/>
      <point x="289" y="356" type="curve"/>
      <point x="303" y="363" type="line"/>
      <point x="278" y="422"/>
      <point x="237" y="474"/>
      <point x="161" y="474" type="curve" smooth="yes"/>
      <point x="83" y="474"/>
      <point x="21" y="411"/>
      <point x="21" y="310" type="curve" smooth="yes"/>
      <point x="21" y="188"/>
      <point x="98" y="124"/>
      <point x="176" y="124" type="curve" smooth="yes"/>
      <point x="232" y="124"/>
      <point x="267" y="154"/>
      <point x="267" y="205" type="curve" smooth="yes"/>
      <point x="267" y="253"/>
      <point x="235" y="283"/>
      <point x="189" y="283" type="curve" smooth="yes"/>
      <point x="150" y="283"/>
      <point x="119" y="257"/>
      <point x="119" y="215" type="curve" smooth="yes"/>
      <point x="119" y="193"/>
      <point x="125" y="175"/>
      <point x="143" y="159" type="curve"/>
      <point x="170" y="201" type="line"/>
      <point x="160" y="198"/>
      <point x="150" y="197"/>
      <point x="140" y="197" type="curve" smooth="yes"/>
      <point x="104" y="197"/>
      <point x="77" y="238"/>
      <point x="77" y="287" type="curve" smooth="yes"/>
      <point x="77" y="346"/>
      <point x="115" y="381"/>
      <point x="180" y="381" type="curve" smooth="yes"/>
      <point x="236" y="381"/>
      <point x="283" y="353"/>
      <point x="306" y="292" type="curve"/>
      <point x="328" y="284" type="line"/>
      <point x="328" y="352"/>
      <point x="358" y="378"/>
      <point x="389" y="378" type="curve" smooth="yes"/>
      <point x="431" y="378"/>
      <point x="467" y="341"/>
      <point x="491" y="237" type="curve"/>
      <point x="483" y="290" type="line"/>
      <point x="483" y="3" type="line"/>
    </contour>
  </outline>
</glyph>
<glyph name="sha-beng" format="2">
  <advance width="615"/>
  <unicode hex="09B6"/>
  <anchor x="524" y="49" name="bottom"/>
  <anchor x="535" y="-3" name="bottom.rakaar"/>
  <anchor x="535" y="-2" name="bottom.rvocalic"/>
  <anchor x="515" y="6" name="bottom.virama"/>
  <anchor x="535" y="560" name="top"/>
  <anchor x="505" y="552" name="topright"/>
  <outline>
    <contour>
      <point x="532" y="-25" type="line"/>
      <point x="535" y="-24" type="line"/>
      <point x="535" y="570" type="line"/>
      <point x="644" y="570" type="line"/>
      <point x="609" y="622" type="line"/>
      <point x="535" y="622" type="line"/>
      <point x="531" y="665" type="line"/>
      <point x="485" y="698" type="line"/>
      <point x="481" y="697" type="line"/>
      <point x="481" y="563" type="line" smooth="yes"/>
      <point x="481" y="538"/>
      <point x="482" y="502"/>
      <point x="485" y="479" type="curve"/>
      <point x="490" y="479" type="line"/>
      <point x="449" y="566"/>
      <point x="374" y="629"/>
      <point x="311" y="629" type="curve" smooth="yes"/>
      <point x="269" y="629"/>
      <point x="233" y="605"/>
      <point x="186" y="543" type="curve"/>
      <point x="137" y="599"/>
      <point x="110" y="622"/>
      <point x="49" y="622" type="curve" smooth="yes"/>
      <point x="-29" y="622" type="line"/>
      <point x="5" y="570" type="line"/>
      <point x="51" y="570" type="line" smooth="yes"/>
      <point x="103" y="570"/>
      <point x="132" y="550"/>
      <point x="169" y="507" type="curve"/>
      <point x="176" y="521" type="line"/>
      <point x="68" y="477"/>
      <point x="35" y="407"/>
      <point x="35" y="356" type="curve" smooth="yes"/>
      <point x="35" y="300"/>
      <point x="76" y="280"/>
      <point x="108" y="280" type="curve" smooth="yes"/>
      <point x="156" y="280"/>
      <point x="189" y="312"/>
      <point x="201" y="364" type="curve"/>
      <point x="214" y="306"/>
      <point x="250" y="280"/>
      <point x="293" y="280" type="curve" smooth="yes"/>
      <point x="337" y="280"/>
      <point x="368" y="303"/>
      <point x="368" y="356" type="curve" smooth="yes"/>
      <point x="368" y="412"/>
      <point x="327" y="467"/>
      <point x="243" y="509" type="curve"/>
      <point x="247" y="491" type="line"/>
      <point x="274" y="531"/>
      <point x="294" y="554"/>
      <point x="326" y="554" type="curve" smooth="yes"/>
      <point x="373" y="554"/>
      <point x="440" y="511"/>
      <point x="489" y="412" type="curve"/>
      <point x="481" y="450" type="line"/>
      <point x="481" y="3" type="line"/>
    </contour>
  </outline>
</glyph>
<glyph name="sa-beng" format="2">
  <advance width="607"/>
  <unicode hex="09B8"/>
  <anchor x="516" y="49" name="bottom"/>
  <anchor x="527" y="-3" name="bottom.rakaar"/>
  <anchor x="527" y="0" name="bottom.rvocalic"/>
  <anchor x="507" y="6" name="bottom.virama"/>
  <anchor x="527" y="570" name="top"/>
  <anchor x="530" y="570" name="topright"/>
  <outline>
    <contour>
      <point x="524" y="-25" type="line"/>
      <point x="527" y="-24" type="line"/>
      <point x="527" y="570" type="line"/>
      <point x="636" y="570" type="line"/>
      <point x="601" y="622" type="line"/>
      <point x="-29" y="622" type="line"/>
      <point x="49" y="500" type="line"/>
      <point x="62" y="502"/>
      <point x="79" y="504"/>
      <point x="98" y="504" type="curve" smooth="yes"/>
      <point x="199" y="504"/>
      <point x="263" y="442"/>
      <point x="265" y="302" type="curve"/>
      <point x="294" y="356" type="line"/>
      <point x="297" y="492"/>
      <point x="220" y="557"/>
      <point x="113" y="580" type="curve"/>
      <point x="114" y="570" type="line"/>
      <point x="473" y="570" type="line"/>
      <point x="473" y="481" type="line" smooth="yes"/>
      <point x="473" y="449"/>
      <point x="475" y="378"/>
      <point x="480" y="344" type="curve"/>
      <point x="486" y="344" type="line"/>
      <point x="451" y="412"/>
      <point x="416" y="453"/>
      <point x="374" y="453" type="curve" smooth="yes"/>
      <point x="352" y="453"/>
      <point x="316" y="449"/>
      <point x="284" y="368" type="curve" smooth="yes"/>
      <point x="238" y="251"/>
      <point x="208" y="211"/>
      <point x="167" y="211" type="curve" smooth="yes"/>
      <point x="141" y="211"/>
      <point x="118" y="220"/>
      <point x="86" y="281" type="curve"/>
      <point x="50" y="264" type="line"/>
      <point x="94" y="160"/>
      <point x="140" y="125"/>
      <point x="189" y="125" type="curve" smooth="yes"/>
      <point x="248" y="125"/>
      <point x="281" y="163"/>
      <point x="322" y="260" type="curve" smooth="yes"/>
      <point x="361" y="352"/>
      <point x="380" y="367"/>
      <point x="403" y="367" type="curve" smooth="yes"/>
      <point x="423" y="367"/>
      <point x="445" y="350"/>
      <point x="478" y="297" type="curve"/>
      <point x="473" y="328" type="line"/>
      <point x="473" y="3" type="line"/>
    </contour>
  </outline>
</glyph>
<glyph name="ha-beng" format="2">
  <advance width="466"/>
  <unicode hex="09B9"/>
  <anchor x="265" y="90" name="bottom"/>
  <anchor x="385" y="-59" name="bottom.rakaar"/>
  <anchor x="320" y="90" name="bottom.rvocalic"/>
  <anchor x="244" y="90" name="bottom.virama"/>
  <anchor x="239" y="570" name="top"/>
  <anchor x="210" y="570" name="topright"/>
  <outline>
    <contour>
      <point x="460" y="-45" type="curve"/>
      <point x="491" y="-12" type="line"/>
      <point x="405" y="70"/>
      <point x="297" y="159"/>
      <point x="183" y="184" type="curve"/>
      <point x="126" y="165" type="line"/>
      <point x="148" y="152"/>
      <point x="186" y="148"/>
      <point x="219" y="148" type="curve" smooth="yes"/>
      <point x="331" y="148"/>
      <point x="419" y="216"/>
      <point x="419" y="335" type="curve" smooth="yes"/>
      <point x="419" y="431"/>
      <point x="360" y="508"/>
      <point x="201" y="508" type="curve" smooth="yes"/>
      <point x="110" y="508"/>
      <point x="57" y="477"/>
      <point x="57" y="416" type="curve" smooth="yes"/>
      <point x="57" y="365"/>
      <point x="91" y="331"/>
      <point x="146" y="331" type="curve" smooth="yes"/>
      <point x="208" y="331"/>
      <point x="234" y="378"/>
      <point x="234" y="434" type="curve" smooth="yes"/>
      <point x="234" y="484"/>
      <point x="203" y="544"/>
      <point x="165" y="578" type="curve"/>
      <point x="72" y="578" type="line"/>
      <point x="120" y="558"/>
      <point x="165" y="521"/>
      <point x="178" y="468" type="curve"/>
      <point x="168" y="408" type="line"/>
      <point x="187" y="427"/>
      <point x="221" y="444"/>
      <point x="256" y="444" type="curve" smooth="yes"/>
      <point x="335" y="444"/>
      <point x="365" y="400"/>
      <point x="365" y="347" type="curve" smooth="yes"/>
      <point x="365" y="274"/>
      <point x="307" y="227"/>
      <point x="197" y="227" type="curve" smooth="yes"/>
      <point x="137" y="227"/>
      <point x="87" y="234"/>
      <point x="36" y="251" type="curve"/>
      <point x="56" y="153" type="line"/>
      <point x="223" y="128"/>
      <point x="319" y="78"/>
    </contour>
    <contour>
      <point x="5" y="570" type="line"/>
      <point x="495" y="570" type="line"/>
      <point x="461" y="622" type="line"/>
      <point x="-29" y="622" type="line"/>
    </contour>
  </outline>
</glyph>
<glyph name="nukta-beng" format="2">
  <unicode hex="09BC"/>
  <anchor x="0" y="-125" name="_nukta"/>
  <outline>
    <contour>
      <point x="0" y="-186" type="curve" smooth="yes"/>
      <point x="33" y="-186"/>
      <point x="62" y="-162"/>
      <point x="62" y="-125" type="curve" smooth="yes"/>
      <point x="62" y="-88"/>
      <point x="34" y="-63"/>
      <point x="0" y="-63" type="curve" smooth="yes"/>
      <point x="-36" y="-63"/>
      <point x="-64" y="-88"/>
      <point x="-64" y="-125" type="curve" smooth="yes"/>
      <point x="-64" y="-161"/>
      <point x="-35" y="-186"/>
    </contour>
  </outline>
</glyph>
<glyph name="iMatra-beng" format="2">
  <advance width="214"/>
  <unicode hex="09BF"/>
  <anchor x="676" y="570" name="top"/>
  <anchor x="464" y="592" name="topright"/>
  <outline>
    <contour>
      <point x="131" y="-25" type="line"/>
      <point x="134" y="-24" type="line"/>
      <point x="134" y="570" type="line"/>
      <point x="243" y="570" type="line"/>
      <point x="208" y="622" type="line"/>
      <point x="122" y="622" type="line"/>
      <point x="105" y="642"/>
      <point x="93" y="665"/>
      <point x="76" y="689" type="curve"/>
      <point x="95" y="766"/>
      <point x="179" y="848"/>
      <point x="280" y="848" type="curve" smooth="yes"/>
      <point x="370" y="848"/>
      <point x="472" y="810"/>
      <point x="602" y="681" type="curve"/>
      <point x="626" y="703" type="line"/>
      <point x="522" y="825"/>
      <point x="386" y="920"/>
      <point x="258" y="920" type="curve" smooth="yes"/>
      <point x="141" y="920"/>
      <point x="42" y="842"/>
      <point x="-11" y="707" type="curve"/>
      <point x="15" y="677"/>
      <point x="43" y="649"/>
      <point x="73" y="622" type="curve"/>
      <point x="-29" y="622" type="line"/>
      <point x="4" y="570" type="line"/>
      <point x="80" y="570" type="line"/>
      <point x="80" y="3" type="line"/>
    </contour>
  </outline>
</glyph>
<glyph name="rrVocalicMatra-beng" format="2">
  <unicode hex="09C4"/>
  <anchor x="0" y="0" name="_bottom.rvocalic"/>
  <outline>
    <contour>
      <point x="39" y="-253" type="curve"/>
      <point x="60" y="-222" type="line"/>
      <point x="24" y="-186"/>
      <point x="-70" y="-114"/>
      <point x="-159" y="-74" type="curve"/>
      <point x="-149" y="-101" type="line"/>
      <point x="-97" y="-70"/>
      <point x="-59" y="-48"/>
      <point x="0" y="-24" type="curve"/>
      <point x="0" y="-10" type="line"/>
      <point x="-40" y="41" type="line"/>
      <point x="-97" y="18"/>
      <point x="-171" y="-19"/>
      <point x="-243" y="-68" type="curve"/>
      <point x="-190" y="-129" type="line"/>
      <point x="-113" y="-156"/>
      <point x="-31" y="-198"/>
    </contour>
    <contour>
      <point x="29" y="-408" type="curve"/>
      <point x="50" y="-377" type="line"/>
      <point x="16" y="-338"/>
      <point x="-60" y="-272"/>
      <point x="-148" y="-232" type="curve"/>
      <point x="-143" y="-257" type="line"/>
      <point x="-104" y="-230"/>
      <point x="-73" y="-210"/>
      <point x="-24" y="-185" type="curve"/>
      <point x="-89" y="-140" type="line"/>
      <point x="-138" y="-167"/>
      <point x="-191" y="-198"/>
      <point x="-232" y="-226" type="curve"/>
      <point x="-179" y="-287" type="line"/>
      <point x="-103" y="-314"/>
      <point x="-38" y="-351"/>
    </contour>
  </outline>
</glyph>
<glyph name="eMatra-beng" format="2">
  <advance width="389"/>
  <unicode hex="09C7"/>
  <outline>
    <contour>
      <point x="277" y="-14" type="curve" smooth="yes"/>
      <point x="334" y="-14"/>
      <point x="366" y="19"/>
      <point x="366" y="71" type="curve" smooth="yes"/>
      <point x="366" y="114"/>
      <point x="339" y="151"/>
      <point x="288" y="151" type="curve" smooth="yes"/>
      <point x="248" y="151"/>
      <point x="217" y="125"/>
      <point x="217" y="85" type="curve" smooth="yes"/>
      <point x="217" y="60"/>
      <point x="225" y="39"/>
      <point x="240" y="23" type="curve"/>
      <point x="248" y="31" type="line"/>
      <point x="160" y="69"/>
      <point x="128" y="163"/>
      <point x="128" y="263" type="curve" smooth="yes"/>
      <point x="128" y="410"/>
      <point x="234" y="570"/>
      <point x="361" y="570" type="curve" smooth="yes"/>
      <point x="418" y="570" type="line"/>
      <point x="384" y="622" type="line"/>
      <point x="-29" y="622" type="line"/>
      <point x="5" y="570" type="line"/>
      <point x="226" y="570" type="line"/>
      <point x="206" y="591" type="line"/>
      <point x="131" y="542"/>
      <point x="64" y="437"/>
      <point x="64" y="287" type="curve" smooth="yes"/>
      <point x="64" y="109"/>
      <point x="164" y="-14"/>
    </contour>
  </outline>
</glyph>
<glyph name="aiMatra-beng" format="2">
  <advance width="389"/>
  <unicode hex="09C8"/>
  <outline>
    <contour>
      <point x="326" y="612" type="curve"/>
      <point x="369" y="612" type="line"/>
      <point x="357" y="739"/>
      <point x="318" y="805"/>
      <point x="225" y="805" type="curve" smooth="yes"/>
      <point x="189" y="805"/>
      <point x="155" y="796"/>
      <point x="109" y="796" type="curve" smooth="yes"/>
      <point x="36" y="796"/>
      <point x="3" y="810"/>
      <point x="3" y="888" type="curve" smooth="yes"/>
      <point x="3" y="895"/>
      <point x="3" y="904"/>
      <point x="4" y="913" type="curve"/>
      <point x="-37" y="917" type="line"/>
      <point x="-40" y="899"/>
      <point x="-41" y="883"/>
      <point x="-41" y="867" type="curve" smooth="yes"/>
      <point x="-41" y="768"/>
      <point x="7" y="710"/>
      <point x="102" y="710" type="curve" smooth="yes"/>
      <point x="157" y="710"/>
      <point x="203" y="720"/>
      <point x="240" y="720" type="curve" smooth="yes"/>
      <point x="291" y="720"/>
      <point x="316" y="687"/>
    </contour>
    <contour>
      <point x="277" y="-14" type="curve" smooth="yes"/>
      <point x="334" y="-14"/>
      <point x="366" y="19"/>
      <point x="366" y="71" type="curve" smooth="yes"/>
      <point x="366" y="114"/>
      <point x="339" y="151"/>
      <point x="288" y="151" type="curve" smooth="yes"/>
      <point x="248" y="151"/>
      <point x="217" y="125"/>
      <point x="217" y="85" type="curve" smooth="yes"/>
      <point x="217" y="60"/>
      <point x="225" y="39"/>
      <point x="240" y="23" type="curve"/>
      <point x="248" y="31" type="line"/>
      <point x="160" y="69"/>
      <point x="128" y="163"/>
      <point x="128" y="263" type="curve" smooth="yes"/>
      <point x="128" y="410"/>
      <point x="234" y="570"/>
      <point x="361" y="570" type="curve" smooth="yes"/>
      <point x="418" y="570" type="line"/>
      <point x="384" y="622" type="line"/>
      <point x="-29" y="622" type="line"/>
      <point x="5" y="570" type="line"/>
      <point x="226" y="570" type="line"/>
      <point x="206" y="591" type="line"/>
      <point x="131" y="542"/>
      <point x="64" y="437"/>
      <point x="64" y="287" type="curve" smooth="yes"/>
      <point x="64" y="109"/>
      <point x="164" y="-14"/>
    </contour>
  </outline>
</glyph>
<glyph name="oMatra-beng" format="2">
  <advance width="776"/>
  <unicode hex="09CB"/>
  <outline>
    <contour>
      <point x="419" y="249" type="curve" smooth="yes"/>
      <point x="452" y="249"/>
      <point x="480" y="272"/>
      <point x="480" y="310" type="curve" smooth="yes"/>
      <point x="480" y="346"/>
      <point x="453" y="372"/>
      <point x="419" y="372" type="curve" smooth="yes"/>
      <point x="384" y="372"/>
      <point x="355" y="346"/>
      <point x="355" y="310" type="curve" smooth="yes"/>
      <point x="355" y="274"/>
      <point x="385" y="249"/>
    </contour>
    <contour>
      <point x="277" y="-14" type="curve" smooth="yes"/>
      <point x="334" y="-14"/>
      <point x="366" y="19"/>
      <point x="366" y="71" type="curve" smooth="yes"/>
      <point x="366" y="114"/>
      <point x="339" y="151"/>
      <point x="288" y="151" type="curve" smooth="yes"/>
      <point x="248" y="151"/>
      <point x="217" y="125"/>
      <point x="217" y="85" type="curve" smooth="yes"/>
      <point x="217" y="60"/>
      <point x="225" y="39"/>
      <point x="240" y="23" type="curve"/>
      <point x="248" y="31" type="line"/>
      <point x="160" y="69"/>
      <point x="128" y="163"/>
      <point x="128" y="263" type="curve" smooth="yes"/>
      <point x="128" y="410"/>
      <point x="234" y="570"/>
      <point x="361" y="570" type="curve" smooth="yes"/>
      <point x="418" y="570" type="line"/>
      <point x="384" y="622" type="line"/>
      <point x="-29" y="622" type="line"/>
      <point x="5" y="570" type="line"/>
      <point x="226" y="570" type="line"/>
      <point x="206" y="591" type="line"/>
      <point x="131" y="542"/>
      <point x="64" y="437"/>
      <point x="64" y="287" type="curve" smooth="yes"/>
      <point x="64" y="109"/>
      <point x="164" y="-14"/>
    </contour>
    <contour>
      <point x="693" y="-25" type="line"/>
      <point x="696" y="-24" type="line"/>
      <point x="696" y="570" type="line"/>
      <point x="805" y="570" type="line"/>
      <point x="770" y="622" type="line"/>
      <point x="696" y="622" type="line"/>
      <point x="692" y="665" type="line"/>
      <point x="646" y="698" type="line"/>
      <point x="642" y="697" type="line"/>
      <point x="642" y="618" type="line" smooth="yes"/>
      <point x="642" y="600"/>
      <point x="646" y="545"/>
      <point x="650" y="498" type="curve"/>
      <point x="656" y="501" type="line"/>
      <point x="647" y="587"/>
      <point x="605" y="622"/>
      <point x="571" y="622" type="curve" smooth="yes"/>
      <point x="533" y="622" type="line"/>
      <point x="566" y="570" type="line"/>
      <point x="573" y="570" type="line" smooth="yes"/>
      <point x="612" y="570"/>
      <point x="631" y="526"/>
      <point x="642" y="472" type="curve"/>
      <point x="642" y="3" type="line"/>
    </contour>
  </outline>
</glyph>
<glyph name="auMatra-beng" format="2">
  <advance width="776"/>
  <unicode hex="09CC"/>
  <anchor x="847" y="596" name="top"/>
  <anchor x="512" y="620" name="topright"/>
  <anchor x="368" y="0" name="vedic"/>
  <outline>
    <contour>
      <point x="419" y="249" type="curve" smooth="yes"/>
      <point x="452" y="249"/>
      <point x="480" y="272"/>
      <point x="480" y="310" type="curve" smooth="yes"/>
      <point x="480" y="346"/>
      <point x="453" y="372"/>
      <point x="419" y="372" type="curve" smooth="yes"/>
      <point x="384" y="372"/>
      <point x="355" y="346"/>
      <point x="355" y="310" type="curve" smooth="yes"/>
      <point x="355" y="274"/>
      <point x="385" y="249"/>
    </contour>
    <component base="auLength-beng" xOffset="562"/>
    <component base="eMatra-beng"/>
  </outline>
</glyph>
<glyph name="halant-beng" format="2">
  <unicode hex="09CD"/>
  <anchor x="-75" y="0" name="_bottom.virama"/>
  <outline>
    <contour>
      <point x="85" y="-243" type="curve"/>
      <point x="114" y="-212" type="line"/>
      <point x="56" y="-133"/>
      <point x="-20" y="-83"/>
      <point x="-113" y="-53" type="curve"/>
      <point x="-133" y="-119" type="line"/>
      <point x="-48" y="-138"/>
      <point x="28" y="-183"/>
    </contour>
  </outline>
</glyph>
<glyph name="taKhanda-beng" format="2">
  <advance width="551"/>
  <unicode hex="09CE"/>
  <anchor x="294" y="570" name="top"/>
  <anchor x="289" y="570" name="topright"/>
  <outline>
    <contour>
      <point x="493" y="-40" type="line"/>
      <point x="517" y="-2"/>
      <point x="526" y="28"/>
      <point x="526" y="63" type="curve" smooth="yes"/>
      <point x="526" y="143"/>
      <point x="471" y="188"/>
      <point x="312" y="238" type="curve" smooth="yes"/>
      <point x="158" y="286"/>
      <point x="120" y="325"/>
      <point x="120" y="410" type="curve" smooth="yes"/>
      <point x="120" y="485"/>
      <point x="179" y="536"/>
      <point x="269" y="536" type="curve" smooth="yes"/>
      <point x="314" y="536"/>
      <point x="365" y="516"/>
      <point x="365" y="472" type="curve" smooth="yes"/>
      <point x="365" y="443"/>
      <point x="345" y="426"/>
      <point x="310" y="426" type="curve" smooth="yes"/>
      <point x="266" y="426"/>
      <point x="208" y="455"/>
      <point x="200" y="552" type="curve"/>
      <point x="168" y="531" type="line"/>
      <point x="169" y="433"/>
      <point x="208" y="337"/>
      <point x="304" y="337" type="curve" smooth="yes"/>
      <point x="391" y="337"/>
      <point x="418" y="428"/>
      <point x="418" y="484" type="curve" smooth="yes"/>
      <point x="418" y="551"/>
      <point x="380" y="618"/>
      <point x="275" y="618" type="curve" smooth="yes"/>
      <point x="134" y="618"/>
      <point x="65" y="508"/>
      <point x="65" y="397" type="curve" smooth="yes"/>
      <point x="65" y="270"/>
      <point x="125" y="197"/>
      <point x="298" y="151" type="curve" smooth="yes"/>
      <point x="434" y="115"/>
      <point x="466" y="87"/>
      <point x="466" y="38" type="curve" smooth="yes"/>
      <point x="466" y="19"/>
      <point x="461" y="-2"/>
      <point x="450" y="-24" type="curve"/>
    </contour>
  </outline>
</glyph>
<glyph name="auLength-beng" format="2">
  <advance width="214"/>
  <unicode hex="09D7"/>
  <anchor x="285" y="596" name="top"/>
  <anchor x="-50" y="620" name="topright"/>
  <outline>
    <contour>
      <point x="131" y="-23" type="line"/>
      <point x="134" y="-22" type="line"/>
      <point x="134" y="570" type="line"/>
      <point x="243" y="570" type="line"/>
      <point x="208" y="622" type="line"/>
      <point x="-29" y="622" type="line"/>
      <point x="4" y="570" type="line"/>
      <point x="80" y="570" type="line"/>
      <point x="80" y="5" type="line"/>
    </contour>
    <contour>
      <point x="79" y="612" type="curve"/>
      <point x="136" y="612" type="line"/>
      <point x="128" y="739"/>
      <point x="65" y="807"/>
      <point x="-43" y="807" type="curve" smooth="yes"/>
      <point x="-99" y="807"/>
      <point x="-159" y="795"/>
      <point x="-244" y="795" type="curve" smooth="yes"/>
      <point x="-337" y="795"/>
      <point x="-382" y="816"/>
      <point x="-382" y="882" type="curve" smooth="yes"/>
      <point x="-382" y="891"/>
      <point x="-381" y="902"/>
      <point x="-380" y="913" type="curve"/>
      <point x="-421" y="917" type="line"/>
      <point x="-424" y="899"/>
      <point x="-425" y="881"/>
      <point x="-425" y="864" type="curve" smooth="yes"/>
      <point x="-425" y="775"/>
      <point x="-373" y="709"/>
      <point x="-251" y="709" type="curve" smooth="yes"/>
      <point x="-156" y="709"/>
      <point x="-93" y="726"/>
      <point x="-23" y="726" type="curve" smooth="yes"/>
      <point x="43" y="726"/>
      <point x="81" y="696"/>
      <point x="81" y="632" type="curve" smooth="yes"/>
      <point x="81" y="624"/>
      <point x="80" y="617"/>
    </contour>
  </outline>
</glyph>
<glyph name="llVocalic-beng" format="2">
  <advance width="713"/>
  <unicode hex="09E1"/>
  <anchor x="370" y="570" name="top"/>
  <outline>
    <contour>
      <point x="298" y="22" type="curve"/>
      <point x="416" y="46"/>
      <point x="496" y="153"/>
      <point x="496" y="284" type="curve" smooth="yes"/>
      <point x="496" y="430"/>
      <point x="427" y="472"/>
      <point x="277" y="507" type="curve" smooth="yes"/>
      <point x="189" y="528"/>
      <point x="126" y="546"/>
      <point x="126" y="620" type="curve" smooth="yes"/>
      <point x="126" y="646"/>
      <point x="132" y="672"/>
      <point x="142" y="698" type="curve"/>
      <point x="103" y="712" type="line"/>
      <point x="85" y="674"/>
      <point x="77" y="631"/>
      <point x="77" y="599" type="curve" smooth="yes"/>
      <point x="77" y="484"/>
      <point x="141" y="448"/>
      <point x="274" y="420" type="curve" smooth="yes"/>
      <point x="380" y="397"/>
      <point x="446" y="377"/>
      <point x="446" y="264" type="curve" smooth="yes"/>
      <point x="446" y="194"/>
      <point x="405" y="117"/>
      <point x="350" y="103" type="curve"/>
      <point x="375" y="86" type="line"/>
      <point x="376" y="199"/>
      <point x="334" y="315"/>
      <point x="208" y="315" type="curve" smooth="yes"/>
      <point x="112" y="315"/>
      <point x="60" y="251"/>
      <point x="60" y="172" type="curve" smooth="yes"/>
      <point x="60" y="82"/>
      <point x="109" y="36"/>
      <point x="171" y="36" type="curve" smooth="yes"/>
      <point x="219" y="36"/>
      <point x="241" y="70"/>
      <point x="241" y="105" type="curve" smooth="yes"/>
      <point x="241" y="143"/>
      <point x="212" y="168"/>
      <point x="177" y="168" type="curve" smooth="yes"/>
      <point x="144" y="168"/>
      <point x="115" y="145"/>
      <point x="114" y="117" type="curve"/>
      <point x="154" y="119" type="line"/>
      <point x="131" y="127"/>
      <point x="113" y="147"/>
      <point x="113" y="182" type="curve" smooth="yes"/>
      <point x="113" y="220"/>
      <point x="142" y="251"/>
      <point x="192" y="251" type="curve" smooth="yes"/>
      <point x="272" y="251"/>
      <point x="301" y="161"/>
      <point x="301" y="73" type="curve" smooth="yes"/>
      <point x="301" y="55"/>
      <point x="300" y="38"/>
    </contour>
    <contour>
      <point x="494" y="-194" type="line"/>
      <point x="594" y="-172"/>
      <point x="685" y="-64"/>
      <point x="685" y="72" type="curve" smooth="yes"/>
      <point x="685" y="213"/>
      <point x="621" y="257"/>
      <point x="477" y="293" type="curve"/>
      <point x="466" y="208" type="line"/>
      <point x="579" y="184"/>
      <point x="635" y="151"/>
      <point x="635" y="52" type="curve" smooth="yes"/>
      <point x="635" y="-18"/>
      <point x="594" y="-95"/>
      <point x="539" y="-109" type="curve"/>
      <point x="564" y="-126" type="line"/>
      <point x="565" y="-13"/>
      <point x="523" y="103"/>
      <point x="397" y="103" type="curve" smooth="yes"/>
      <point x="301" y="103"/>
      <point x="249" y="39"/>
      <point x="249" y="-40" type="curve" smooth="yes"/>
      <point x="249" y="-130"/>
      <point x="298" y="-176"/>
      <point x="360" y="-176" type="curve" smooth="yes"/>
      <point x="408" y="-176"/>
      <point x="430" y="-142"/>
      <point x="430" y="-107" type="curve" smooth="yes"/>
      <point x="430" y="-69"/>
      <point x="401" y="-44"/>
      <point x="366" y="-44" type="curve" smooth="yes"/>
      <point x="333" y="-44"/>
      <point x="304" y="-67"/>
      <point x="303" y="-95" type="curve"/>
      <point x="343" y="-93" type="line"/>
      <point x="320" y="-85"/>
      <point x="302" y="-65"/>
      <point x="302" y="-30" type="curve" smooth="yes"/>
      <point x="302" y="8"/>
      <point x="331" y="39"/>
      <point x="381" y="39" type="curve" smooth="yes"/>
      <point x="461" y="39"/>
      <point x="490" y="-51"/>
      <point x="490" y="-139" type="curve" smooth="yes"/>
      <point x="490" y="-157"/>
      <point x="489" y="-174"/>
      <point x="487" y="-190" type="curve"/>
    </contour>
  </outline>
</glyph>
<glyph name="lVocalicMatra-beng" format="2">
  <unicode hex="09E2"/>
  <anchor x="0" y="42" name="_bottom"/>
  <outline>
    <contour>
      <point x="-71" y="-277" type="line"/>
      <point x="-1" y="-269"/>
      <point x="58" y="-226"/>
      <point x="58" y="-138" type="curve" smooth="yes"/>
      <point x="58" y="-72"/>
      <point x="12" y="-43"/>
      <point x="-45" y="-24" type="curve" smooth="yes"/>
      <point x="-91" y="-9"/>
      <point x="-119" y="-1"/>
      <point x="-119" y="34" type="curve" smooth="yes"/>
      <point x="-119" y="43"/>
      <point x="-117" y="53"/>
      <point x="-112" y="65" type="curve"/>
      <point x="-139" y="75" type="line"/>
      <point x="-156" y="51"/>
      <point x="-162" y="29"/>
      <point x="-162" y="6" type="curve" smooth="yes"/>
      <point x="-162" y="-45"/>
      <point x="-121" y="-65"/>
      <point x="-68" y="-82" type="curve" smooth="yes"/>
      <point x="-5" y="-102"/>
      <point x="25" y="-116"/>
      <point x="25" y="-151" type="curve" smooth="yes"/>
      <point x="25" y="-184"/>
      <point x="0" y="-206"/>
      <point x="-22" y="-206" type="curve" smooth="yes"/>
      <point x="-30" y="-206"/>
      <point x="-37" y="-203"/>
      <point x="-43" y="-197" type="curve"/>
      <point x="-22" y="-241" type="line"/>
      <point x="-21" y="-235"/>
      <point x="-21" y="-229"/>
      <point x="-21" y="-222" type="curve" smooth="yes"/>
      <point x="-21" y="-152"/>
      <point x="-58" y="-104"/>
      <point x="-119" y="-104" type="curve" smooth="yes"/>
      <point x="-177" y="-104"/>
      <point x="-205" y="-148"/>
      <point x="-205" y="-190" type="curve" smooth="yes"/>
      <point x="-205" y="-236"/>
      <point x="-177" y="-253"/>
      <point x="-151" y="-253" type="curve" smooth="yes"/>
      <point x="-123" y="-253"/>
      <point x="-110" y="-232"/>
      <point x="-110" y="-210" type="curve" smooth="yes"/>
      <point x="-110" y="-186"/>
      <point x="-126" y="-169"/>
      <point x="-147" y="-169" type="curve" smooth="yes"/>
      <point x="-165" y="-169"/>
      <point x="-179" y="-182"/>
      <point x="-180" y="-197" type="curve"/>
      <point x="-166" y="-202" type="line"/>
      <point x="-168" y="-198"/>
      <point x="-169" y="-194"/>
      <point x="-169" y="-189" type="curve" smooth="yes"/>
      <point x="-169" y="-167"/>
      <point x="-152" y="-149"/>
      <point x="-129" y="-149" type="curve" smooth="yes"/>
      <point x="-89" y="-149"/>
      <point x="-73" y="-191"/>
      <point x="-73" y="-242" type="curve" smooth="yes"/>
      <point x="-73" y="-256"/>
      <point x="-74" y="-264"/>
      <point x="-75" y="-273" type="curve"/>
    </contour>
  </outline>
</glyph>
<glyph name="llVocalicMatra-beng" format="2">
  <unicode hex="09E3"/>
  <anchor x="0" y="42" name="_bottom"/>
  <outline>
    <contour>
      <point x="-69" y="-261" type="curve"/>
      <point x="11" y="-254"/>
      <point x="62" y="-198"/>
      <point x="62" y="-127" type="curve" smooth="yes"/>
      <point x="62" y="-62"/>
      <point x="16" y="-35"/>
      <point x="-43" y="-24" type="curve" smooth="yes"/>
      <point x="-95" y="-14"/>
      <point x="-119" y="0"/>
      <point x="-119" y="34" type="curve" smooth="yes"/>
      <point x="-119" y="43"/>
      <point x="-117" y="53"/>
      <point x="-112" y="65" type="curve"/>
      <point x="-139" y="75" type="line"/>
      <point x="-156" y="51"/>
      <point x="-162" y="29"/>
      <point x="-162" y="6" type="curve" smooth="yes"/>
      <point x="-162" y="-45"/>
      <point x="-126" y="-70"/>
      <point x="-62" y="-82" type="curve" smooth="yes"/>
      <point x="0" y="-94"/>
      <point x="29" y="-106"/>
      <point x="29" y="-140" type="curve" smooth="yes"/>
      <point x="29" y="-177"/>
      <point x="-1" y="-199"/>
      <point x="-27" y="-199" type="curve" smooth="yes"/>
      <point x="-32" y="-199"/>
      <point x="-37" y="-198"/>
      <point x="-41" y="-197" type="curve"/>
      <point x="-20" y="-220" type="line"/>
      <point x="-20" y="-217"/>
      <point x="-20" y="-213"/>
      <point x="-20" y="-210" type="curve" smooth="yes"/>
      <point x="-20" y="-145"/>
      <point x="-56.006" y="-105"/>
      <point x="-114" y="-105" type="curve" smooth="yes"/>
      <point x="-177" y="-105"/>
      <point x="-204" y="-149"/>
      <point x="-204" y="-190" type="curve" smooth="yes"/>
      <point x="-204" y="-236"/>
      <point x="-176" y="-254"/>
      <point x="-150" y="-254" type="curve" smooth="yes"/>
      <point x="-122" y="-254"/>
      <point x="-108" y="-233"/>
      <point x="-108" y="-211" type="curve" smooth="yes"/>
      <point x="-108" y="-187"/>
      <point x="-125" y="-170"/>
      <point x="-145" y="-170" type="curve" smooth="yes"/>
      <point x="-164" y="-170"/>
      <point x="-178" y="-183"/>
      <point x="-179" y="-198" type="curve"/>
      <point x="-165" y="-203" type="line"/>
      <point x="-167" y="-199"/>
      <point x="-168" y="-195"/>
      <point x="-168" y="-189" type="curve" smooth="yes"/>
      <point x="-168" y="-167"/>
      <point x="-151" y="-150"/>
      <point x="-128" y="-150" type="curve" smooth="yes"/>
      <point x="-88" y="-150"/>
      <point x="-66" y="-175"/>
      <point x="-66" y="-227" type="curve" smooth="yes"/>
      <point x="-66" y="-240"/>
      <point x="-67" y="-250"/>
    </contour>
    <contour>
      <point x="50" y="-378" type="line"/>
      <point x="107" y="-370"/>
      <point x="169" y="-327"/>
      <point x="169" y="-238" type="curve" smooth="yes"/>
      <point x="169" y="-166"/>
      <point x="133" y="-130"/>
      <point x="51" y="-114" type="curve"/>
      <point x="40" y="-169" type="line"/>
      <point x="115" y="-179"/>
      <point x="136" y="-210"/>
      <point x="136" y="-248" type="curve" smooth="yes"/>
      <point x="136" y="-289"/>
      <point x="116" y="-309"/>
      <point x="92" y="-309" type="curve" smooth="yes"/>
      <point x="88" y="-309"/>
      <point x="83" y="-308"/>
      <point x="78" y="-307" type="curve"/>
      <point x="100" y="-330" type="line"/>
      <point x="100" y="-326"/>
      <point x="100" y="-322"/>
      <point x="100" y="-318" type="curve" smooth="yes"/>
      <point x="100" y="-257"/>
      <point x="64" y="-205"/>
      <point x="3" y="-205" type="curve" smooth="yes"/>
      <point x="-55" y="-205"/>
      <point x="-85" y="-249"/>
      <point x="-85" y="-290" type="curve" smooth="yes"/>
      <point x="-85" y="-336"/>
      <point x="-56" y="-354"/>
      <point x="-31" y="-354" type="curve" smooth="yes"/>
      <point x="-2" y="-354"/>
      <point x="11" y="-333"/>
      <point x="11" y="-310" type="curve" smooth="yes"/>
      <point x="11" y="-286"/>
      <point x="-5" y="-270"/>
      <point x="-26" y="-270" type="curve" smooth="yes"/>
      <point x="-44" y="-270"/>
      <point x="-58" y="-283"/>
      <point x="-59" y="-298" type="curve"/>
      <point x="-45" y="-303" type="line"/>
      <point x="-47" y="-299"/>
      <point x="-48" y="-295"/>
      <point x="-48" y="-289" type="curve" smooth="yes"/>
      <point x="-48" y="-267"/>
      <point x="-30" y="-250"/>
      <point x="-5" y="-250" type="curve" smooth="yes"/>
      <point x="34" y="-250"/>
      <point x="49" y="-284"/>
      <point x="49" y="-338" type="curve" smooth="yes"/>
      <point x="49" y="-355"/>
      <point x="48" y="-364"/>
      <point x="46" y="-374" type="curve"/>
    </contour>
  </outline>
</glyph>
<glyph name="zero-beng" format="2">
  <advance width="609"/>
  <unicode hex="09E6"/>
  <outline>
    <contour>
      <point x="295" y="52" type="curve" smooth="yes"/>
      <point x="437" y="52"/>
      <point x="529" y="181"/>
      <point x="529" y="329" type="curve" smooth="yes"/>
      <point x="529" y="466"/>
      <point x="455" y="581"/>
      <point x="314" y="581" type="curve" smooth="yes"/>
      <point x="180" y="581"/>
      <point x="80" y="453"/>
      <point x="80" y="305" type="curve" smooth="yes"/>
      <point x="80" y="147"/>
      <point x="172" y="52"/>
    </contour>
    <contour>
      <point x="276" y="122" type="curve" smooth="yes"/>
      <point x="198" y="122"/>
      <point x="152" y="180"/>
      <point x="152" y="269" type="curve" smooth="yes"/>
      <point x="152" y="389"/>
      <point x="225" y="508"/>
      <point x="336" y="508" type="curve" smooth="yes"/>
      <point x="420" y="508"/>
      <point x="460" y="449"/>
      <point x="460" y="365" type="curve" smooth="yes"/>
      <point x="460" y="251"/>
      <point x="385" y="122"/>
    </contour>
  </outline>
</glyph>
<glyph name="one-beng" format="2">
  <advance width="525"/>
  <unicode hex="09E7"/>
  <outline>
    <contour>
      <point x="278" y="12" type="curve" smooth="yes"/>
      <point x="394" y="12"/>
      <point x="460" y="90"/>
      <point x="460" y="199" type="curve" smooth="yes"/>
      <point x="460" y="303"/>
      <point x="392" y="353"/>
      <point x="287" y="407" type="curve" smooth="yes"/>
      <point x="197" y="453"/>
      <point x="173" y="484"/>
      <point x="173" y="515" type="curve"/>
      <point x="144" y="508" type="line"/>
      <point x="151" y="500"/>
      <point x="160" y="500"/>
      <point x="175" y="500" type="curve" smooth="yes"/>
      <point x="215" y="500"/>
      <point x="234" y="529"/>
      <point x="234" y="562" type="curve" smooth="yes"/>
      <point x="234" y="596"/>
      <point x="210" y="624"/>
      <point x="169" y="624" type="curve" smooth="yes"/>
      <point x="113" y="624"/>
      <point x="80" y="583"/>
      <point x="80" y="527" type="curve" smooth="yes"/>
      <point x="80" y="444"/>
      <point x="149" y="396"/>
      <point x="258" y="349" type="curve" smooth="yes"/>
      <point x="371" y="300"/>
      <point x="413" y="263"/>
      <point x="413" y="194" type="curve" smooth="yes"/>
      <point x="413" y="126"/>
      <point x="362" y="86"/>
      <point x="290" y="86" type="curve" smooth="yes"/>
      <point x="261" y="86"/>
      <point x="240" y="95"/>
      <point x="226" y="113" type="curve"/>
      <point x="202" y="93" type="line"/>
      <point x="214" y="88"/>
      <point x="227" y="86"/>
      <point x="235" y="86" type="curve" smooth="yes"/>
      <point x="271" y="86"/>
      <point x="290" y="117"/>
      <point x="290" y="152" type="curve" smooth="yes"/>
      <point x="290" y="192"/>
      <point x="263" y="222"/>
      <point x="218" y="222" type="curve" smooth="yes"/>
      <point x="166" y="222"/>
      <point x="134" y="182"/>
      <point x="134" y="130" type="curve" smooth="yes"/>
      <point x="134" y="47"/>
      <point x="200" y="12"/>
    </contour>
  </outline>
</glyph>
<glyph name="two-beng" format="2">
  <advance width="495"/>
  <unicode hex="09E8"/>
  <outline>
    <contour>
      <point x="494" y="-35" type="curve"/>
      <point x="525" y="-2" type="line"/>
      <point x="439" y="80"/>
      <point x="331" y="172"/>
      <point x="217" y="201" type="curve"/>
      <point x="217" y="168" type="line"/>
      <point x="235" y="160"/>
      <point x="255" y="161"/>
      <point x="284" y="161" type="curve" smooth="yes"/>
      <point x="384" y="161"/>
      <point x="424" y="231"/>
      <point x="424" y="296" type="curve" smooth="yes"/>
      <point x="424" y="362"/>
      <point x="389" y="409"/>
      <point x="286" y="440" type="curve" smooth="yes"/>
      <point x="187" y="470"/>
      <point x="178" y="484"/>
      <point x="178" y="515" type="curve"/>
      <point x="149" y="508" type="line"/>
      <point x="156" y="500"/>
      <point x="165" y="500"/>
      <point x="180" y="500" type="curve" smooth="yes"/>
      <point x="220" y="500"/>
      <point x="239" y="529"/>
      <point x="239" y="562" type="curve" smooth="yes"/>
      <point x="239" y="596"/>
      <point x="215" y="624"/>
      <point x="174" y="624" type="curve" smooth="yes"/>
      <point x="122" y="624"/>
      <point x="84" y="584"/>
      <point x="84" y="526" type="curve" smooth="yes"/>
      <point x="84" y="446"/>
      <point x="152" y="408"/>
      <point x="260" y="382" type="curve" smooth="yes"/>
      <point x="355" y="359"/>
      <point x="371" y="338"/>
      <point x="371" y="304" type="curve" smooth="yes"/>
      <point x="371" y="261"/>
      <point x="323" y="237"/>
      <point x="234" y="237" type="curve" smooth="yes"/>
      <point x="173" y="237"/>
      <point x="121" y="250"/>
      <point x="70" y="273" type="curve"/>
      <point x="90" y="175" type="line"/>
      <point x="257" y="137"/>
      <point x="353" y="88"/>
    </contour>
  </outline>
</glyph>
<glyph name="three-beng" format="2">
  <advance width="665"/>
  <unicode hex="09E9"/>
  <outline>
    <contour>
      <point x="382" y="47" type="curve" smooth="yes"/>
      <point x="514" y="47"/>
      <point x="595" y="139"/>
      <point x="595" y="278" type="curve" smooth="yes"/>
      <point x="595" y="413"/>
      <point x="520" y="538"/>
      <point x="367" y="538" type="curve" smooth="yes"/>
      <point x="287" y="538"/>
      <point x="240" y="491"/>
      <point x="240" y="424" type="curve" smooth="yes"/>
      <point x="240" y="366"/>
      <point x="274" y="317"/>
      <point x="342" y="317" type="curve" smooth="yes"/>
      <point x="400" y="317"/>
      <point x="434" y="357"/>
      <point x="434" y="413" type="curve" smooth="yes"/>
      <point x="434" y="449"/>
      <point x="420" y="478"/>
      <point x="405" y="493" type="curve"/>
      <point x="378" y="450" type="line"/>
      <point x="390" y="454"/>
      <point x="406" y="456"/>
      <point x="422" y="456" type="curve" smooth="yes"/>
      <point x="477" y="456"/>
      <point x="542" y="411"/>
      <point x="542" y="304" type="curve" smooth="yes"/>
      <point x="542" y="200"/>
      <point x="485" y="139"/>
      <point x="385" y="139" type="curve" smooth="yes"/>
      <point x="243" y="139"/>
      <point x="151" y="243"/>
      <point x="81" y="505" type="curve"/>
      <point x="40" y="492" type="line"/>
      <point x="109" y="186"/>
      <point x="209" y="47"/>
    </contour>
  </outline>
</glyph>
<glyph name="four-beng" format="2">
  <advance width="570"/>
  <unicode hex="09EA"/>
  <outline>
    <contour>
      <point x="290" y="6" type="curve" smooth="yes"/>
      <point x="419" y="6"/>
      <point x="490" y="79"/>
      <point x="490" y="164" type="curve" smooth="yes"/>
      <point x="490" y="250"/>
      <point x="427" y="289"/>
      <point x="341" y="337" type="curve"/>
      <point x="298" y="313" type="line"/>
      <point x="364" y="277"/>
      <point x="415" y="236"/>
      <point x="415" y="182" type="curve" smooth="yes"/>
      <point x="415" y="115"/>
      <point x="347" y="71"/>
      <point x="265" y="71" type="curve" smooth="yes"/>
      <point x="206" y="71"/>
      <point x="149" y="97"/>
      <point x="149" y="155" type="curve" smooth="yes"/>
      <point x="149" y="218"/>
      <point x="226" y="249"/>
      <point x="307" y="287" type="curve" smooth="yes"/>
      <point x="398" y="330"/>
      <point x="472" y="375"/>
      <point x="472" y="467" type="curve" smooth="yes"/>
      <point x="472" y="562"/>
      <point x="389" y="616"/>
      <point x="286" y="616" type="curve" smooth="yes"/>
      <point x="171" y="616"/>
      <point x="104" y="551"/>
      <point x="104" y="476" type="curve" smooth="yes"/>
      <point x="104" y="384"/>
      <point x="186" y="346"/>
      <point x="234" y="315" type="curve"/>
      <point x="279" y="333" type="line"/>
      <point x="220" y="371"/>
      <point x="188" y="415"/>
      <point x="188" y="465" type="curve" smooth="yes"/>
      <point x="188" y="522"/>
      <point x="237" y="554"/>
      <point x="307" y="554" type="curve" smooth="yes"/>
      <point x="364" y="554"/>
      <point x="408" y="532"/>
      <point x="408" y="484" type="curve" smooth="yes"/>
      <point x="408" y="434"/>
      <point x="352" y="401"/>
      <point x="281" y="368" type="curve" smooth="yes"/>
      <point x="186" y="324"/>
      <point x="80" y="281"/>
      <point x="80" y="176" type="curve" smooth="yes"/>
      <point x="80" y="68"/>
      <point x="181" y="6"/>
    </contour>
  </outline>
</glyph>
<glyph name="six-beng" format="2">
  <advance width="677"/>
  <unicode hex="09EC"/>
  <outline>
    <contour>
      <point x="400" y="10" type="curve" smooth="yes"/>
      <point x="534" y="10"/>
      <point x="607" y="101"/>
      <point x="607" y="222" type="curve" smooth="yes"/>
      <point x="607" y="319"/>
      <point x="573" y="386"/>
      <point x="515" y="437" type="curve"/>
      <point x="476" y="375"/>
      <point x="429" y="314"/>
      <point x="370" y="314" type="curve" smooth="yes"/>
      <point x="349" y="314"/>
      <point x="338" y="324"/>
      <point x="338" y="342" type="curve" smooth="yes"/>
      <point x="338" y="532" type="line" smooth="yes"/>
      <point x="338" y="592"/>
      <point x="309" y="624"/>
      <point x="261" y="624" type="curve" smooth="yes"/>
      <point x="219" y="624"/>
      <point x="195" y="594"/>
      <point x="195" y="558" type="curve" smooth="yes"/>
      <point x="195" y="524"/>
      <point x="219" y="497"/>
      <point x="257" y="497" type="curve" smooth="yes"/>
      <point x="292" y="497"/>
      <point x="305" y="517"/>
      <point x="309" y="545" type="curve"/>
      <point x="284" y="545" type="line"/>
      <point x="284" y="345" type="line" smooth="yes"/>
      <point x="284" y="311"/>
      <point x="294" y="285"/>
      <point x="316" y="265" type="curve" smooth="yes"/>
      <point x="334" y="248"/>
      <point x="361" y="235"/>
      <point x="392" y="235" type="curve" smooth="yes"/>
      <point x="452" y="235"/>
      <point x="509" y="282"/>
      <point x="553" y="349" type="curve"/>
      <point x="516" y="343" type="line"/>
      <point x="543" y="325"/>
      <point x="556" y="299"/>
      <point x="556" y="244" type="curve" smooth="yes"/>
      <point x="556" y="158"/>
      <point x="498" y="101"/>
      <point x="401" y="101" type="curve" smooth="yes"/>
      <point x="251" y="101"/>
      <point x="169" y="207"/>
      <point x="102" y="471" type="curve"/>
      <point x="60" y="460" type="line"/>
      <point x="126" y="147"/>
      <point x="238" y="10"/>
    </contour>
  </outline>
</glyph>
<glyph name="seven-beng" format="2">
  <advance width="544"/>
  <unicode hex="09ED"/>
  <outline>
    <contour>
      <point x="442" y="0" type="curve" smooth="yes"/>
      <point x="484" y="0"/>
      <point x="504" y="26"/>
      <point x="504" y="62" type="curve" smooth="yes"/>
      <point x="504" y="100"/>
      <point x="479" y="127"/>
      <point x="441" y="127" type="curve" smooth="yes"/>
      <point x="406" y="127"/>
      <point x="393" y="107"/>
      <point x="389" y="79" type="curve"/>
      <point x="417" y="79" type="line"/>
      <point x="417" y="480" type="line" smooth="yes"/>
      <point x="417" y="555"/>
      <point x="372" y="622"/>
      <point x="274" y="622" type="curve" smooth="yes"/>
      <point x="154" y="622"/>
      <point x="65" y="537"/>
      <point x="65" y="430" type="curve" smooth="yes"/>
      <point x="65" y="282"/>
      <point x="185" y="235"/>
      <point x="273" y="235" type="curve" smooth="yes"/>
      <point x="317" y="235"/>
      <point x="350" y="251"/>
      <point x="378" y="265" type="curve"/>
      <point x="388" y="359" type="line"/>
      <point x="350" y="331"/>
      <point x="295" y="311"/>
      <point x="240" y="311" type="curve" smooth="yes"/>
      <point x="166" y="311"/>
      <point x="131" y="344"/>
      <point x="131" y="397" type="curve" smooth="yes"/>
      <point x="131" y="483"/>
      <point x="235" y="559"/>
      <point x="300" y="559" type="curve" smooth="yes"/>
      <point x="346" y="559"/>
      <point x="363" y="538"/>
      <point x="363" y="494" type="curve" smooth="yes"/>
      <point x="363" y="102" type="line" smooth="yes"/>
      <point x="363" y="42"/>
      <point x="394" y="0"/>
    </contour>
  </outline>
</glyph>
<glyph name="nine-beng" format="2">
  <advance width="577"/>
  <unicode hex="09EF"/>
  <outline>
    <contour>
      <point x="315" y="18" type="line"/>
      <point x="415" y="30"/>
      <point x="512" y="110"/>
      <point x="512" y="242" type="curve" smooth="yes"/>
      <point x="512" y="339"/>
      <point x="454" y="395"/>
      <point x="320" y="439" type="curve" smooth="yes"/>
      <point x="220" y="472"/>
      <point x="211" y="484"/>
      <point x="211" y="515" type="curve"/>
      <point x="182" y="508" type="line"/>
      <point x="189" y="500"/>
      <point x="198" y="500"/>
      <point x="213" y="500" type="curve" smooth="yes"/>
      <point x="253" y="500"/>
      <point x="272" y="529"/>
      <point x="272" y="562" type="curve" smooth="yes"/>
      <point x="272" y="596"/>
      <point x="248" y="624"/>
      <point x="207" y="624" type="curve" smooth="yes"/>
      <point x="155" y="624"/>
      <point x="117" y="584"/>
      <point x="117" y="526" type="curve" smooth="yes"/>
      <point x="117" y="445"/>
      <point x="176" y="411"/>
      <point x="302" y="377" type="curve" smooth="yes"/>
      <point x="433" y="342"/>
      <point x="462" y="290"/>
      <point x="462" y="223" type="curve" smooth="yes"/>
      <point x="462" y="148"/>
      <point x="415" y="107"/>
      <point x="360" y="103" type="curve"/>
      <point x="385" y="86" type="line"/>
      <point x="386" y="199"/>
      <point x="344" y="315"/>
      <point x="218" y="315" type="curve" smooth="yes"/>
      <point x="122" y="315"/>
      <point x="70" y="243"/>
      <point x="70" y="162" type="curve" smooth="yes"/>
      <point x="70" y="72"/>
      <point x="119" y="26"/>
      <point x="181" y="26" type="curve" smooth="yes"/>
      <point x="229" y="26"/>
      <point x="251" y="60"/>
      <point x="251" y="95" type="curve" smooth="yes"/>
      <point x="251" y="133"/>
      <point x="222" y="158"/>
      <point x="187" y="158" type="curve" smooth="yes"/>
      <point x="154" y="158"/>
      <point x="125" y="135"/>
      <point x="124" y="107" type="curve"/>
      <point x="164" y="109" type="line"/>
      <point x="141" y="117"/>
      <point x="123" y="137"/>
      <point x="123" y="177" type="curve" smooth="yes"/>
      <point x="123" y="217"/>
      <point x="152" y="251"/>
      <point x="202" y="251" type="curve" smooth="yes"/>
      <point x="282" y="251"/>
      <point x="311" y="161"/>
      <point x="311" y="73" type="curve" smooth="yes"/>
      <point x="311" y="55"/>
      <point x="310" y="38"/>
      <point x="308" y="22" type="curve"/>
    </contour>
  </outline>
</glyph>
<glyph name="oneNumr-beng" format="2">
  <advance width="496"/>
  <unicode hex="09F4"/>
  <outline>
    <contour>
      <point x="103" y="7" type="line"/>
      <point x="248" y="105"/>
      <point x="386" y="264"/>
      <point x="446" y="541" type="curve"/>
      <point x="403" y="548" type="line"/>
      <point x="329" y="296"/>
      <point x="184" y="163"/>
      <point x="30" y="71" type="curve"/>
    </contour>
  </outline>
</glyph>
<glyph name="twoNumr-beng" format="2">
  <advance width="632"/>
  <unicode hex="09F5"/>
  <outline>
    <contour>
      <point x="223" y="11" type="line"/>
      <point x="368" y="99"/>
      <point x="496" y="284"/>
      <point x="557" y="625" type="curve"/>
      <point x="514" y="637" type="line"/>
      <point x="466" y="433"/>
      <point x="393" y="288"/>
      <point x="306" y="199" type="curve"/>
      <point x="326" y="162" type="line"/>
      <point x="332" y="176"/>
      <point x="334" y="193"/>
      <point x="334" y="209" type="curve" smooth="yes"/>
      <point x="334" y="333"/>
      <point x="249" y="392"/>
      <point x="161" y="392" type="curve" smooth="yes"/>
      <point x="80" y="392"/>
      <point x="35" y="338"/>
      <point x="35" y="280" type="curve" smooth="yes"/>
      <point x="35" y="223"/>
      <point x="68" y="195"/>
      <point x="112" y="195" type="curve" smooth="yes"/>
      <point x="158" y="195"/>
      <point x="184" y="227"/>
      <point x="184" y="263" type="curve" smooth="yes"/>
      <point x="184" y="293"/>
      <point x="172" y="311"/>
      <point x="147" y="325" type="curve"/>
      <point x="134" y="305" type="line"/>
      <point x="145" y="314"/>
      <point x="173" y="322"/>
      <point x="190" y="322" type="curve" smooth="yes"/>
      <point x="244" y="322"/>
      <point x="271" y="288"/>
      <point x="271" y="235" type="curve" smooth="yes"/>
      <point x="271" y="158"/>
      <point x="217" y="113"/>
      <point x="150" y="78" type="curve"/>
    </contour>
  </outline>
</glyph>
<glyph name="fourNumr-beng" format="2">
  <advance width="350"/>
  <unicode hex="09F7"/>
  <outline>
    <contour>
      <point x="228" y="0" type="curve" smooth="yes"/>
      <point x="270" y="0"/>
      <point x="290" y="26"/>
      <point x="290" y="62" type="curve" smooth="yes"/>
      <point x="290" y="100"/>
      <point x="265" y="127"/>
      <point x="227" y="127" type="curve" smooth="yes"/>
      <point x="192" y="127"/>
      <point x="179" y="107"/>
      <point x="175" y="79" type="curve"/>
      <point x="203" y="79" type="line"/>
      <point x="203" y="532" type="line" smooth="yes"/>
      <point x="203" y="592"/>
      <point x="174" y="624"/>
      <point x="126" y="624" type="curve" smooth="yes"/>
      <point x="84" y="624"/>
      <point x="60" y="594"/>
      <point x="60" y="558" type="curve" smooth="yes"/>
      <point x="60" y="524"/>
      <point x="84" y="497"/>
      <point x="122" y="497" type="curve" smooth="yes"/>
      <point x="157" y="497"/>
      <point x="170" y="517"/>
      <point x="174" y="545" type="curve"/>
      <point x="149" y="545" type="line"/>
      <point x="149" y="102" type="line" smooth="yes"/>
      <point x="149" y="42"/>
      <point x="180" y="0"/>
    </contour>
  </outline>
</glyph>
<glyph name="isshar-beng" format="2">
  <advance width="578"/>
  <unicode hex="09FA"/>
  <outline>
    <contour>
      <point x="219" y="164" type="curve" smooth="yes"/>
      <point x="334" y="164"/>
      <point x="430" y="251"/>
      <point x="529" y="495" type="curve"/>
      <point x="489" y="507" type="line"/>
      <point x="391" y="301"/>
      <point x="300" y="256"/>
      <point x="223" y="256" type="curve" smooth="yes"/>
      <point x="133" y="256"/>
      <point x="97" y="320"/>
      <point x="97" y="417" type="curve" smooth="yes"/>
      <point x="97" y="425"/>
      <point x="98" y="433"/>
      <point x="98" y="441" type="curve"/>
      <point x="55" y="437" type="line"/>
      <point x="51" y="412"/>
      <point x="49" y="388"/>
      <point x="49" y="365" type="curve" smooth="yes"/>
      <point x="49" y="247"/>
      <point x="106" y="164"/>
    </contour>
    <contour>
      <point x="241" y="341" type="curve" smooth="yes"/>
      <point x="270" y="341"/>
      <point x="296" y="361"/>
      <point x="296" y="397" type="curve" smooth="yes"/>
      <point x="296" y="432"/>
      <point x="271" y="454"/>
      <point x="241" y="454" type="curve" smooth="yes"/>
      <point x="208" y="454"/>
      <point x="183" y="432"/>
      <point x="183" y="397" type="curve" smooth="yes"/>
      <point x="183" y="362"/>
      <point x="209" y="341"/>
    </contour>
  </outline>
</glyph>
<glyph name="ganda-beng" format="2">
  <advance width="350"/>
  <unicode hex="09FB"/>
  <outline>
    <contour>
      <point x="315" y="-73" type="curve"/>
      <point x="345" y="-44" type="line"/>
      <point x="253" y="64"/>
      <point x="154" y="200"/>
      <point x="154" y="294" type="curve" smooth="yes"/>
      <point x="154" y="341"/>
      <point x="171" y="367"/>
      <point x="223" y="393" type="curve"/>
      <point x="186" y="475" type="line"/>
      <point x="103" y="440"/>
      <point x="70" y="396"/>
      <point x="70" y="327" type="curve" smooth="yes"/>
      <point x="70" y="206"/>
      <point x="179" y="82"/>
    </contour>
  </outline>
</glyph>
<glyph name="uni09FD" format="2">
  <advance width="482"/>
  <unicode hex="09FD"/>
  <outline>
    <contour>
      <point x="243" y="280" type="curve" smooth="yes"/>
      <point x="282" y="280"/>
      <point x="310" y="297"/>
      <point x="333" y="317" type="curve" smooth="yes"/>
      <point x="364" y="345"/>
      <point x="382" y="383"/>
      <point x="382" y="423" type="curve" smooth="yes"/>
      <point x="382" y="492"/>
      <point x="335" y="559"/>
      <point x="240" y="559" type="curve" smooth="yes"/>
      <point x="198" y="559"/>
      <point x="167" y="541"/>
      <point x="144" y="518" type="curve" smooth="yes"/>
      <point x="116" y="490"/>
      <point x="100" y="454"/>
      <point x="100" y="415" type="curve" smooth="yes"/>
      <point x="100" y="345"/>
      <point x="148" y="280"/>
    </contour>
    <contour>
      <point x="245" y="319" type="curve" smooth="yes"/>
      <point x="184" y="319"/>
      <point x="152" y="369"/>
      <point x="152" y="420" type="curve" smooth="yes"/>
      <point x="152" y="470"/>
      <point x="180" y="521"/>
      <point x="239" y="521" type="curve" smooth="yes"/>
      <point x="300" y="521"/>
      <point x="332" y="471"/>
      <point x="332" y="420" type="curve" smooth="yes"/>
      <point x="332" y="370"/>
      <point x="304" y="319"/>
    </contour>
  </outline>
</glyph>
<glyph name="uni09FE" format="2">
  <unicode hex="09FE"/>
  <outline>
    <contour>
      <point x="137" y="866" type="curve"/>
      <point x="158" y="890" type="line"/>
      <point x="110" y="933"/>
      <point x="34" y="978"/>
      <point x="-32" y="991" type="curve"/>
      <point x="-63" y="974" type="line"/>
      <point x="-50" y="968"/>
      <point x="-30" y="965"/>
      <point x="-9" y="965" type="curve" smooth="yes"/>
      <point x="54" y="965"/>
      <point x="108" y="1004"/>
      <point x="108" y="1066" type="curve" smooth="yes"/>
      <point x="108" y="1116"/>
      <point x="72" y="1161"/>
      <point x="-22" y="1161" type="curve" smooth="yes"/>
      <point x="-72" y="1161"/>
      <point x="-107" y="1143"/>
      <point x="-107" y="1108" type="curve" smooth="yes"/>
      <point x="-107" y="1079"/>
      <point x="-87" y="1057"/>
      <point x="-51" y="1057" type="curve" smooth="yes"/>
      <point x="-9" y="1057"/>
      <point x="3" y="1081"/>
      <point x="3" y="1118" type="curve" smooth="yes"/>
      <point x="3" y="1152"/>
      <point x="-30" y="1198"/>
      <point x="-57" y="1212" type="curve"/>
      <point x="-179" y="1212" type="line"/>
      <point x="-161" y="1177" type="line"/>
      <point x="-63" y="1177" type="line"/>
      <point x="-71" y="1190" type="line"/>
      <point x="-97" y="1191" type="line"/>
      <point x="-70" y="1181"/>
      <point x="-44" y="1162"/>
      <point x="-37" y="1135" type="curve"/>
      <point x="-39" y="1101" type="line"/>
      <point x="-28" y="1110"/>
      <point x="-8" y="1118"/>
      <point x="15" y="1118" type="curve" smooth="yes"/>
      <point x="53" y="1118"/>
      <point x="71" y="1099"/>
      <point x="71" y="1072" type="curve" smooth="yes"/>
      <point x="71" y="1035"/>
      <point x="37" y="1016"/>
      <point x="-23" y="1016" type="curve" smooth="yes"/>
      <point x="-57" y="1016"/>
      <point x="-86" y="1019"/>
      <point x="-115" y="1028" type="curve"/>
      <point x="-103" y="968" type="line"/>
      <point x="-7" y="955"/>
      <point x="57" y="930"/>
    </contour>
  </outline>
</glyph>
<glyph name="uni1CD2" format="2">
  <unicode hex="1CD2"/>
  <note>
uni1CD2
</note>
  <anchor x="-299" y="-250" name="_vedic"/>
  <outline>
    <contour>
      <point x="-443" y="757" type="line"/>
      <point x="-118" y="757" type="line"/>
      <point x="-154" y="809" type="line"/>
      <point x="-478" y="809" type="line"/>
    </contour>
  </outline>
</glyph>
<glyph name="uni1CD5" format="2">
  <unicode hex="1CD5"/>
  <note>
uni1CD5
</note>
  <anchor x="-299" y="370" name="_vedic"/>
  <outline>
    <contour>
      <point x="-365" y="-285" type="curve" smooth="yes"/>
      <point x="-303" y="-285"/>
      <point x="-253" y="-241"/>
      <point x="-253" y="-180" type="curve" smooth="yes"/>
      <point x="-253" y="-127" type="line"/>
      <point x="-322" y="-97" type="line"/>
      <point x="-322" y="-155" type="line" smooth="yes"/>
      <point x="-322" y="-211"/>
      <point x="-359" y="-238"/>
      <point x="-393" y="-238" type="curve" smooth="yes"/>
      <point x="-416" y="-238"/>
      <point x="-440" y="-223"/>
      <point x="-440" y="-193" type="curve" smooth="yes"/>
      <point x="-440" y="-172"/>
      <point x="-430" y="-145"/>
      <point x="-405" y="-110" type="curve"/>
      <point x="-477" y="-65" type="line"/>
      <point x="-496" y="-92"/>
      <point x="-511" y="-127"/>
      <point x="-511" y="-156" type="curve" smooth="yes"/>
      <point x="-511" y="-226"/>
      <point x="-442" y="-285"/>
    </contour>
    <contour>
      <point x="-189" y="-286" type="curve" smooth="yes"/>
      <point x="-121" y="-286"/>
      <point x="-84" y="-241"/>
      <point x="-84" y="-183" type="curve" smooth="yes"/>
      <point x="-84" y="-141"/>
      <point x="-108" y="-100"/>
      <point x="-138" y="-68" type="curve"/>
      <point x="-169" y="-92" type="line"/>
      <point x="-147" y="-117"/>
      <point x="-138" y="-141"/>
      <point x="-138" y="-165" type="curve" smooth="yes"/>
      <point x="-138" y="-202"/>
      <point x="-165" y="-230"/>
      <point x="-204" y="-230" type="curve" smooth="yes"/>
      <point x="-242" y="-230"/>
      <point x="-268" y="-214"/>
      <point x="-289" y="-182" type="curve"/>
      <point x="-312" y="-198" type="line"/>
      <point x="-286" y="-254"/>
      <point x="-243" y="-286"/>
    </contour>
  </outline>
</glyph>
<glyph name="uni1CD8" format="2">
  <unicode hex="1CD8"/>
  <note>
uni1CD8
</note>
  <anchor x="-299" y="370" name="_vedic"/>
  <outline>
    <contour>
      <point x="-297" y="-249" type="curve" smooth="yes"/>
      <point x="-205" y="-249"/>
      <point x="-142" y="-203"/>
      <point x="-117" y="-85" type="curve"/>
      <point x="-176" y="-68" type="line"/>
      <point x="-197" y="-156"/>
      <point x="-233" y="-194"/>
      <point x="-310" y="-194" type="curve" smooth="yes"/>
      <point x="-387" y="-194"/>
      <point x="-427" y="-147"/>
      <point x="-446" y="-66" type="curve"/>
      <point x="-479" y="-75" type="line"/>
      <point x="-458" y="-189"/>
      <point x="-400" y="-249"/>
    </contour>
  </outline>
</glyph>
<glyph name="uni1CE1" format="2">
  <advance width="517"/>
  <unicode hex="1CE1"/>
  <note>
uni1CE1
</note>
  <outline>
    <contour>
      <point x="156" y="-163" type="curve" smooth="yes"/>
      <point x="247" y="-163"/>
      <point x="305" y="-113"/>
      <point x="305" y="30" type="curve" smooth="yes"/>
      <point x="305" y="176"/>
      <point x="255" y="416"/>
      <point x="255" y="622" type="curve" smooth="yes"/>
      <point x="255" y="740"/>
      <point x="299" y="763"/>
      <point x="337" y="763" type="curve" smooth="yes"/>
      <point x="380" y="763"/>
      <point x="416" y="736"/>
      <point x="447" y="694" type="curve"/>
      <point x="477" y="709" type="line"/>
      <point x="435" y="799"/>
      <point x="389" y="836"/>
      <point x="322" y="836" type="curve" smooth="yes"/>
      <point x="239" y="836"/>
      <point x="189" y="772"/>
      <point x="189" y="656" type="curve" smooth="yes"/>
      <point x="189" y="491"/>
      <point x="239" y="292"/>
      <point x="239" y="79" type="curve" smooth="yes"/>
      <point x="239" y="-59"/>
      <point x="187" y="-90"/>
      <point x="125" y="-90" type="curve" smooth="yes"/>
      <point x="87" y="-90"/>
      <point x="47" y="-84"/>
      <point x="6" y="-52" type="curve"/>
      <point x="0" y="-70" type="line"/>
      <point x="23" y="-122"/>
      <point x="81" y="-163"/>
    </contour>
  </outline>
</glyph>
<glyph name="uni1CEA" format="2">
  <advance width="756"/>
  <unicode hex="1CEA"/>
  <note>
uni1CEA
</note>
  <anchor x="378" y="0" name="vedic"/>
  <outline>
    <contour>
      <point x="403" y="-5" type="curve" smooth="yes"/>
      <point x="568" y="-5"/>
      <point x="660" y="71"/>
      <point x="660" y="161" type="curve" smooth="yes"/>
      <point x="660" y="307"/>
      <point x="515" y="357"/>
      <point x="515" y="472" type="curve" smooth="yes"/>
      <point x="515" y="534"/>
      <point x="567" y="572"/>
      <point x="625" y="572" type="curve" smooth="yes"/>
      <point x="655" y="572"/>
      <point x="668" y="555"/>
      <point x="668" y="537" type="curve" smooth="yes"/>
      <point x="668" y="498"/>
      <point x="613" y="472"/>
      <point x="569" y="467" type="curve"/>
      <point x="603" y="393" type="line"/>
      <point x="680" y="407"/>
      <point x="727" y="442"/>
      <point x="727" y="497" type="curve" smooth="yes"/>
      <point x="727" y="570"/>
      <point x="659" y="633"/>
      <point x="586" y="633" type="curve" smooth="yes"/>
      <point x="500" y="633"/>
      <point x="433" y="583"/>
      <point x="433" y="495" type="curve" smooth="yes"/>
      <point x="433" y="374"/>
      <point x="580" y="325"/>
      <point x="580" y="200" type="curve" smooth="yes"/>
      <point x="580" y="114"/>
      <point x="510" y="62"/>
      <point x="377" y="62" type="curve" smooth="yes"/>
      <point x="249" y="62"/>
      <point x="171" y="92"/>
      <point x="171" y="168" type="curve" smooth="yes"/>
      <point x="171" y="273"/>
      <point x="353" y="326"/>
      <point x="353" y="458" type="curve" smooth="yes"/>
      <point x="353" y="539"/>
      <point x="261" y="629"/>
      <point x="183" y="629" type="curve" smooth="yes"/>
      <point x="101" y="629"/>
      <point x="58" y="581"/>
      <point x="58" y="526" type="curve" smooth="yes"/>
      <point x="58" y="476"/>
      <point x="94" y="419"/>
      <point x="167" y="388" type="curve"/>
      <point x="184" y="412" type="line"/>
      <point x="148" y="432"/>
      <point x="133" y="458"/>
      <point x="133" y="483" type="curve" smooth="yes"/>
      <point x="133" y="524"/>
      <point x="172" y="561"/>
      <point x="225" y="561" type="curve" smooth="yes"/>
      <point x="262" y="561"/>
      <point x="282" y="541"/>
      <point x="282" y="504" type="curve" smooth="yes"/>
      <point x="282" y="360"/>
      <point x="102" y="353"/>
      <point x="102" y="216" type="curve" smooth="yes"/>
      <point x="102" y="84"/>
      <point x="252" y="-5"/>
    </contour>
  </outline>
</glyph>
<glyph name="uni1CF2" format="2">
  <advance width="486"/>
  <unicode hex="1CF2"/>
  <note>
uni1CF2
</note>
  <anchor x="-194" y="0" name="vedic"/>
  <outline>
    <contour>
      <point x="247" y="307" type="curve" smooth="yes"/>
      <point x="349" y="307"/>
      <point x="429" y="363"/>
      <point x="447" y="481" type="curve"/>
      <point x="377" y="500" type="line"/>
      <point x="365" y="408"/>
      <point x="312" y="372"/>
      <point x="235" y="372" type="curve" smooth="yes"/>
      <point x="150" y="372"/>
      <point x="96" y="421"/>
      <point x="79" y="500" type="curve"/>
      <point x="39" y="489" type="line"/>
      <point x="62" y="375"/>
      <point x="134" y="307"/>
    </contour>
    <contour>
      <point x="109" y="62" type="line"/>
      <point x="121" y="153"/>
      <point x="175" y="190"/>
      <point x="251" y="190" type="curve" smooth="yes"/>
      <point x="336" y="190"/>
      <point x="391" y="140"/>
      <point x="407" y="62" type="curve"/>
      <point x="447" y="73" type="line"/>
      <point x="424" y="186"/>
      <point x="353" y="254"/>
      <point x="239" y="254" type="curve" smooth="yes"/>
      <point x="137" y="254"/>
      <point x="57" y="199"/>
      <point x="39" y="81" type="curve"/>
    </contour>
  </outline>
</glyph>
<glyph name="uni1CF5" format="2">
  <advance width="443"/>
  <unicode hex="1CF5"/>
  <outline>
    <contour>
      <point x="387" y="451" type="line"/>
      <point x="350" y="480" type="line"/>
      <point x="229" y="328" type="line"/>
      <point x="105" y="480" type="line"/>
      <point x="50" y="440" type="line"/>
      <point x="185" y="277" type="line"/>
      <point x="57" y="120" type="line"/>
      <point x="94" y="91" type="line"/>
      <point x="216" y="244" type="line"/>
      <point x="337" y="94" type="line"/>
      <point x="393" y="134" type="line"/>
      <point x="260" y="294" type="line"/>
    </contour>
  </outline>
</glyph>
<glyph name="uni1CF6" format="2">
  <advance width="571"/>
  <unicode hex="1CF6"/>
  <note>
uni1CF6
</note>
  <outline>
    <contour>
      <point x="205" y="134" type="curve" smooth="yes"/>
      <point x="275" y="134"/>
      <point x="328" y="195"/>
      <point x="328" y="307" type="curve" smooth="yes"/>
      <point x="328" y="401" type="line"/>
      <point x="255" y="423" type="line"/>
      <point x="255" y="302" type="line" smooth="yes"/>
      <point x="255" y="207"/>
      <point x="222" y="185"/>
      <point x="183" y="185" type="curve" smooth="yes"/>
      <point x="150" y="185"/>
      <point x="118" y="205"/>
      <point x="118" y="275" type="curve" smooth="yes"/>
      <point x="118" y="331"/>
      <point x="140" y="372"/>
      <point x="167" y="410" type="curve"/>
      <point x="92" y="458" type="line"/>
      <point x="70" y="428"/>
      <point x="46" y="385"/>
      <point x="46" y="323" type="curve" smooth="yes"/>
      <point x="46" y="201"/>
      <point x="121" y="134"/>
    </contour>
    <contour>
      <point x="400" y="134" type="curve" smooth="yes"/>
      <point x="474" y="134"/>
      <point x="525" y="180"/>
      <point x="525" y="271" type="curve" smooth="yes"/>
      <point x="525" y="360"/>
      <point x="475" y="418"/>
      <point x="435" y="455" type="curve"/>
      <point x="402" y="430" type="line"/>
      <point x="426" y="400"/>
      <point x="455" y="356"/>
      <point x="455" y="288" type="curve" smooth="yes"/>
      <point x="455" y="213"/>
      <point x="420" y="191"/>
      <point x="383" y="191" type="curve" smooth="yes"/>
      <point x="342" y="191"/>
      <point x="313" y="214"/>
      <point x="290" y="249" type="curve"/>
      <point x="265" y="231" type="line"/>
      <point x="293" y="168"/>
      <point x="340" y="134"/>
    </contour>
  </outline>
</glyph>
<glyph name="uni1CF7" format="2">
  <advance width="517"/>
  <unicode hex="1CF7"/>
  <note>
uni1CE1
</note>
  <outline>
    <contour>
      <point x="286" y="-163" type="line"/>
      <point x="298" y="-100"/>
      <point x="305" y="-46"/>
      <point x="305" y="35" type="curve" smooth="yes"/>
      <point x="305" y="219"/>
      <point x="236" y="418"/>
      <point x="236" y="619" type="curve" smooth="yes"/>
      <point x="236" y="731"/>
      <point x="280" y="763"/>
      <point x="333" y="763" type="curve" smooth="yes"/>
      <point x="380" y="763"/>
      <point x="416" y="736"/>
      <point x="447" y="694" type="curve"/>
      <point x="477" y="709" type="line"/>
      <point x="436" y="797"/>
      <point x="389" y="836"/>
      <point x="319" y="836" type="curve" smooth="yes"/>
      <point x="222" y="836"/>
      <point x="170" y="761"/>
      <point x="170" y="655" type="curve" smooth="yes"/>
      <point x="170" y="462"/>
      <point x="239" y="324"/>
      <point x="239" y="75" type="curve" smooth="yes"/>
      <point x="239" y="-10"/>
      <point x="228" y="-88"/>
      <point x="208" y="-154" type="curve"/>
    </contour>
  </outline>
</glyph>
<glyph name="quoteleft" format="2">
  <advance width="246"/>
  <unicode hex="2018"/>
  <outline>
    <contour>
      <point x="130" y="437" type="curve" smooth="yes"/>
      <point x="166" y="437"/>
      <point x="193" y="457"/>
      <point x="193" y="494" type="curve" smooth="yes"/>
      <point x="193" y="552"/>
      <point x="121" y="544"/>
      <point x="121" y="583" type="curve" smooth="yes"/>
      <point x="121" y="622"/>
      <point x="150" y="654"/>
      <point x="215" y="675" type="curve"/>
      <point x="215" y="715" type="line"/>
      <point x="100" y="681"/>
      <point x="56" y="605"/>
      <point x="56" y="522" type="curve" smooth="yes"/>
      <point x="56" y="467"/>
      <point x="91" y="437"/>
    </contour>
  </outline>
</glyph>
<glyph name="quotedblleft" format="2">
  <advance width="442"/>
  <unicode hex="201C"/>
  <outline>
    <contour>
      <point x="326" y="437" type="curve" smooth="yes"/>
      <point x="361" y="437"/>
      <point x="388" y="457"/>
      <point x="388" y="494" type="curve" smooth="yes"/>
      <point x="388" y="552"/>
      <point x="316" y="544"/>
      <point x="316" y="583" type="curve" smooth="yes"/>
      <point x="316" y="622"/>
      <point x="346" y="654"/>
      <point x="411" y="675" type="curve"/>
      <point x="411" y="715" type="line"/>
      <point x="295" y="681"/>
      <point x="251" y="605"/>
      <point x="251" y="522" type="curve" smooth="yes"/>
      <point x="251" y="467"/>
      <point x="286" y="437"/>
    </contour>
    <contour>
      <point x="130" y="437" type="curve" smooth="yes"/>
      <point x="166" y="437"/>
      <point x="193" y="457"/>
      <point x="193" y="494" type="curve" smooth="yes"/>
      <point x="193" y="552"/>
      <point x="121" y="544"/>
      <point x="121" y="583" type="curve" smooth="yes"/>
      <point x="121" y="622"/>
      <point x="150" y="654"/>
      <point x="215" y="675" type="curve"/>
      <point x="215" y="715" type="line"/>
      <point x="100" y="681"/>
      <point x="56" y="605"/>
      <point x="56" y="522" type="curve" smooth="yes"/>
      <point x="56" y="467"/>
      <point x="91" y="437"/>
    </contour>
  </outline>
</glyph>
<glyph name="ellipsis" format="2">
  <advance width="858"/>
  <unicode hex="2026"/>
  <outline>
    <contour>
      <point x="735" y="-7" type="curve" smooth="yes"/>
      <point x="768" y="-7"/>
      <point x="795" y="9"/>
      <point x="795" y="59" type="curve" smooth="yes"/>
      <point x="795" y="108"/>
      <point x="768" y="124"/>
      <point x="735" y="124" type="curve" smooth="yes"/>
      <point x="703" y="124"/>
      <point x="676" y="108"/>
      <point x="676" y="59" type="curve" smooth="yes"/>
      <point x="676" y="9"/>
      <point x="703" y="-7"/>
    </contour>
    <contour>
      <point x="177" y="-7" type="curve" smooth="yes"/>
      <point x="208" y="-7"/>
      <point x="236" y="9"/>
      <point x="236" y="59" type="curve" smooth="yes"/>
      <point x="236" y="108"/>
      <point x="208" y="124"/>
      <point x="177" y="124" type="curve" smooth="yes"/>
      <point x="144" y="124"/>
      <point x="117" y="108"/>
      <point x="117" y="59" type="curve" smooth="yes"/>
      <point x="117" y="9"/>
      <point x="144" y="-7"/>
    </contour>
    <contour>
      <point x="457" y="-7" type="curve" smooth="yes"/>
      <point x="488" y="-7"/>
      <point x="516" y="9"/>
      <point x="516" y="59" type="curve" smooth="yes"/>
      <point x="516" y="108"/>
      <point x="488" y="124"/>
      <point x="457" y="124" type="curve" smooth="yes"/>
      <point x="423" y="124"/>
      <point x="397" y="108"/>
      <point x="397" y="59" type="curve" smooth="yes"/>
      <point x="397" y="9"/>
      <point x="423" y="-7"/>
    </contour>
  </outline>
</glyph>
<glyph name="uniA8F1" format="2">
  <unicode hex="A8F1"/>
  <note>
uniA8F1
</note>
  <outline>
    <contour>
      <point x="-93" y="930" type="curve" smooth="yes"/>
      <point x="-48" y="930"/>
      <point x="-24" y="957"/>
      <point x="-24" y="995" type="curve" smooth="yes"/>
      <point x="-24" y="1072"/>
      <point x="-131" y="1102"/>
      <point x="-131" y="1147" type="curve" smooth="yes"/>
      <point x="-131" y="1165"/>
      <point x="-121" y="1174"/>
      <point x="-101" y="1174" type="curve" smooth="yes"/>
      <point x="-35" y="1174" type="line"/>
      <point x="-35" y="1180" type="line"/>
      <point x="-52" y="1213" type="line"/>
      <point x="-116" y="1213" type="line" smooth="yes"/>
      <point x="-156" y="1213"/>
      <point x="-187" y="1195"/>
      <point x="-187" y="1159" type="curve" smooth="yes"/>
      <point x="-187" y="1093"/>
      <point x="-79" y="1065"/>
      <point x="-79" y="1007" type="curve" smooth="yes"/>
      <point x="-79" y="986"/>
      <point x="-91" y="975"/>
      <point x="-117" y="975" type="curve" smooth="yes"/>
      <point x="-150" y="975"/>
      <point x="-179" y="1002"/>
      <point x="-206" y="1051" type="curve"/>
      <point x="-235" y="1037" type="line"/>
      <point x="-198" y="965"/>
      <point x="-153" y="930"/>
    </contour>
  </outline>
</glyph>
<glyph name="aaMatra-beng.fina" format="2">
  <advance width="194"/>
  <outline>
    <contour>
      <point x="131" y="-25" type="line"/>
      <point x="134" y="-24" type="line"/>
      <point x="134" y="665" type="line"/>
      <point x="84" y="698" type="line"/>
      <point x="80" y="697" type="line"/>
      <point x="80" y="618" type="line" smooth="yes"/>
      <point x="80" y="600"/>
      <point x="84" y="545"/>
      <point x="88" y="498" type="curve"/>
      <point x="94" y="501" type="line"/>
      <point x="85" y="587"/>
      <point x="43" y="622"/>
      <point x="9" y="622" type="curve" smooth="yes"/>
      <point x="-29" y="622" type="line"/>
      <point x="4" y="570" type="line"/>
      <point x="11" y="570" type="line" smooth="yes"/>
      <point x="50" y="570"/>
      <point x="69" y="526"/>
      <point x="80" y="472" type="curve"/>
      <point x="80" y="3" type="line"/>
    </contour>
  </outline>
</glyph>
<glyph name="aiMatra-beng.init" format="2">
  <advance width="389"/>
  <outline>
    <contour>
      <point x="326" y="612" type="curve"/>
      <point x="369" y="612" type="line"/>
      <point x="357" y="739"/>
      <point x="318" y="805"/>
      <point x="225" y="805" type="curve" smooth="yes"/>
      <point x="189" y="805"/>
      <point x="155" y="796"/>
      <point x="109" y="796" type="curve" smooth="yes"/>
      <point x="36" y="796"/>
      <point x="3" y="810"/>
      <point x="3" y="888" type="curve" smooth="yes"/>
      <point x="3" y="895"/>
      <point x="3" y="904"/>
      <point x="4" y="913" type="curve"/>
      <point x="-37" y="917" type="line"/>
      <point x="-40" y="899"/>
      <point x="-41" y="883"/>
      <point x="-41" y="867" type="curve" smooth="yes"/>
      <point x="-41" y="768"/>
      <point x="7" y="710"/>
      <point x="102" y="710" type="curve" smooth="yes"/>
      <point x="157" y="710"/>
      <point x="203" y="720"/>
      <point x="240" y="720" type="curve" smooth="yes"/>
      <point x="291" y="720"/>
      <point x="316" y="687"/>
    </contour>
    <component base="eMatra-beng.init"/>
  </outline>
</glyph>
<glyph name="assastroke" format="2">
  <advance width="511"/>
  <anchor x="204" y="68" name="_nukta"/>
  <outline>
    <contour>
      <point x="308" y="-44" type="curve"/>
      <point x="335" y="-23" type="line"/>
      <point x="284" y="57"/>
      <point x="209" y="149"/>
      <point x="96" y="154" type="curve"/>
      <point x="125" y="72" type="line"/>
      <point x="213" y="61"/>
      <point x="258" y="18"/>
    </contour>
  </outline>
</glyph>
<glyph name="auLength-beng.fina" format="2">
  <advance width="194"/>
  <anchor x="285" y="596" name="top"/>
  <anchor x="-50" y="620" name="topright"/>
  <outline>
    <contour>
      <point x="131" y="-23" type="line"/>
      <point x="134" y="-22" type="line"/>
      <point x="134" y="612" type="line" smooth="yes"/>
      <point x="134" y="739"/>
      <point x="65" y="807"/>
      <point x="-43" y="807" type="curve" smooth="yes"/>
      <point x="-99" y="807"/>
      <point x="-159" y="795"/>
      <point x="-244" y="795" type="curve" smooth="yes"/>
      <point x="-337" y="795"/>
      <point x="-382" y="816"/>
      <point x="-382" y="882" type="curve" smooth="yes"/>
      <point x="-382" y="891"/>
      <point x="-381" y="902"/>
      <point x="-380" y="913" type="curve"/>
      <point x="-421" y="917" type="line"/>
      <point x="-424" y="899"/>
      <point x="-425" y="881"/>
      <point x="-425" y="864" type="curve" smooth="yes"/>
      <point x="-425" y="775"/>
      <point x="-373" y="709"/>
      <point x="-251" y="709" type="curve" smooth="yes"/>
      <point x="-156" y="709"/>
      <point x="-93" y="726"/>
      <point x="-23" y="726" type="curve" smooth="yes"/>
      <point x="43" y="726"/>
      <point x="81" y="696"/>
      <point x="81" y="632" type="curve" smooth="yes"/>
      <point x="81" y="624"/>
      <point x="80" y="617"/>
      <point x="79" y="612" type="curve"/>
      <point x="103" y="622" type="line"/>
      <point x="-29" y="622" type="line"/>
      <point x="4" y="570" type="line"/>
      <point x="80" y="570" type="line"/>
      <point x="80" y="5" type="line"/>
    </contour>
  </outline>
</glyph>
<glyph name="b-beng" format="2">
  <advance width="443"/>
  <outline>
    <contour>
      <point x="363" y="162" type="line"/>
      <point x="368" y="163" type="line"/>
      <point x="368" y="570" type="line"/>
      <point x="472" y="570" type="line"/>
      <point x="438" y="622" type="line"/>
      <point x="-29" y="622" type="line"/>
      <point x="5" y="570" type="line"/>
      <point x="314" y="570" type="line"/>
      <point x="314" y="522" type="line"/>
      <point x="320" y="551" type="line"/>
      <point x="212" y="521"/>
      <point x="122" y="482"/>
      <point x="28" y="428" type="curve"/>
      <point x="65" y="331" type="line"/>
      <point x="173" y="317"/>
      <point x="262" y="272"/>
      <point x="318" y="191" type="curve"/>
    </contour>
    <contour>
      <point x="314" y="230" type="line"/>
      <point x="321" y="242" type="line"/>
      <point x="260" y="347"/>
      <point x="166" y="381"/>
      <point x="89" y="398" type="curve"/>
      <point x="101" y="366" type="line"/>
      <point x="162" y="406"/>
      <point x="248" y="444"/>
      <point x="325" y="465" type="curve"/>
      <point x="314" y="486" type="line"/>
    </contour>
  </outline>
</glyph>
<glyph name="b_bha-beng" format="2">
  <advance width="625"/>
  <anchor x="429" y="-99" name="bottom"/>
  <anchor x="534" y="-159" name="bottom.rakaar"/>
  <anchor x="462" y="-105" name="bottom.rvocalic"/>
  <anchor x="402" y="-139" name="bottom.virama"/>
  <anchor x="524" y="570" name="top"/>
  <anchor x="527" y="570" name="topright"/>
  <outline>
    <contour>
      <point x="392" y="-100" type="curve" smooth="yes"/>
      <point x="508" y="-100"/>
      <point x="583" y="-36"/>
      <point x="583" y="80" type="curve" smooth="yes"/>
      <point x="583" y="147"/>
      <point x="546" y="199"/>
      <point x="497" y="247" type="curve"/>
      <point x="439" y="181"/>
      <point x="393" y="151"/>
      <point x="346" y="146" type="curve"/>
      <point x="361" y="129" type="line"/>
      <point x="377" y="143"/>
      <point x="385" y="158"/>
      <point x="385" y="181" type="curve" smooth="yes"/>
      <point x="385" y="222"/>
      <point x="355" y="248"/>
      <point x="315" y="248" type="curve" smooth="yes"/>
      <point x="267" y="248"/>
      <point x="239" y="214"/>
      <point x="239" y="174" type="curve" smooth="yes"/>
      <point x="239" y="114"/>
      <point x="288" y="74"/>
      <point x="359" y="74" type="curve" smooth="yes"/>
      <point x="429" y="74"/>
      <point x="491" y="118"/>
      <point x="527" y="175" type="curve"/>
      <point x="503" y="185" type="line"/>
      <point x="524" y="162"/>
      <point x="535" y="137"/>
      <point x="535" y="99" type="curve" smooth="yes"/>
      <point x="535" y="29"/>
      <point x="475" y="-8"/>
      <point x="389" y="-8" type="curve" smooth="yes"/>
      <point x="185" y="-8"/>
      <point x="106" y="216"/>
      <point x="57" y="483" type="curve"/>
      <point x="18" y="475" type="line"/>
      <point x="64" y="162"/>
      <point x="157" y="-100"/>
    </contour>
    <contour>
      <point x="469" y="226" type="line"/>
      <point x="477" y="238" type="line"/>
      <point x="407" y="347"/>
      <point x="301" y="384"/>
      <point x="215" y="402" type="curve"/>
      <point x="227" y="371" type="line"/>
      <point x="299" y="413"/>
      <point x="394" y="452"/>
      <point x="481" y="475" type="curve"/>
      <point x="469" y="495" type="line"/>
    </contour>
    <contour>
      <point x="473" y="186" type="curve"/>
      <point x="524" y="207" type="line"/>
      <point x="524" y="570" type="line"/>
      <point x="654" y="570" type="line"/>
      <point x="619" y="622" type="line"/>
      <point x="-29" y="622" type="line"/>
      <point x="5" y="570" type="line"/>
      <point x="469" y="570" type="line"/>
      <point x="469" y="534" type="line"/>
      <point x="475" y="561" type="line"/>
      <point x="354" y="529"/>
      <point x="258" y="489"/>
      <point x="151" y="432" type="curve"/>
      <point x="190" y="334" type="line"/>
      <point x="312" y="319"/>
      <point x="408" y="271"/>
    </contour>
  </outline>
</glyph>
<glyph name="b_d_ra-beng" format="2">
  <advance width="774"/>
  <anchor x="704" y="1" name="bottom"/>
  <anchor x="713" y="-55" name="bottom.rvocalic"/>
  <anchor x="693" y="-50" name="bottom.virama"/>
  <anchor x="611" y="570" name="top"/>
  <anchor x="591" y="570" name="topright"/>
  <outline>
    <contour>
      <point x="709" y="-69" type="line"/>
      <point x="713" y="-65" type="line"/>
      <point x="689" y="-5"/>
      <point x="672" y="89"/>
      <point x="672" y="181" type="curve" smooth="yes"/>
      <point x="672" y="263"/>
      <point x="695" y="344"/>
      <point x="741" y="418" type="curve"/>
      <point x="653" y="498" type="line"/>
      <point x="542" y="437"/>
      <point x="441" y="350"/>
      <point x="374" y="279" type="curve"/>
      <point x="395" y="261" type="line"/>
      <point x="395" y="570" type="line"/>
      <point x="803" y="570" type="line"/>
      <point x="769" y="622" type="line"/>
      <point x="-29" y="622" type="line"/>
      <point x="5" y="570" type="line"/>
      <point x="341" y="570" type="line"/>
      <point x="341" y="245" type="line"/>
      <point x="357" y="250" type="line"/>
      <point x="316" y="323"/>
      <point x="221" y="372"/>
      <point x="134" y="387" type="curve"/>
      <point x="156" y="370" type="line"/>
      <point x="229" y="409"/>
      <point x="305" y="438"/>
      <point x="365" y="460" type="curve"/>
      <point x="349" y="547" type="line"/>
      <point x="241" y="511"/>
      <point x="153" y="474"/>
      <point x="61" y="426" type="curve"/>
      <point x="112" y="311" type="line"/>
      <point x="200" y="309"/>
      <point x="306" y="274"/>
      <point x="385" y="173" type="curve"/>
      <point x="392" y="173" type="line"/>
      <point x="484" y="268"/>
      <point x="572" y="348"/>
      <point x="674" y="409" type="curve"/>
      <point x="656" y="417" type="line"/>
      <point x="628" y="355"/>
      <point x="614" y="289"/>
      <point x="614" y="222" type="curve" smooth="yes"/>
      <point x="614" y="128"/>
      <point x="630" y="67"/>
      <point x="654" y="1" type="curve"/>
      <point x="659" y="8" type="line"/>
      <point x="607" y="79"/>
      <point x="543" y="116"/>
      <point x="466" y="116" type="curve" smooth="yes"/>
      <point x="388" y="116"/>
      <point x="315" y="96"/>
      <point x="244" y="96" type="curve" smooth="yes"/>
      <point x="184" y="96"/>
      <point x="132" y="108"/>
      <point x="132" y="181" type="curve" smooth="yes"/>
      <point x="132" y="206"/>
      <point x="135" y="226"/>
      <point x="141" y="249" type="curve"/>
      <point x="99" y="258" type="line"/>
      <point x="91" y="229"/>
      <point x="84" y="191"/>
      <point x="84" y="148" type="curve" smooth="yes"/>
      <point x="84" y="37"/>
      <point x="164" y="8"/>
      <point x="239" y="8" type="curve" smooth="yes"/>
      <point x="321" y="8"/>
      <point x="394" y="33"/>
      <point x="475" y="33" type="curve" smooth="yes"/>
      <point x="543" y="33"/>
      <point x="613" y="8"/>
      <point x="661" y="-47" type="curve"/>
    </contour>
  </outline>
</glyph>
<glyph name="b_da-beng" format="2">
  <advance width="739"/>
  <anchor x="674" y="-12" name="bottom"/>
  <anchor x="675" y="70" name="bottom.rakaar"/>
  <anchor x="672" y="14" name="bottom.rvocalic"/>
  <anchor x="653" y="0" name="bottom.virama"/>
  <anchor x="360" y="570" name="top"/>
  <anchor x="551" y="570" name="topleft"/>
  <anchor x="363" y="570" name="topright"/>
  <outline>
    <contour>
      <point x="633" y="-14" type="curve"/>
      <point x="672" y="4" type="line"/>
      <point x="650" y="64"/>
      <point x="637" y="121"/>
      <point x="637" y="181" type="curve" smooth="yes"/>
      <point x="637" y="263"/>
      <point x="660" y="344"/>
      <point x="706" y="418" type="curve"/>
      <point x="618" y="498" type="line"/>
      <point x="507" y="437"/>
      <point x="406" y="350"/>
      <point x="339" y="279" type="curve"/>
      <point x="360" y="261" type="line"/>
      <point x="360" y="570" type="line"/>
      <point x="768" y="570" type="line"/>
      <point x="734" y="622" type="line"/>
      <point x="-29" y="622" type="line"/>
      <point x="5" y="570" type="line"/>
      <point x="306" y="570" type="line"/>
      <point x="306" y="245" type="line"/>
      <point x="322" y="250" type="line"/>
      <point x="281" y="323"/>
      <point x="186" y="372"/>
      <point x="99" y="387" type="curve"/>
      <point x="121" y="370" type="line"/>
      <point x="194" y="409"/>
      <point x="270" y="438"/>
      <point x="330" y="460" type="curve"/>
      <point x="314" y="547" type="line"/>
      <point x="206" y="511"/>
      <point x="118" y="474"/>
      <point x="26" y="426" type="curve"/>
      <point x="77" y="311" type="line"/>
      <point x="165" y="309"/>
      <point x="271" y="274"/>
      <point x="350" y="173" type="curve"/>
      <point x="357" y="173" type="line"/>
      <point x="450" y="269"/>
      <point x="538" y="348"/>
      <point x="639" y="409" type="curve"/>
      <point x="621" y="417" type="line"/>
      <point x="593" y="355"/>
      <point x="579" y="286"/>
      <point x="579" y="219" type="curve" smooth="yes"/>
      <point x="579" y="141"/>
      <point x="598" y="64"/>
    </contour>
  </outline>
</glyph>
<glyph name="b_dha-beng" format="2">
  <advance width="651"/>
  <anchor x="436" y="-37" name="bottom"/>
  <anchor x="441" y="-1" name="bottom.rakaar"/>
  <anchor x="441" y="-60" name="bottom.rvocalic"/>
  <anchor x="421" y="-65" name="bottom.virama"/>
  <anchor x="441" y="570" name="top"/>
  <anchor x="444" y="570" name="topright"/>
  <outline>
    <contour>
      <point x="436" y="-80" type="line"/>
      <point x="441" y="-79" type="line"/>
      <point x="441" y="570" type="line"/>
      <point x="680" y="570" type="line"/>
      <point x="646" y="622" type="line"/>
      <point x="-29" y="622" type="line"/>
      <point x="5" y="570" type="line"/>
      <point x="387" y="570" type="line"/>
      <point x="387" y="511" type="line"/>
      <point x="393" y="535" type="line"/>
      <point x="264" y="496"/>
      <point x="159" y="451"/>
      <point x="41" y="388" type="curve"/>
      <point x="85" y="282" type="line"/>
      <point x="143" y="278"/>
      <point x="195" y="270"/>
      <point x="242" y="245" type="curve"/>
      <point x="277" y="262" type="line"/>
      <point x="228" y="310"/>
      <point x="164" y="341"/>
      <point x="109" y="354" type="curve"/>
      <point x="121" y="330" type="line"/>
      <point x="200" y="374"/>
      <point x="301" y="410"/>
      <point x="399" y="445" type="curve"/>
      <point x="387" y="463" type="line"/>
      <point x="387" y="-4" type="line"/>
      <point x="394" y="12" type="line"/>
      <point x="329" y="110"/>
      <point x="242" y="151"/>
      <point x="173" y="175" type="curve"/>
      <point x="185" y="149" type="line"/>
      <point x="275" y="199"/>
      <point x="423" y="258"/>
      <point x="535" y="286" type="curve"/>
      <point x="517" y="323" type="line"/>
      <point x="517" y="7" type="line"/>
      <point x="583" y="-38" type="line"/>
      <point x="584" y="306" type="line"/>
      <point x="512" y="364" type="line"/>
      <point x="391" y="336"/>
      <point x="235" y="275"/>
      <point x="105" y="207" type="curve"/>
      <point x="153" y="103" type="line"/>
      <point x="245" y="81"/>
      <point x="321" y="44"/>
      <point x="389" y="-43" type="curve"/>
    </contour>
  </outline>
</glyph>
<glyph name="b_ja-beng" format="2">
  <advance width="879"/>
  <anchor x="787" y="-12" name="bottom"/>
  <anchor x="787" y="70" name="bottom.rakaar"/>
  <anchor x="784" y="14" name="bottom.rvocalic"/>
  <anchor x="765" y="0" name="bottom.virama"/>
  <anchor x="416" y="570" name="top"/>
  <anchor x="671" y="570" name="topleft"/>
  <anchor x="419" y="570" name="topright"/>
  <outline>
    <contour>
      <point x="446" y="27" type="curve" smooth="yes"/>
      <point x="570" y="27"/>
      <point x="648" y="91"/>
      <point x="648" y="206" type="curve" smooth="yes"/>
      <point x="648" y="298"/>
      <point x="603" y="358"/>
      <point x="562" y="389" type="curve"/>
      <point x="530" y="347"/>
      <point x="497" y="302"/>
      <point x="448" y="302" type="curve" smooth="yes"/>
      <point x="427" y="302"/>
      <point x="416" y="317"/>
      <point x="416" y="335" type="curve" smooth="yes"/>
      <point x="416" y="570" type="line"/>
      <point x="908" y="570" type="line"/>
      <point x="874" y="622" type="line"/>
      <point x="-29" y="622" type="line"/>
      <point x="5" y="570" type="line"/>
      <point x="362" y="570" type="line"/>
      <point x="362" y="319" type="line"/>
      <point x="378" y="315" type="line"/>
      <point x="331" y="383"/>
      <point x="262" y="418"/>
      <point x="203" y="428" type="curve"/>
      <point x="212" y="404" type="line"/>
      <point x="267" y="431"/>
      <point x="337" y="460"/>
      <point x="384" y="476" type="curve"/>
      <point x="378" y="558" type="line"/>
      <point x="296" y="533"/>
      <point x="226" y="505"/>
      <point x="135" y="459" type="curve"/>
      <point x="183" y="358" type="line"/>
      <point x="255" y="352"/>
      <point x="324" y="323"/>
      <point x="378" y="268" type="curve" smooth="yes"/>
      <point x="411" y="234"/>
      <point x="433" y="223"/>
      <point x="466" y="223" type="curve" smooth="yes"/>
      <point x="518" y="223"/>
      <point x="556" y="258"/>
      <point x="600" y="315" type="curve"/>
      <point x="566" y="313" type="line"/>
      <point x="593" y="291"/>
      <point x="600" y="265"/>
      <point x="600" y="229" type="curve" smooth="yes"/>
      <point x="600" y="151"/>
      <point x="534" y="118"/>
      <point x="448" y="118" type="curve" smooth="yes"/>
      <point x="272" y="118"/>
      <point x="136" y="247"/>
      <point x="69" y="494" type="curve"/>
      <point x="26" y="483" type="line"/>
      <point x="93" y="187"/>
      <point x="255" y="27"/>
    </contour>
    <contour>
      <point x="745" y="-14" type="curve"/>
      <point x="784" y="4" type="line"/>
      <point x="765" y="63"/>
      <point x="757" y="124"/>
      <point x="757" y="183" type="curve" smooth="yes"/>
      <point x="757" y="277"/>
      <point x="783" y="357"/>
      <point x="835" y="436" type="curve"/>
      <point x="779" y="504" type="line"/>
      <point x="743" y="490"/>
      <point x="694" y="480"/>
      <point x="629" y="480" type="curve" smooth="yes"/>
      <point x="546" y="480"/>
      <point x="469" y="501"/>
      <point x="413" y="555" type="curve"/>
      <point x="394" y="524" type="line"/>
      <point x="473" y="445"/>
      <point x="591" y="412"/>
      <point x="692" y="412" type="curve" smooth="yes"/>
      <point x="713" y="412"/>
      <point x="733" y="414"/>
      <point x="751" y="417" type="curve"/>
      <point x="739" y="442" type="line"/>
      <point x="715" y="381"/>
      <point x="701" y="292"/>
      <point x="701" y="214" type="curve" smooth="yes"/>
      <point x="701" y="133"/>
      <point x="716" y="62"/>
    </contour>
  </outline>
</glyph>
<glyph name="b_ra-beng" format="2">
  <advance width="595"/>
  <anchor x="510" y="-6" name="bottom"/>
  <anchor x="515" y="-32" name="bottom.rvocalic"/>
  <anchor x="495" y="-30" name="bottom.virama"/>
  <anchor x="515" y="570" name="top"/>
  <anchor x="518" y="570" name="topright"/>
  <outline>
    <contour>
      <point x="510" y="-49" type="line"/>
      <point x="515" y="-48" type="line"/>
      <point x="515" y="570" type="line"/>
      <point x="624" y="570" type="line"/>
      <point x="590" y="622" type="line"/>
      <point x="-29" y="622" type="line"/>
      <point x="5" y="570" type="line"/>
      <point x="461" y="570" type="line"/>
      <point x="461" y="504" type="line"/>
      <point x="467" y="524" type="line"/>
      <point x="333" y="487"/>
      <point x="235" y="448"/>
      <point x="114" y="369" type="curve"/>
      <point x="155" y="256" type="line"/>
      <point x="292" y="238"/>
      <point x="391" y="174"/>
      <point x="472" y="72" type="curve"/>
      <point x="468" y="134" type="line"/>
      <point x="390" y="261"/>
      <point x="278" y="304"/>
      <point x="182" y="335" type="curve"/>
      <point x="194" y="310" type="line"/>
      <point x="276" y="370"/>
      <point x="375" y="408"/>
      <point x="473" y="433" type="curve"/>
      <point x="461" y="448" type="line"/>
      <point x="460" y="119" type="line"/>
      <point x="465" y="45" type="line"/>
      <point x="424" y="99"/>
      <point x="378" y="126"/>
      <point x="321" y="126" type="curve" smooth="yes"/>
      <point x="263" y="126"/>
      <point x="233" y="116"/>
      <point x="175" y="116" type="curve" smooth="yes"/>
      <point x="108" y="116"/>
      <point x="75" y="146"/>
      <point x="75" y="204" type="curve" smooth="yes"/>
      <point x="75" y="239"/>
      <point x="81" y="266"/>
      <point x="89" y="289" type="curve"/>
      <point x="45" y="299" type="line"/>
      <point x="36" y="269"/>
      <point x="28" y="231"/>
      <point x="28" y="188" type="curve" smooth="yes"/>
      <point x="28" y="71"/>
      <point x="88" y="28"/>
      <point x="167" y="28" type="curve" smooth="yes"/>
      <point x="236" y="28"/>
      <point x="269" y="43"/>
      <point x="330" y="43" type="curve" smooth="yes"/>
      <point x="378" y="43"/>
      <point x="427" y="28"/>
      <point x="463" y="-12" type="curve"/>
    </contour>
  </outline>
</glyph>
<glyph name="b_ra_uMatra-beng" format="2">
  <advance width="831"/>
  <anchor x="510" y="-6" name="bottom"/>
  <anchor x="515" y="-32" name="bottom.rvocalic"/>
  <anchor x="495" y="-30" name="bottom.virama"/>
  <anchor x="515" y="570" name="top"/>
  <anchor x="518" y="570" name="topright"/>
  <outline>
    <contour>
      <point x="510" y="-49" type="line"/>
      <point x="515" y="-48" type="line"/>
      <point x="515" y="570" type="line"/>
      <point x="860" y="570" type="line"/>
      <point x="826" y="622" type="line"/>
      <point x="-29" y="622" type="line"/>
      <point x="5" y="570" type="line"/>
      <point x="461" y="570" type="line"/>
      <point x="461" y="504" type="line"/>
      <point x="467" y="524" type="line"/>
      <point x="333" y="487"/>
      <point x="235" y="448"/>
      <point x="114" y="369" type="curve"/>
      <point x="155" y="256" type="line"/>
      <point x="292" y="238"/>
      <point x="391" y="174"/>
      <point x="472" y="72" type="curve"/>
      <point x="468" y="134" type="line"/>
      <point x="390" y="261"/>
      <point x="278" y="304"/>
      <point x="182" y="335" type="curve"/>
      <point x="194" y="310" type="line"/>
      <point x="276" y="370"/>
      <point x="375" y="408"/>
      <point x="473" y="433" type="curve"/>
      <point x="461" y="448" type="line"/>
      <point x="460" y="119" type="line"/>
      <point x="465" y="45" type="line"/>
      <point x="424" y="99"/>
      <point x="378" y="126"/>
      <point x="321" y="126" type="curve" smooth="yes"/>
      <point x="263" y="126"/>
      <point x="233" y="116"/>
      <point x="175" y="116" type="curve" smooth="yes"/>
      <point x="108" y="116"/>
      <point x="75" y="146"/>
      <point x="75" y="204" type="curve" smooth="yes"/>
      <point x="75" y="239"/>
      <point x="81" y="266"/>
      <point x="89" y="289" type="curve"/>
      <point x="45" y="299" type="line"/>
      <point x="36" y="269"/>
      <point x="28" y="231"/>
      <point x="28" y="188" type="curve" smooth="yes"/>
      <point x="28" y="71"/>
      <point x="88" y="28"/>
      <point x="167" y="28" type="curve" smooth="yes"/>
      <point x="236" y="28"/>
      <point x="269" y="43"/>
      <point x="330" y="43" type="curve" smooth="yes"/>
      <point x="378" y="43"/>
      <point x="427" y="28"/>
      <point x="463" y="-12" type="curve"/>
    </contour>
    <contour>
      <point x="675" y="191" type="curve" smooth="yes"/>
      <point x="754" y="191"/>
      <point x="804" y="240"/>
      <point x="804" y="330" type="curve" smooth="yes"/>
      <point x="804" y="439"/>
      <point x="717" y="478"/>
      <point x="655" y="478" type="curve" smooth="yes"/>
      <point x="603" y="478"/>
      <point x="572" y="450"/>
      <point x="572" y="409" type="curve" smooth="yes"/>
      <point x="572" y="367"/>
      <point x="599" y="343"/>
      <point x="639" y="343" type="curve" smooth="yes"/>
      <point x="677" y="343"/>
      <point x="701" y="366"/>
      <point x="701" y="404" type="curve" smooth="yes"/>
      <point x="701" y="419"/>
      <point x="698" y="431"/>
      <point x="693" y="440" type="curve"/>
      <point x="683" y="423" type="line"/>
      <point x="718" y="423"/>
      <point x="752" y="397"/>
      <point x="752" y="348" type="curve" smooth="yes"/>
      <point x="752" y="297"/>
      <point x="719" y="269"/>
      <point x="663" y="269" type="curve" smooth="yes"/>
      <point x="584" y="269"/>
      <point x="515" y="337"/>
      <point x="515" y="411" type="curve"/>
      <point x="493" y="358" type="line"/>
      <point x="524" y="264"/>
      <point x="586" y="191"/>
    </contour>
  </outline>
</glyph>
<glyph name="ba-beng.blwf" format="2">
  <anchor x="0" y="0" name="_bottom.rakaar"/>
  <anchor x="0" y="-162" name="bottom"/>
  <anchor x="0" y="-150" name="bottom.rvocalic"/>
  <outline>
    <contour>
      <point x="-5" y="-175" type="line"/>
      <point x="0" y="-174" type="line"/>
      <point x="0" y="103" type="line"/>
      <point x="-47" y="138" type="line"/>
      <point x="-119" y="116"/>
      <point x="-206" y="81"/>
      <point x="-284" y="37" type="curve"/>
      <point x="-247" y="-52" type="line"/>
      <point x="-160" y="-53"/>
      <point x="-87" y="-90"/>
      <point x="-46" y="-149" type="curve"/>
    </contour>
    <contour>
      <point x="-54" y="-114" type="line"/>
      <point x="-45" y="-103" type="line"/>
      <point x="-90" y="-20"/>
      <point x="-169" y="2"/>
      <point x="-229" y="12" type="curve"/>
      <point x="-217" y="-22" type="line"/>
      <point x="-177" y="8"/>
      <point x="-98" y="42"/>
      <point x="-43" y="56" type="curve"/>
      <point x="-54" y="79" type="line"/>
    </contour>
  </outline>
</glyph>
<glyph name="bh_ba-beng" format="2">
  <advance width="610"/>
  <anchor x="443" y="-123" name="bottom"/>
  <anchor x="448" y="-83" name="bottom.rakaar"/>
  <anchor x="448" y="-145" name="bottom.rvocalic"/>
  <anchor x="428" y="-147" name="bottom.virama"/>
  <anchor x="316" y="570" name="top"/>
  <anchor x="319" y="570" name="topright"/>
  <outline>
    <contour>
      <point x="346" y="115" type="curve" smooth="yes"/>
      <point x="477" y="115"/>
      <point x="554" y="194"/>
      <point x="554" y="311" type="curve" smooth="yes"/>
      <point x="554" y="408"/>
      <point x="502" y="474"/>
      <point x="462" y="510" type="curve"/>
      <point x="386" y="421"/>
      <point x="337" y="392"/>
      <point x="292" y="387" type="curve"/>
      <point x="306" y="371" type="line"/>
      <point x="322" y="386"/>
      <point x="331" y="401"/>
      <point x="331" y="425" type="curve" smooth="yes"/>
      <point x="331" y="468"/>
      <point x="300" y="495"/>
      <point x="260" y="495" type="curve" smooth="yes"/>
      <point x="211" y="495"/>
      <point x="182" y="460"/>
      <point x="182" y="419" type="curve" smooth="yes"/>
      <point x="182" y="356"/>
      <point x="230" y="316"/>
      <point x="303" y="316" type="curve" smooth="yes"/>
      <point x="377" y="316"/>
      <point x="435" y="353"/>
      <point x="494" y="424" type="curve"/>
      <point x="470" y="424" type="line"/>
      <point x="493" y="397"/>
      <point x="505" y="368"/>
      <point x="505" y="325" type="curve" smooth="yes"/>
      <point x="505" y="257"/>
      <point x="442" y="204"/>
      <point x="344" y="204" type="curve" smooth="yes"/>
      <point x="228" y="204"/>
      <point x="123" y="277"/>
      <point x="54" y="506" type="curve"/>
      <point x="15" y="494" type="line"/>
      <point x="82" y="222"/>
      <point x="202" y="115"/>
    </contour>
    <contour>
      <point x="443" y="-166" type="line"/>
      <point x="448" y="-165" type="line"/>
      <point x="448" y="154" type="line"/>
      <point x="394" y="154" type="line"/>
      <point x="394" y="-82" type="line"/>
      <point x="401" y="-66" type="line"/>
      <point x="336" y="9"/>
      <point x="264" y="40"/>
      <point x="195" y="52" type="curve"/>
      <point x="207" y="26" type="line"/>
      <point x="262" y="62"/>
      <point x="347" y="100"/>
      <point x="416" y="119" type="curve"/>
      <point x="412" y="185" type="line"/>
      <point x="306" y="166"/>
      <point x="218" y="139"/>
      <point x="127" y="84" type="curve"/>
      <point x="175" y="-20" type="line"/>
      <point x="267" y="-30"/>
      <point x="328" y="-57"/>
      <point x="396" y="-129" type="curve"/>
    </contour>
    <contour>
      <point x="5" y="570" type="line"/>
      <point x="639" y="570" type="line"/>
      <point x="605" y="622" type="line"/>
      <point x="-29" y="622" type="line"/>
    </contour>
  </outline>
</glyph>
<glyph name="bh_la-beng" format="2">
  <advance width="555"/>
  <anchor x="482" y="41" name="bottom"/>
  <anchor x="484" y="81" name="bottom.rakaar"/>
  <anchor x="484" y="16" name="bottom.rvocalic"/>
  <anchor x="464" y="17" name="bottom.virama"/>
  <anchor x="389" y="570" name="top"/>
  <anchor x="384" y="570" name="topright"/>
  <outline>
    <contour>
      <point x="479" y="-2" type="line"/>
      <point x="484" y="-1" type="line"/>
      <point x="484" y="371" type="line" smooth="yes"/>
      <point x="484" y="428"/>
      <point x="442" y="476"/>
      <point x="392" y="512" type="curve"/>
      <point x="316" y="423"/>
      <point x="252" y="392"/>
      <point x="207" y="387" type="curve"/>
      <point x="221" y="371" type="line"/>
      <point x="237" y="386"/>
      <point x="246" y="401"/>
      <point x="246" y="425" type="curve" smooth="yes"/>
      <point x="246" y="468"/>
      <point x="215" y="495"/>
      <point x="175" y="495" type="curve" smooth="yes"/>
      <point x="126" y="495"/>
      <point x="97" y="460"/>
      <point x="97" y="413" type="curve" smooth="yes"/>
      <point x="97" y="350"/>
      <point x="143" y="313"/>
      <point x="213" y="313" type="curve" smooth="yes"/>
      <point x="290" y="313"/>
      <point x="366" y="353"/>
      <point x="425" y="424" type="curve"/>
      <point x="409" y="427" type="line"/>
      <point x="427" y="407"/>
      <point x="430" y="390"/>
      <point x="430" y="360" type="curve" smooth="yes"/>
      <point x="430" y="237" type="line" smooth="yes"/>
      <point x="430" y="190"/>
      <point x="433" y="141"/>
      <point x="438" y="94" type="curve"/>
      <point x="445" y="97" type="line"/>
      <point x="423" y="173"/>
      <point x="383" y="242"/>
      <point x="330" y="242" type="curve" smooth="yes"/>
      <point x="296" y="242"/>
      <point x="265" y="216"/>
      <point x="265" y="162" type="curve"/>
      <point x="274" y="167" type="line"/>
      <point x="259" y="210"/>
      <point x="225" y="258"/>
      <point x="169" y="258" type="curve" smooth="yes"/>
      <point x="110" y="258"/>
      <point x="63" y="218"/>
      <point x="63" y="141" type="curve" smooth="yes"/>
      <point x="63" y="55"/>
      <point x="119" y="16"/>
      <point x="177" y="16" type="curve" smooth="yes"/>
      <point x="218" y="16"/>
      <point x="243" y="39"/>
      <point x="243" y="76" type="curve" smooth="yes"/>
      <point x="243" y="109"/>
      <point x="222" y="131"/>
      <point x="190" y="131" type="curve" smooth="yes"/>
      <point x="162" y="131"/>
      <point x="140" y="110"/>
      <point x="140" y="80" type="curve" smooth="yes"/>
      <point x="140" y="66"/>
      <point x="145" y="53"/>
      <point x="156" y="43" type="curve"/>
      <point x="176" y="71" type="line"/>
      <point x="169" y="69"/>
      <point x="162" y="69"/>
      <point x="156" y="69" type="curve" smooth="yes"/>
      <point x="132" y="69"/>
      <point x="114" y="86"/>
      <point x="114" y="119" type="curve" smooth="yes"/>
      <point x="114" y="154"/>
      <point x="145" y="180"/>
      <point x="188" y="180" type="curve" smooth="yes"/>
      <point x="226" y="180"/>
      <point x="261" y="159"/>
      <point x="273" y="102" type="curve"/>
      <point x="298" y="94" type="line"/>
      <point x="299" y="151"/>
      <point x="321" y="161"/>
      <point x="342" y="161" type="curve" smooth="yes"/>
      <point x="381" y="161"/>
      <point x="410" y="121"/>
      <point x="441" y="31" type="curve"/>
    </contour>
    <contour>
      <point x="5" y="570" type="line"/>
      <point x="584" y="570" type="line"/>
      <point x="550" y="622" type="line"/>
      <point x="-29" y="622" type="line"/>
    </contour>
  </outline>
</glyph>
